<svg width="512" height="403" xmlns="http://www.w3.org/2000/svg" xmlns:xlink="http://www.w3.org/1999/xlink" xml:space="preserve" overflow="hidden"><g transform="translate(-617 -1308)"><path d="M1.14583-1.61986e-06 1.14616 232.367-1.1455 232.367-1.14583 1.61986e-06ZM13.7503 227.783 0.000360892 255.283-13.7497 227.783Z" transform="matrix(1 0 0 -1 748 1591.28)"/><path d="M745 1590.85 1030.46 1590.85 1030.46 1593.15 745 1593.15ZM1025.88 1578.25 1053.38 1592 1025.88 1605.75Z"/><path d="M0.665581-0.932703 133.547 93.892 132.216 95.7574-0.665581 0.932703ZM137.138 80.97 151.535 108.136 121.164 103.355Z" transform="matrix(1 0 0 -1 748 1592.14)"/><path d="M927.607 1463.62C928.444 1463.62 929.18 1463.71 929.815 1463.9 930.45 1464.09 931.011 1464.38 931.497 1464.77 931.984 1465.16 932.416 1465.67 932.794 1466.29 933.172 1466.91 933.537 1467.76 933.888 1468.82 934.24 1469.89 934.57 1471.22 934.881 1472.8 935.192 1474.38 935.469 1476.02 935.712 1477.72L936.117 1477.72C938.711 1474.07 940.677 1471.4 942.014 1469.72 943.351 1468.03 944.479 1466.77 945.398 1465.95 946.317 1465.12 947.202 1464.54 948.053 1464.2 948.904 1463.87 950.032 1463.7 951.437 1463.7 952.706 1463.7 953.747 1463.86 954.557 1464.18L952.936 1471.52 950.099 1471.52C949.937 1470.38 949.464 1469.82 948.681 1469.82 948.438 1469.82 948.181 1469.86 947.911 1469.94 947.641 1470.02 947.31 1470.2 946.918 1470.47 946.526 1470.74 945.952 1471.26 945.195 1472.05 944.439 1472.83 943.588 1473.79 942.642 1474.92 941.697 1476.06 940.724 1477.25 939.724 1478.49L936.968 1481.93C937.455 1484.53 937.914 1486.77 938.346 1488.66 938.779 1490.55 939.164 1492.13 939.501 1493.38 939.839 1494.64 940.136 1495.63 940.393 1496.36 940.65 1497.09 940.927 1497.64 941.224 1498 941.521 1498.37 941.825 1498.63 942.136 1498.77 942.446 1498.92 942.804 1499 943.21 1499 943.939 1499 944.648 1498.71 945.337 1498.15 946.026 1497.58 947.019 1496.3 948.316 1494.3L950.95 1496.04C949.059 1498.85 947.35 1500.83 945.824 1501.98 944.297 1503.12 942.48 1503.7 940.373 1503.7 939.211 1503.7 938.225 1503.49 937.414 1503.07 936.604 1502.65 935.901 1501.98 935.307 1501.06 934.712 1500.15 934.185 1498.71 933.726 1496.77 932.889 1493.31 932.375 1490.66 932.186 1488.82L931.781 1488.82C928.917 1492.85 926.789 1495.74 925.398 1497.5 924.006 1499.25 922.858 1500.55 921.953 1501.39 921.048 1502.23 920.17 1502.81 919.319 1503.15 918.468 1503.49 917.34 1503.66 915.935 1503.66 914.665 1503.66 913.625 1503.5 912.814 1503.17L914.435 1495.84 917.272 1495.84C917.434 1496.97 917.907 1497.54 918.691 1497.54 919.069 1497.54 919.467 1497.44 919.886 1497.23 920.305 1497.03 920.906 1496.54 921.69 1495.77 922.473 1495 923.554 1493.8 924.932 1492.15 926.31 1490.5 928.309 1488.03 930.93 1484.73 930.525 1482.6 930.106 1480.54 929.673 1478.57 929.241 1476.6 928.795 1474.76 928.336 1473.06 927.877 1471.36 927.498 1470.24 927.201 1469.72 926.904 1469.19 926.587 1468.82 926.249 1468.62 925.911 1468.42 925.486 1468.32 924.972 1468.32 924.405 1468.32 923.892 1468.45 923.432 1468.7 922.973 1468.96 922.473 1469.41 921.933 1470.04 921.392 1470.67 920.676 1471.67 919.785 1473.02L917.151 1471.28C918.853 1468.71 920.487 1466.79 922.054 1465.52 923.621 1464.25 925.472 1463.62 927.607 1463.62Z" fill-rule="evenodd"/><text fill="#000000" fill-opacity="0" font-family="Arial,Arial_MSFontService,sans-serif" font-size="40.0815" x="912.814" y="1498.69">𝑥</text><path d="M1087.42 1575.93 1116.23 1575.93 1117 1577.95 1097.67 1600.16C1093.92 1604.46 1090.66 1608.1 1087.9 1611.1L1088.15 1611.39 1097.31 1611.39C1098.93 1611.39 1100.17 1611.3 1101.04 1611.12 1101.9 1610.95 1102.66 1610.62 1103.31 1610.13 1103.95 1609.64 1104.62 1608.91 1105.31 1607.92 1106 1606.94 1106.86 1605.39 1107.88 1603.28L1111.49 1603.28 1109.02 1614.67 1079.68 1614.67 1078.91 1612.68 1101.08 1587.15C1104.21 1583.56 1106.51 1581 1107.97 1579.49L1107.72 1579.21 1098.24 1579.21C1096.83 1579.21 1095.81 1579.3 1095.16 1579.49 1094.51 1579.68 1093.86 1580.01 1093.21 1580.48 1092.57 1580.96 1091.87 1581.66 1091.13 1582.59 1090.38 1583.52 1089.55 1584.85 1088.63 1586.58L1085.03 1586.58Z" fill-rule="evenodd"/><text fill="#000000" fill-opacity="0" font-family="Arial,Arial_MSFontService,sans-serif" font-size="38.7441" x="1078.91" y="1609.83">𝑧</text><path d="M794.391 1348.33C795.498 1348.33 796.444 1348.48 797.228 1348.78 797.768 1349 798.308 1349.35 798.849 1349.85 799.389 1350.35 799.869 1351.05 800.287 1351.94 800.706 1352.83 801.071 1353.83 801.382 1354.94 801.692 1356.05 802.037 1357.64 802.415 1359.72 803.064 1363.21 803.692 1366.88 804.3 1370.73 804.908 1374.58 805.428 1378.15 805.86 1381.45 808.481 1377.66 810.703 1373.96 812.527 1370.34 814.35 1366.72 815.661 1363.57 816.458 1360.9 817.255 1358.22 817.653 1356.05 817.653 1354.37 817.653 1353.1 817.383 1352.24 816.843 1351.78 816.303 1351.32 815.384 1351.05 814.087 1350.97L814.492 1348.98 825.151 1348.98 826.245 1351.01C824.192 1356.63 821.409 1362.64 817.897 1369.04 814.438 1375.31 810.48 1381.55 806.022 1387.77 801.753 1393.69 798.2 1397.97 795.363 1400.62 793.391 1402.43 791.486 1403.72 789.649 1404.51 788.19 1405.1 786.637 1405.4 784.988 1405.4 784.421 1405.4 783.766 1405.35 783.023 1405.26 782.28 1405.16 781.706 1405.03 781.3 1404.87L783.043 1397.01 786.245 1397.01C786.245 1398.74 786.839 1399.6 788.028 1399.6 789.595 1399.6 791.419 1398.62 793.499 1396.66 795.58 1394.7 798.025 1391.75 800.835 1387.81 800.051 1383.08 798.984 1377.38 797.633 1370.71 796.201 1363.57 795.255 1359.16 794.796 1357.45 794.229 1355.4 793.634 1354.09 793.013 1353.52 792.635 1353.17 792.162 1353 791.594 1353 790.73 1353 789.919 1353.35 789.163 1354.05 788.406 1354.75 787.474 1355.97 786.366 1357.7L783.732 1355.95C785.596 1353.17 787.339 1351.21 788.96 1350.06 790.581 1348.91 792.391 1348.33 794.391 1348.33Z" fill-rule="evenodd"/><text fill="#000000" fill-opacity="0" font-family="Arial,Arial_MSFontService,sans-serif" font-size="57.0625" x="781.3" y="1398.26">𝑦</text><path d="M791.236 1478.2C788.318 1478.2 785.596 1479.24 783.069 1481.32 780.543 1483.4 778.328 1486.37 776.423 1490.23 774.518 1494.1 773.039 1498.34 771.985 1502.96 770.931 1507.58 770.405 1511.66 770.405 1515.2 770.405 1523.55 773.444 1527.72 779.523 1527.72 783.279 1527.72 786.724 1525.97 789.858 1522.47 792.992 1518.97 795.518 1514.13 797.436 1507.94 799.355 1501.76 800.314 1495.97 800.314 1490.6 800.314 1486.57 799.571 1483.5 798.085 1481.38 796.599 1479.26 794.316 1478.2 791.236 1478.2ZM791.681 1474.63C796.896 1474.63 800.915 1476.14 803.738 1479.17 806.562 1482.2 807.973 1486.57 807.973 1492.3 807.973 1496.08 807.379 1500.31 806.19 1504.98 805.001 1509.66 803.367 1513.79 801.286 1517.37 799.206 1520.95 796.795 1523.83 794.052 1526.02 791.31 1528.21 788.331 1529.72 785.116 1530.56 785.737 1532.53 786.318 1534.16 786.859 1535.44 787.399 1536.72 787.919 1537.76 788.419 1538.56 788.919 1539.36 789.412 1539.95 789.898 1540.35 790.385 1540.74 790.871 1541 791.357 1541.14 791.844 1541.27 792.411 1541.34 793.059 1541.34 794.086 1541.34 795.126 1541.04 796.18 1540.45 797.234 1539.85 798.409 1538.83 799.706 1537.37L801.813 1539.64C799.652 1541.99 797.639 1543.65 795.775 1544.62 793.91 1545.59 791.992 1546.08 790.02 1546.08 787.777 1546.08 785.947 1545.58 784.528 1544.58 783.11 1543.58 781.881 1541.99 780.84 1539.8 779.8 1537.61 778.794 1534.75 777.821 1531.21 772.931 1530.94 769.202 1529.31 766.635 1526.34 764.069 1523.37 762.785 1519.18 762.785 1513.78 762.785 1509.73 763.468 1505.15 764.832 1500.04 766.196 1494.93 768.169 1490.43 770.749 1486.52 773.329 1482.62 776.409 1479.66 779.989 1477.65 783.569 1475.64 787.467 1474.63 791.681 1474.63Z" fill-rule="evenodd"/><text fill="#000000" fill-opacity="0" font-family="Arial,Arial_MSFontService,sans-serif" font-size="71.4497" x="762.785" y="1537.15">𝑄</text><path d="M651.357 1578.16C648.439 1578.16 645.717 1579.2 643.19 1581.28 640.664 1583.36 638.449 1586.34 636.544 1590.2 634.639 1594.06 633.16 1598.31 632.106 1602.93 631.052 1607.55 630.526 1611.63 630.526 1615.16 630.526 1623.51 633.565 1627.69 639.644 1627.69 643.4 1627.69 646.845 1625.94 649.979 1622.44 653.113 1618.94 655.639 1614.1 657.557 1607.91 659.476 1601.72 660.435 1595.94 660.435 1590.56 660.435 1586.54 659.692 1583.47 658.206 1581.34 656.72 1579.22 654.437 1578.16 651.357 1578.16ZM651.802 1574.6C657.017 1574.6 661.036 1576.11 663.859 1579.14 666.683 1582.16 668.094 1586.54 668.094 1592.27 668.094 1596.05 667.5 1600.28 666.311 1604.95 665.122 1609.63 663.488 1613.75 661.407 1617.33 659.327 1620.91 656.916 1623.8 654.173 1625.99 651.431 1628.17 648.452 1629.69 645.237 1630.52 645.858 1632.5 646.439 1634.12 646.98 1635.41 647.52 1636.69 648.04 1637.73 648.54 1638.53 649.04 1639.33 649.533 1639.92 650.019 1640.31 650.506 1640.7 650.992 1640.97 651.478 1641.1 651.965 1641.24 652.532 1641.3 653.18 1641.3 654.207 1641.3 655.247 1641.01 656.301 1640.41 657.355 1639.82 658.53 1638.79 659.827 1637.33L661.934 1639.6C659.773 1641.95 657.76 1643.61 655.896 1644.59 654.031 1645.56 652.113 1646.05 650.141 1646.05 647.898 1646.05 646.068 1645.55 644.649 1644.55 643.231 1643.55 642.002 1641.95 640.961 1639.76 639.921 1637.58 638.915 1634.71 637.942 1631.17 633.052 1630.9 629.323 1629.28 626.757 1626.31 624.19 1623.34 622.906 1619.15 622.906 1613.75 622.906 1609.69 623.589 1605.11 624.953 1600.01 626.318 1594.9 628.29 1590.4 630.87 1586.49 633.45 1582.59 636.53 1579.63 640.11 1577.62 643.69 1575.6 647.588 1574.6 651.802 1574.6Z" fill-rule="evenodd"/><text fill="#000000" fill-opacity="0" font-family="Arial,Arial_MSFontService,sans-serif" font-size="71.4497" x="622.906" y="1637.12">𝑄</text><path d="M824 1532.5C824 1527.81 827.582 1524 832 1524 836.418 1524 840 1527.81 840 1532.5 840 1537.19 836.418 1541 832 1541 827.582 1541 824 1537.19 824 1532.5Z" fill-rule="evenodd"/><path d="M669 1634C669 1629.58 672.582 1626 677 1626 681.418 1626 685 1629.58 685 1634 685 1638.42 681.418 1642 677 1642 672.582 1642 669 1638.42 669 1634Z" fill-rule="evenodd"/><path d="M818.171 1652.09C815.415 1652.09 812.943 1653.2 810.754 1655.43 808.566 1657.66 806.843 1660.66 805.587 1664.45 804.331 1668.23 803.703 1672 803.703 1675.75 803.703 1678.56 804.088 1680.66 804.858 1682.06 805.628 1683.45 806.918 1684.14 808.728 1684.14 809.566 1684.14 810.417 1683.96 811.281 1683.6 812.146 1683.23 813.044 1682.64 813.976 1681.83 814.908 1681.02 815.827 1680.04 816.732 1678.87 817.637 1677.71 818.468 1676.54 819.225 1675.37 819.981 1674.19 820.684 1672.8 821.332 1671.19 821.98 1669.59 822.534 1667.65 822.994 1665.38L823.358 1663.64C823.764 1661.69 823.966 1659.85 823.966 1658.12 823.966 1656.02 823.52 1654.48 822.629 1653.52 821.737 1652.57 820.251 1652.09 818.171 1652.09ZM835.152 1630.36 837.543 1630.36 827.452 1675.23C826.857 1677.87 826.56 1679.87 826.56 1681.22 826.56 1682.31 826.736 1683.09 827.087 1683.58 827.438 1684.06 827.992 1684.31 828.748 1684.31 829.559 1684.31 830.424 1683.97 831.342 1683.31 832.261 1682.65 833.558 1681.39 835.233 1679.52L837.543 1681.79C835.057 1684.41 832.963 1686.26 831.261 1687.34 829.559 1688.43 827.722 1688.97 825.749 1688.97 824.074 1688.97 822.737 1688.41 821.737 1687.3 820.738 1686.2 820.238 1684.72 820.238 1682.89 820.238 1681.4 820.548 1679.82 821.17 1678.14L820.643 1677.98C818.049 1681.77 815.591 1684.53 813.267 1686.29 810.943 1688.05 808.485 1688.93 805.891 1688.93 802.919 1688.93 800.616 1687.8 798.981 1685.56 797.347 1683.32 796.529 1680.17 796.529 1676.12 796.529 1671.47 797.441 1667.01 799.265 1662.72 801.089 1658.44 803.594 1655.06 806.783 1652.59 809.971 1650.12 813.524 1648.88 817.441 1648.88 819.089 1648.88 820.609 1649.05 822.001 1649.39 823.392 1649.73 824.817 1650.32 826.276 1651.15L828.384 1641.79C828.6 1640.9 828.789 1639.91 828.951 1638.83 829.113 1637.75 829.194 1636.81 829.194 1636 829.194 1635.19 829.046 1634.57 828.748 1634.15 828.451 1633.73 828.026 1633.43 827.472 1633.24 826.918 1633.05 825.925 1632.92 824.493 1632.84L824.979 1630.73Z" fill-rule="evenodd"/><text fill="#000000" fill-opacity="0" font-family="Arial,Arial_MSFontService,sans-serif" font-size="58.6025" x="796.529" y="1681.64">𝑑</text><path d="M833.777 1546.4C841.404 1557.58 846.076 1567.68 844.212 1568.95L778.118 1614.02C776.254 1615.3 780.926 1625.39 788.553 1636.58 780.926 1625.39 773.232 1617.36 771.368 1618.63L705.274 1663.7C703.41 1664.97 695.716 1656.93 688.089 1645.75" stroke="#000000" stroke-width="2.29167" stroke-miterlimit="8" fill="none" fill-rule="evenodd"/></g></svg>