<svg width="500" height="366" xmlns="http://www.w3.org/2000/svg" xmlns:xlink="http://www.w3.org/1999/xlink" xml:space="preserve" overflow="hidden"><g transform="translate(-272 -982)"><path d="M1.14583-1.61986e-06 1.14616 232.367-1.1455 232.367-1.14583 1.61986e-06ZM13.7503 227.783 0.000360892 255.283-13.7497 227.783Z" transform="matrix(1 0 0 -1 382 1274.28)"/><path d="M380 1273.85 665.462 1273.85 665.462 1276.15 380 1276.15ZM660.879 1261.25 688.379 1275 660.879 1288.75Z"/><path d="M555.724 1205.99 554.905 1203.85 557.045 1203.03 557.865 1205.17ZM554.085 1201.71 553.266 1199.57 555.406 1198.75 556.226 1200.89ZM552.446 1197.43 551.627 1195.29 553.767 1194.47 554.587 1196.61ZM550.807 1193.15 549.988 1191.01 552.128 1190.19 552.948 1192.33ZM549.168 1188.87 548.349 1186.73 550.489 1185.91 551.308 1188.05ZM547.529 1184.59 546.71 1182.45 548.85 1181.63 549.669 1183.77ZM545.89 1180.31 545.071 1178.17 547.211 1177.35 548.03 1179.49ZM544.251 1176.03 543.432 1173.89 545.572 1173.07 546.391 1175.21ZM542.612 1171.75 541.793 1169.61 543.933 1168.79 544.752 1170.93ZM540.973 1167.47 540.154 1165.33 542.294 1164.51 543.113 1166.65ZM539.334 1163.19 538.515 1161.05 540.655 1160.23 541.474 1162.37ZM537.695 1158.91 536.876 1156.77 539.016 1155.95 539.835 1158.09ZM525.993 1163.6 529 1133 551.675 1153.76Z"/><text fill="#FF0000" font-family="Cambria Math,Cambria Math_MSFontService,sans-serif" font-weight="400" font-size="50" transform="matrix(1 0 0 1 501.527 1273)">𝜙</text><path d="M450.205 1171.2C448.908 1171.2 447.746 1171.47 446.719 1172.01 445.693 1172.55 444.72 1173.42 443.801 1174.62 442.883 1175.83 442.011 1177.51 441.187 1179.67 440.363 1181.83 439.586 1184.51 438.857 1187.69L436.75 1196.89C436.533 1197.84 436.425 1198.68 436.425 1199.41 436.425 1200.89 436.959 1202.07 438.026 1202.95 439.093 1203.83 440.505 1204.27 442.261 1204.27 443.639 1204.27 444.916 1203.93 446.091 1203.26 447.266 1202.58 448.354 1201.51 449.354 1200.03 450.353 1198.56 451.272 1196.48 452.109 1193.77 452.758 1191.64 453.312 1189.45 453.771 1187.21 454.338 1184.32 454.622 1181.44 454.622 1178.58 454.622 1175.98 454.257 1174.1 453.528 1172.94 452.798 1171.78 451.691 1171.2 450.205 1171.2ZM450.569 1166.98C455.379 1166.98 459.087 1168.28 461.694 1170.86 464.301 1173.44 465.605 1177.06 465.605 1181.74 465.605 1186.65 464.666 1191.19 462.788 1195.35 460.911 1199.51 458.27 1202.74 454.865 1205.04 451.461 1207.34 447.53 1208.48 443.072 1208.48 439.397 1208.48 436.56 1207.94 434.561 1206.86L430.549 1225.3 418.918 1225.3 426.861 1189.27C428.509 1181.74 431.305 1176.14 435.25 1172.48 439.195 1168.82 444.301 1166.98 450.569 1166.98Z" fill-rule="evenodd"/><text fill="#000000" fill-opacity="0" font-family="Arial,Arial_MSFontService,sans-serif" font-size="58.3188" x="418.918" y="1218.01">𝝆</text><path d="M658.774 1172.61C656.045 1172.61 653.417 1173.99 650.891 1176.75 648.365 1179.5 646.426 1183.23 645.076 1187.93 648.885 1187.91 652.154 1187.56 654.883 1186.9 657.612 1186.24 659.706 1185.18 661.165 1183.74 662.624 1182.29 663.353 1180.34 663.353 1177.88 663.353 1176.23 662.968 1174.94 662.198 1174.01 661.428 1173.08 660.287 1172.61 658.774 1172.61ZM660.233 1169.41C663.502 1169.41 665.954 1170.07 667.589 1171.4 669.223 1172.72 670.04 1174.79 670.04 1177.6 670.04 1182.19 667.886 1185.64 663.576 1187.93 659.267 1190.23 652.87 1191.38 644.387 1191.38 644.062 1193 643.9 1194.75 643.9 1196.65 643.9 1199.48 644.454 1201.54 645.562 1202.83 646.67 1204.11 648.48 1204.75 650.993 1204.75 653.478 1204.75 655.727 1204.21 657.74 1203.13 659.753 1202.05 661.881 1200.39 664.123 1198.15L666.636 1200.78C664.015 1203.67 661.361 1205.85 658.672 1207.3 655.984 1208.76 652.857 1209.49 649.29 1209.49 645.373 1209.49 642.34 1208.3 640.192 1205.91 638.044 1203.52 636.97 1200.19 636.97 1195.92 636.97 1193.03 637.49 1189.93 638.53 1186.62 639.571 1183.31 641.144 1180.33 643.252 1177.7 645.359 1175.07 647.885 1173.03 650.83 1171.58 653.775 1170.13 656.91 1169.41 660.233 1169.41Z" fill-rule="evenodd"/><text fill="#000000" fill-opacity="0" font-family="Arial,Arial_MSFontService,sans-serif" font-size="40.0815" x="636.97" y="1204.48">𝑒</text><path d="M655.787 1150.4 661.218 1150.4 669.931 1163.17 667.094 1165.48 658.503 1155.63 658.057 1155.63 649.465 1165.48 646.709 1163.17Z" fill-rule="evenodd"/><text fill="#000000" fill-opacity="0" font-family="Arial,Arial_MSFontService,sans-serif" font-size="15.0762" x="646.709" y="1163.6">Ƹ</text><path d="M691.553 1198.23C690.441 1198.23 689.393 1198.46 688.41 1198.94 687.427 1199.42 686.509 1200.18 685.655 1201.22 684.801 1202.26 684.027 1203.6 683.332 1205.24 682.637 1206.88 682.031 1208.87 681.515 1211.21 681.356 1211.91 681.182 1212.63 680.994 1213.39 680.805 1214.14 680.636 1214.89 680.487 1215.62 680.338 1216.36 680.214 1217.06 680.115 1217.74 680.016 1218.41 679.966 1219.01 679.966 1219.52 679.966 1220.65 680.512 1221.55 681.604 1222.22 682.696 1222.88 684.176 1223.22 686.042 1223.22 687.234 1223.22 688.336 1222.96 689.348 1222.44 690.361 1221.93 691.275 1221.22 692.089 1220.33 692.903 1219.43 693.618 1218.39 694.233 1217.18 694.849 1215.98 695.365 1214.71 695.782 1213.37 696.199 1212.03 696.512 1210.65 696.72 1209.23 696.929 1207.81 697.033 1206.43 697.033 1205.08 697.033 1204.04 696.934 1203.11 696.735 1202.26 696.537 1201.42 696.219 1200.7 695.782 1200.1 695.345 1199.51 694.779 1199.05 694.084 1198.72 693.389 1198.39 692.545 1198.23 691.553 1198.23ZM692.267 1195.28C693.816 1195.28 695.246 1195.52 696.556 1196.01 697.867 1196.49 698.994 1197.21 699.937 1198.15 700.88 1199.1 701.61 1200.25 702.126 1201.61 702.643 1202.97 702.901 1204.52 702.901 1206.27 702.901 1208.06 702.707 1209.79 702.32 1211.48 701.933 1213.17 701.387 1214.75 700.682 1216.23 699.977 1217.71 699.128 1219.06 698.135 1220.28 697.142 1221.5 696.035 1222.56 694.814 1223.44 693.593 1224.32 692.277 1225 690.867 1225.48 689.458 1225.96 687.978 1226.18 686.43 1226.17 684.98 1226.17 683.605 1226.03 682.304 1225.75 681.004 1225.47 679.738 1225.04 678.507 1224.47L675.349 1238.44 669.75 1238.44 675.856 1210.94C676.412 1208.48 677.181 1206.28 678.164 1204.33 679.147 1202.39 680.333 1200.74 681.723 1199.4 683.113 1198.06 684.692 1197.04 686.459 1196.34 688.227 1195.63 690.163 1195.28 692.267 1195.28Z" fill-rule="evenodd"/><text fill="#000000" fill-opacity="0" font-family="Arial,Arial_MSFontService,sans-serif" font-size="43.1587" x="669.75" y="1233.04">𝜌</text><path d="M0.399987-1.07375 2.54749-0.273779 1.74752 1.87373-0.399987 1.07375ZM4.695 0.526194 6.8425 1.32617 6.04253 3.47367 3.89502 2.6737ZM8.99001 2.12614 11.1375 2.92611 10.3375 5.07362 8.19003 4.27365ZM13.285 3.72609 15.4325 4.52606 14.6325 6.67357 12.485 5.87359ZM17.58 5.32604 19.7275 6.12601 18.9276 8.27351 16.7801 7.47354ZM21.875 6.92598 24.0225 7.72596 23.2226 9.87346 21.0751 9.07349ZM26.17 8.52593 28.3176 9.3259 27.5176 11.4734 25.3701 10.6734ZM30.4651 10.1259 32.6126 10.9258 31.8126 13.0734 29.6651 12.2734ZM34.7601 11.7258 36.9076 12.5258 36.1076 14.6733 33.9601 13.8733ZM39.0551 13.3258 41.2026 14.1257 40.4026 16.2732 38.2551 15.4733ZM43.3501 14.9257 45.4976 15.7257 44.6976 17.8732 42.5501 17.0732ZM47.6451 16.5257 49.7926 17.3256 48.9926 19.4731 46.8451 18.6732ZM51.9401 18.1256 54.0876 18.9256 53.2876 21.0731 51.1401 20.2731ZM56.2351 19.7256 58.3826 20.5255 57.5827 22.673 55.4351 21.8731ZM60.5301 21.3255 62.6776 22.1255 61.8777 24.273 59.7302 23.473ZM64.8251 22.9254 66.9727 23.7254 66.1727 25.8729 64.0252 25.073ZM69.1202 24.5254 71.2677 25.3254 70.4677 27.4729 68.3202 26.6729ZM73.4152 26.1253 75.5627 26.9253 74.7627 29.0728 72.6152 28.2729ZM77.7102 27.7253 79.8577 28.5253 79.0577 30.6728 76.9102 29.8728ZM82.0052 29.3252 84.1527 30.1252 83.3527 32.2727 81.2052 31.4727ZM86.3002 30.9252 88.4477 31.7252 87.6478 33.8727 85.5002 33.0727ZM90.5952 32.5251 92.7427 33.3251 91.9428 35.4726 89.7952 34.6726ZM94.8902 34.1251 97.0377 34.9251 96.2378 37.0726 94.0903 36.2726ZM99.1852 35.725 101.333 36.525 100.533 38.6725 98.3853 37.8725ZM103.48 37.325 105.628 38.125 104.828 40.2725 102.68 39.4725ZM107.775 38.9249 109.923 39.7249 109.123 41.8724 106.975 41.0724ZM112.07 40.5249 114.218 41.3249 113.418 43.4724 111.27 42.6724ZM116.365 42.1248 118.513 42.9248 117.713 45.0723 115.565 44.2723ZM120.66 43.7248 122.808 44.5247 122.008 46.6722 119.86 45.8723ZM124.955 45.3247 127.103 46.1247 126.303 48.2722 124.155 47.4722ZM129.25 46.9247 131.398 47.7246 130.598 49.8721 128.45 49.0722ZM133.545 48.5246 135.693 49.3246 134.893 51.4721 132.745 50.6721ZM137.84 50.1246 139.988 50.9245 139.188 53.072 137.04 52.2721ZM142.135 51.7245 144.283 52.5245 143.483 54.672 141.335 53.872ZM146.43 53.3245 148.578 54.1244 147.778 56.2719 145.63 55.472ZM150.725 54.9244 152.873 55.7244 152.073 57.8719 149.925 57.0719ZM153.598 42.5441 174.568 65.0288 143.998 68.3142Z" transform="matrix(1 0 0 -1 385 1273.03)"/><path d="M460.17 1245.77C466.632 1253.16 470.25 1264.18 469.986 1275.67" stroke="#FF0000" stroke-width="2.29167" stroke-miterlimit="8" stroke-dasharray="2.29167 2.29167" fill="none" fill-rule="evenodd"/><path d="M726.116 1268.46C726.953 1268.46 727.689 1268.56 728.324 1268.74 728.959 1268.93 729.52 1269.22 730.006 1269.62 730.493 1270.01 730.925 1270.51 731.303 1271.14 731.681 1271.76 732.046 1272.6 732.397 1273.67 732.749 1274.74 733.08 1276.06 733.39 1277.64 733.701 1279.22 733.978 1280.86 734.221 1282.56L734.626 1282.56C737.22 1278.92 739.186 1276.25 740.523 1274.56 741.861 1272.87 742.989 1271.62 743.907 1270.79 744.826 1269.97 745.711 1269.39 746.562 1269.05 747.413 1268.71 748.541 1268.54 749.946 1268.54 751.216 1268.54 752.256 1268.7 753.066 1269.03L751.445 1276.36 748.608 1276.36C748.446 1275.23 747.973 1274.66 747.19 1274.66 746.947 1274.66 746.69 1274.7 746.42 1274.78 746.15 1274.86 745.819 1275.04 745.427 1275.31 745.035 1275.58 744.461 1276.11 743.705 1276.89 742.948 1277.67 742.097 1278.63 741.151 1279.77 740.206 1280.9 739.233 1282.09 738.233 1283.33L735.477 1286.78C735.964 1289.37 736.423 1291.62 736.855 1293.51 737.288 1295.4 737.673 1296.97 738.01 1298.23 738.348 1299.48 738.645 1300.48 738.902 1301.21 739.159 1301.94 739.436 1302.48 739.733 1302.85 740.03 1303.21 740.334 1303.47 740.645 1303.62 740.955 1303.77 741.313 1303.84 741.719 1303.84 742.448 1303.84 743.157 1303.56 743.846 1302.99 744.535 1302.42 745.528 1301.14 746.825 1299.14L749.459 1300.88C747.568 1303.69 745.859 1305.67 744.333 1306.82 742.806 1307.97 740.989 1308.54 738.882 1308.54 737.72 1308.54 736.734 1308.33 735.923 1307.91 735.113 1307.5 734.41 1306.83 733.816 1305.91 733.221 1304.99 732.695 1303.56 732.235 1301.61 731.398 1298.15 730.884 1295.51 730.695 1293.67L730.29 1293.67C727.426 1297.69 725.298 1300.59 723.907 1302.34 722.516 1304.1 721.367 1305.4 720.462 1306.23 719.557 1307.07 718.679 1307.66 717.828 1308 716.977 1308.33 715.849 1308.5 714.444 1308.5 713.174 1308.5 712.134 1308.34 711.323 1308.02L712.944 1300.68 715.781 1300.68C715.943 1301.82 716.416 1302.38 717.2 1302.38 717.578 1302.38 717.976 1302.28 718.395 1302.08 718.814 1301.88 719.415 1301.39 720.199 1300.62 720.982 1299.85 722.063 1298.64 723.441 1296.99 724.819 1295.34 726.818 1292.87 729.439 1289.58 729.034 1287.44 728.615 1285.39 728.183 1283.42 727.75 1281.44 727.304 1279.61 726.845 1277.9 726.386 1276.2 726.008 1275.09 725.71 1274.56 725.413 1274.03 725.096 1273.67 724.758 1273.47 724.42 1273.26 723.995 1273.16 723.481 1273.16 722.914 1273.16 722.401 1273.29 721.941 1273.55 721.482 1273.8 720.982 1274.25 720.442 1274.88 719.901 1275.52 719.185 1276.51 718.294 1277.86L715.66 1276.12C717.362 1273.55 718.996 1271.64 720.563 1270.37 722.13 1269.1 723.981 1268.46 726.116 1268.46Z" fill-rule="evenodd"/><text fill="#000000" fill-opacity="0" font-family="Arial,Arial_MSFontService,sans-serif" font-size="40.0815" x="711.323" y="1303.53">𝑥</text><path d="M319.195 1035.63C320.303 1035.63 321.249 1035.78 322.032 1036.08 322.573 1036.3 323.113 1036.65 323.653 1037.15 324.194 1037.65 324.673 1038.35 325.092 1039.24 325.511 1040.13 325.876 1041.13 326.186 1042.24 326.497 1043.35 326.842 1044.94 327.22 1047.02 327.868 1050.51 328.496 1054.18 329.104 1058.03 329.712 1061.88 330.232 1065.45 330.665 1068.75 333.285 1064.96 335.508 1061.26 337.331 1057.64 339.155 1054.02 340.466 1050.87 341.263 1048.2 342.06 1045.52 342.458 1043.35 342.458 1041.67 342.458 1040.4 342.188 1039.54 341.648 1039.08 341.107 1038.62 340.189 1038.35 338.892 1038.27L339.297 1036.28 349.956 1036.28 351.05 1038.31C348.997 1043.93 346.214 1049.94 342.701 1056.34 339.243 1062.61 335.285 1068.85 330.827 1075.07 326.558 1080.98 323.005 1085.27 320.168 1087.91 318.196 1089.72 316.291 1091.02 314.454 1091.81 312.995 1092.4 311.441 1092.7 309.793 1092.7 309.226 1092.7 308.571 1092.65 307.828 1092.55 307.085 1092.46 306.51 1092.33 306.105 1092.17L307.848 1084.31 311.049 1084.31C311.049 1086.04 311.644 1086.9 312.833 1086.9 314.4 1086.9 316.223 1085.92 318.304 1083.96 320.384 1082 322.829 1079.05 325.639 1075.11 324.856 1070.38 323.789 1064.68 322.438 1058.01 321.006 1050.87 320.06 1046.46 319.601 1044.75 319.033 1042.7 318.439 1041.39 317.818 1040.82 317.439 1040.47 316.966 1040.29 316.399 1040.29 315.534 1040.29 314.724 1040.65 313.967 1041.35 313.211 1042.05 312.279 1043.27 311.171 1045L308.537 1043.25C310.401 1040.47 312.144 1038.51 313.765 1037.36 315.386 1036.21 317.196 1035.63 319.195 1035.63Z" fill-rule="evenodd"/><text fill="#000000" fill-opacity="0" font-family="Arial,Arial_MSFontService,sans-serif" font-size="57.0625" x="306.105" y="1085.56">𝑦</text><path d="M0.464588-1.04742 2.55943-0.118245 1.63026 1.9766-0.464588 1.04742ZM4.65427 0.810931 6.74912 1.74011 5.81994 3.83495 3.7251 2.90577ZM8.84396 2.66928 10.9388 3.59846 10.0096 5.6933 7.91478 4.76413ZM13.0336 4.52763 15.1285 5.45681 14.1993 7.55165 12.1045 6.62248ZM17.2233 6.38599 19.3182 7.31516 18.389 9.41001 16.2942 8.48083ZM21.413 8.24434 23.5079 9.17351 22.5787 11.2684 20.4838 10.3392ZM25.6027 10.1027 27.6975 11.0319 26.7684 13.1267 24.6735 12.1975ZM29.7924 11.961 31.8872 12.8902 30.9581 14.9851 28.8632 14.0559ZM33.9821 13.8194 36.0769 14.7486 35.1477 16.8434 33.0529 15.9142ZM38.1718 15.6777 40.2666 16.6069 39.3374 18.7018 37.2426 17.7726ZM41.8666 3.5282 61.4297 27.2474 30.7165 28.6663Z" transform="matrix(1 0 0 -1 563 1208.25)"/><path d="M537.554 1070.66C534.825 1070.66 532.198 1072.04 529.671 1074.8 527.145 1077.55 525.207 1081.28 523.856 1085.98 527.665 1085.95 530.935 1085.61 533.663 1084.95 536.392 1084.29 538.486 1083.23 539.945 1081.79 541.404 1080.34 542.134 1078.39 542.134 1075.93 542.134 1074.28 541.749 1072.99 540.979 1072.06 540.209 1071.13 539.067 1070.66 537.554 1070.66ZM539.013 1067.46C542.282 1067.46 544.734 1068.12 546.369 1069.45 548.003 1070.77 548.821 1072.84 548.821 1075.65 548.821 1080.24 546.666 1083.68 542.357 1085.98 538.047 1088.28 531.651 1089.43 523.167 1089.43 522.843 1091.05 522.68 1092.8 522.68 1094.69 522.68 1097.53 523.234 1099.59 524.342 1100.88 525.45 1102.16 527.26 1102.8 529.773 1102.8 532.258 1102.8 534.508 1102.26 536.521 1101.18 538.533 1100.1 540.661 1098.44 542.904 1096.19L545.416 1098.83C542.796 1101.72 540.141 1103.89 537.453 1105.35 534.764 1106.81 531.637 1107.54 528.071 1107.54 524.153 1107.54 521.12 1106.35 518.972 1103.96 516.824 1101.56 515.75 1098.23 515.75 1093.97 515.75 1091.07 516.27 1087.97 517.311 1084.66 518.351 1081.35 519.925 1078.38 522.032 1075.75 524.139 1073.11 526.666 1071.07 529.611 1069.63 532.556 1068.18 535.69 1067.46 539.013 1067.46Z" fill-rule="evenodd"/><text fill="#000000" fill-opacity="0" font-family="Arial,Arial_MSFontService,sans-serif" font-size="40.0815" x="515.75" y="1102.53">𝑒</text><path d="M534.568 1048.45 539.998 1048.45 548.712 1061.22 545.875 1063.53 537.283 1053.68 536.837 1053.68 528.245 1063.53 525.489 1061.22Z" fill-rule="evenodd"/><text fill="#000000" fill-opacity="0" font-family="Arial,Arial_MSFontService,sans-serif" font-size="15.0762" x="525.489" y="1061.64">Ƹ</text><path d="M578.479 1096.6 573.058 1121.21C575.143 1121.03 577.019 1120.55 578.687 1119.76 580.355 1118.98 581.77 1117.93 582.932 1116.62 584.093 1115.31 584.987 1113.76 585.612 1111.97 586.238 1110.18 586.55 1108.2 586.55 1106.01 586.55 1104.72 586.382 1103.53 586.044 1102.43 585.706 1101.32 585.2 1100.36 584.525 1099.54 583.85 1098.71 583.006 1098.05 581.993 1097.54 580.981 1097.03 579.809 1096.72 578.479 1096.6ZM573.117 1096.45C571.151 1096.63 569.34 1097.12 567.682 1097.93 566.023 1098.73 564.594 1099.8 563.392 1101.13 562.191 1102.46 561.253 1104.02 560.578 1105.82 559.903 1107.62 559.565 1109.59 559.565 1111.73 559.565 1113.08 559.749 1114.31 560.116 1115.4 560.483 1116.49 561.02 1117.44 561.724 1118.24 562.429 1119.05 563.278 1119.7 564.271 1120.19 565.264 1120.69 566.386 1121.01 567.637 1121.15ZM576.572 1081 581.993 1081 579.164 1093.62C581.408 1093.78 583.373 1094.2 585.061 1094.88 586.749 1095.55 588.159 1096.43 589.291 1097.53 590.422 1098.62 591.271 1099.89 591.837 1101.35 592.403 1102.81 592.686 1104.41 592.686 1106.13 592.686 1108.76 592.17 1111.17 591.137 1113.37 590.105 1115.58 588.68 1117.48 586.863 1119.09 585.046 1120.7 582.907 1121.95 580.444 1122.84 577.982 1123.74 575.321 1124.17 572.462 1124.15L569.752 1136.49 564.241 1136.49 567.011 1124.09C564.867 1123.96 562.956 1123.56 561.278 1122.9 559.6 1122.25 558.18 1121.38 557.018 1120.3 555.857 1119.21 554.973 1117.93 554.368 1116.45 553.762 1114.98 553.459 1113.33 553.459 1111.53 553.459 1109.94 553.687 1108.39 554.144 1106.89 554.601 1105.39 555.251 1103.98 556.095 1102.66 556.939 1101.34 557.962 1100.13 559.163 1099.02 560.364 1097.9 561.715 1096.95 563.214 1096.14 564.713 1095.34 566.351 1094.71 568.128 1094.25 569.905 1093.79 571.777 1093.54 573.743 1093.51Z" fill-rule="evenodd"/><text fill="#000000" fill-opacity="0" font-family="Arial,Arial_MSFontService,sans-serif" font-size="55.4897" x="553.459" y="1129.55">𝜙</text></g></svg>