<svg width="1942" height="952" xmlns="http://www.w3.org/2000/svg" xmlns:xlink="http://www.w3.org/1999/xlink" xml:space="preserve" overflow="hidden"><g transform="translate(-464 -535)"><path d="M1.14583-1.61986e-06 1.14616 232.367-1.1455 232.367-1.14583 1.61986e-06ZM13.7503 227.783 0.000360892 255.283-13.7497 227.783Z" transform="matrix(1 0 0 -1 638 1370.28)"/><path d="M638 1368.85 869.942 1368.85 869.942 1371.15 638 1371.15ZM865.359 1356.25 892.859 1370 865.359 1383.75Z"/><path d="M934.195 1353.48C935.033 1353.48 935.769 1353.57 936.404 1353.76 937.039 1353.95 937.599 1354.24 938.086 1354.63 938.572 1355.02 939.004 1355.53 939.383 1356.15 939.761 1356.77 940.125 1357.62 940.477 1358.68 940.828 1359.75 941.159 1361.08 941.47 1362.66 941.78 1364.24 942.057 1365.88 942.3 1367.58L942.706 1367.58C945.299 1363.93 947.265 1361.26 948.602 1359.58 949.94 1357.89 951.068 1356.63 951.987 1355.81 952.905 1354.98 953.79 1354.4 954.641 1354.06 955.492 1353.73 956.62 1353.56 958.025 1353.56 959.295 1353.56 960.335 1353.72 961.146 1354.04L959.525 1361.38 956.688 1361.38C956.526 1360.24 956.053 1359.68 955.269 1359.68 955.026 1359.68 954.769 1359.72 954.499 1359.8 954.229 1359.88 953.898 1360.06 953.506 1360.33 953.115 1360.6 952.54 1361.12 951.784 1361.91 951.027 1362.69 950.176 1363.65 949.231 1364.78 948.285 1365.92 947.312 1367.11 946.313 1368.35L943.557 1371.79C944.043 1374.39 944.502 1376.63 944.935 1378.52 945.367 1380.41 945.752 1381.99 946.09 1383.24 946.427 1384.5 946.725 1385.49 946.981 1386.22 947.238 1386.95 947.515 1387.5 947.812 1387.86 948.109 1388.23 948.413 1388.49 948.724 1388.63 949.035 1388.78 949.393 1388.86 949.798 1388.86 950.528 1388.86 951.237 1388.57 951.926 1388.01 952.615 1387.44 953.608 1386.16 954.904 1384.16L957.539 1385.9C955.647 1388.71 953.939 1390.69 952.412 1391.84 950.885 1392.98 949.069 1393.56 946.961 1393.56 945.799 1393.56 944.813 1393.35 944.003 1392.93 943.192 1392.51 942.49 1391.84 941.895 1390.92 941.301 1390.01 940.774 1388.57 940.315 1386.63 939.477 1383.17 938.964 1380.52 938.775 1378.68L938.369 1378.68C935.505 1382.71 933.378 1385.6 931.986 1387.36 930.595 1389.11 929.447 1390.41 928.541 1391.25 927.636 1392.09 926.758 1392.67 925.907 1393.01 925.056 1393.35 923.928 1393.52 922.523 1393.52 921.253 1393.52 920.213 1393.36 919.403 1393.03L921.024 1385.7 923.861 1385.7C924.023 1386.83 924.495 1387.4 925.279 1387.4 925.657 1387.4 926.056 1387.3 926.475 1387.09 926.893 1386.89 927.495 1386.4 928.278 1385.63 929.062 1384.86 930.142 1383.66 931.52 1382.01 932.898 1380.36 934.897 1377.89 937.518 1374.59 937.113 1372.46 936.694 1370.4 936.262 1368.43 935.83 1366.46 935.384 1364.62 934.924 1362.92 934.465 1361.22 934.087 1360.1 933.79 1359.58 933.493 1359.05 933.175 1358.68 932.837 1358.48 932.5 1358.28 932.074 1358.18 931.561 1358.18 930.993 1358.18 930.48 1358.31 930.021 1358.56 929.561 1358.82 929.062 1359.27 928.521 1359.9 927.981 1360.53 927.265 1361.53 926.373 1362.88L923.739 1361.14C925.441 1358.57 927.076 1356.65 928.643 1355.38 930.21 1354.11 932.061 1353.48 934.195 1353.48Z" fill-rule="evenodd"/><text fill="#000000" fill-opacity="0" font-family="Arial,Arial_MSFontService,sans-serif" font-size="40.0815" x="919.403" y="1388.55">𝑥</text><path d="M676.446 1077.08C677.554 1077.08 678.5 1077.22 679.283 1077.52 679.824 1077.74 680.364 1078.1 680.904 1078.59 681.445 1079.09 681.924 1079.79 682.343 1080.68 682.762 1081.57 683.127 1082.57 683.437 1083.68 683.748 1084.79 684.093 1086.38 684.471 1088.46 685.119 1091.95 685.747 1095.62 686.355 1099.47 686.963 1103.32 687.483 1106.89 687.916 1110.19 690.536 1106.4 692.759 1102.7 694.582 1099.08 696.406 1095.46 697.717 1092.31 698.514 1089.64 699.311 1086.96 699.709 1084.79 699.709 1083.11 699.709 1081.84 699.439 1080.98 698.899 1080.52 698.358 1080.06 697.44 1079.79 696.143 1079.71L696.548 1077.72 707.207 1077.72 708.301 1079.75C706.248 1085.37 703.465 1091.38 699.952 1097.78 696.494 1104.05 692.536 1110.29 688.078 1116.51 683.809 1122.43 680.256 1126.71 677.419 1129.36 675.447 1131.17 673.542 1132.46 671.705 1133.25 670.246 1133.84 668.692 1134.14 667.044 1134.14 666.477 1134.14 665.822 1134.09 665.079 1134 664.336 1133.9 663.761 1133.77 663.356 1133.61L665.099 1125.75 668.3 1125.75C668.3 1127.48 668.895 1128.34 670.084 1128.34 671.651 1128.34 673.474 1127.36 675.555 1125.4 677.635 1123.45 680.08 1120.49 682.89 1116.55 682.107 1111.82 681.04 1106.12 679.689 1099.45 678.257 1092.31 677.311 1087.9 676.852 1086.19 676.284 1084.14 675.69 1082.83 675.069 1082.26 674.69 1081.91 674.217 1081.74 673.65 1081.74 672.786 1081.74 671.975 1082.09 671.218 1082.79 670.462 1083.49 669.53 1084.71 668.422 1086.44L665.788 1084.69C667.652 1081.91 669.395 1079.95 671.016 1078.8 672.637 1077.65 674.447 1077.08 676.446 1077.08Z" fill-rule="evenodd"/><text fill="#000000" fill-opacity="0" font-family="Arial,Arial_MSFontService,sans-serif" font-size="57.0625" x="663.356" y="1127">𝑦</text><path d="M1.14583-1.61986e-06 1.14616 232.367-1.1455 232.367-1.14583 1.61986e-06ZM13.7503 227.783 0.000360892 255.283-13.7497 227.783Z" transform="matrix(1 0 0 -1 813 939.283)"/><path d="M813 937.854 1044.94 937.855 1044.94 940.146 813 940.146ZM1040.36 925.25 1067.86 939 1040.36 952.75Z"/><path d="M1099.54 922.337C1100.38 922.337 1101.11 922.432 1101.75 922.621 1102.38 922.81 1102.94 923.1 1103.43 923.492 1103.92 923.884 1104.35 924.391 1104.73 925.012 1105.11 925.633 1105.47 926.478 1105.82 927.545 1106.17 928.612 1106.5 929.936 1106.81 931.517 1107.13 933.097 1107.4 934.738 1107.65 936.441L1108.05 936.441C1110.64 932.793 1112.61 930.125 1113.95 928.436 1115.28 926.748 1116.41 925.491 1117.33 924.667 1118.25 923.843 1119.14 923.262 1119.99 922.925 1120.84 922.587 1121.97 922.418 1123.37 922.418 1124.64 922.418 1125.68 922.58 1126.49 922.904L1124.87 930.24 1122.03 930.24C1121.87 929.105 1121.4 928.538 1120.61 928.538 1120.37 928.538 1120.11 928.578 1119.84 928.659 1119.57 928.74 1119.24 928.916 1118.85 929.186 1118.46 929.456 1117.89 929.983 1117.13 930.767 1116.37 931.55 1115.52 932.509 1114.58 933.644 1113.63 934.779 1112.66 935.968 1111.66 937.211L1108.9 940.655C1109.39 943.249 1109.85 945.492 1110.28 947.383 1110.71 949.274 1111.1 950.848 1111.43 952.104 1111.77 953.361 1112.07 954.354 1112.33 955.083 1112.58 955.813 1112.86 956.36 1113.16 956.725 1113.45 957.089 1113.76 957.346 1114.07 957.495 1114.38 957.643 1114.74 957.717 1115.14 957.717 1115.87 957.717 1116.58 957.434 1117.27 956.866 1117.96 956.299 1118.95 955.016 1120.25 953.016L1122.88 954.759C1120.99 957.569 1119.28 959.548 1117.76 960.696 1116.23 961.844 1114.41 962.419 1112.31 962.419 1111.14 962.419 1110.16 962.209 1109.35 961.79 1108.54 961.372 1107.83 960.703 1107.24 959.784 1106.65 958.866 1106.12 957.434 1105.66 955.488 1104.82 952.03 1104.31 949.382 1104.12 947.545L1103.71 947.545C1100.85 951.571 1098.72 954.462 1097.33 956.218 1095.94 957.974 1094.79 959.271 1093.89 960.109 1092.98 960.946 1092.1 961.534 1091.25 961.872 1090.4 962.209 1089.27 962.378 1087.87 962.378 1086.6 962.378 1085.56 962.216 1084.75 961.892L1086.37 954.556 1089.21 954.556C1089.37 955.691 1089.84 956.258 1090.62 956.258 1091 956.258 1091.4 956.157 1091.82 955.955 1092.24 955.752 1092.84 955.266 1093.62 954.496 1094.41 953.726 1095.49 952.516 1096.87 950.868 1098.24 949.22 1100.24 946.748 1102.86 943.452 1102.46 941.317 1102.04 939.264 1101.61 937.292 1101.17 935.319 1100.73 933.482 1100.27 931.78 1099.81 930.078 1099.43 928.963 1099.13 928.436 1098.84 927.91 1098.52 927.545 1098.18 927.342 1097.84 927.14 1097.42 927.038 1096.91 927.038 1096.34 927.038 1095.83 927.167 1095.37 927.423 1094.91 927.68 1094.41 928.126 1093.87 928.761 1093.33 929.396 1092.61 930.389 1091.72 931.739L1089.08 929.997C1090.79 927.43 1092.42 925.512 1093.99 924.242 1095.55 922.972 1097.41 922.337 1099.54 922.337Z" fill-rule="evenodd"/><text fill="#000000" fill-opacity="0" font-family="Arial,Arial_MSFontService,sans-serif" font-size="40.0815" x="1084.75" y="957.408">𝑥</text><text font-family="Calibri,Calibri_MSFontService,sans-serif" font-weight="400" font-size="83" transform="matrix(1 0 0 1 1130.14 962)">’</text><path d="M859.612 695.436C860.72 695.436 861.666 695.585 862.449 695.882 862.99 696.098 863.53 696.456 864.07 696.956 864.611 697.456 865.09 698.151 865.509 699.043 865.928 699.934 866.293 700.934 866.603 702.042 866.914 703.15 867.258 704.744 867.637 706.824 868.285 710.309 868.913 713.977 869.521 717.827 870.129 721.677 870.649 725.251 871.082 728.547 873.702 724.764 875.925 721.063 877.748 717.442 879.572 713.822 880.882 710.674 881.679 707.999 882.477 705.325 882.875 703.15 882.875 701.474 882.875 700.205 882.605 699.34 882.064 698.881 881.524 698.421 880.605 698.151 879.309 698.07L879.714 696.084 890.373 696.084 891.467 698.111C889.413 703.731 886.631 709.742 883.118 716.145 879.66 722.414 875.702 728.655 871.244 734.869 866.975 740.786 863.422 745.068 860.585 747.716 858.613 749.526 856.708 750.823 854.871 751.607 853.412 752.201 851.858 752.498 850.21 752.498 849.643 752.498 848.987 752.451 848.244 752.357 847.501 752.262 846.927 752.134 846.522 751.972L848.265 744.109 851.466 744.109C851.466 745.838 852.061 746.703 853.25 746.703 854.817 746.703 856.64 745.724 858.721 743.765 860.801 741.806 863.246 738.854 866.056 734.91 865.273 730.181 864.205 724.481 862.854 717.807 861.423 710.674 860.477 706.257 860.018 704.555 859.45 702.501 858.856 701.191 858.234 700.623 857.856 700.272 857.383 700.097 856.816 700.097 855.951 700.097 855.141 700.448 854.384 701.15 853.628 701.853 852.696 703.069 851.588 704.798L848.954 703.055C850.818 700.272 852.561 698.307 854.182 697.158 855.803 696.01 857.613 695.436 859.612 695.436ZM902.249 671.282 909.827 671.282 909.827 673.592 900.06 697.098 896.615 696.084Z" fill-rule="evenodd"/><text fill="#000000" fill-opacity="0" font-family="Arial,Arial_MSFontService,sans-serif" font-size="81.2168" x="846.522" y="742.346">𝑦′</text><path d="M588.513 1387.44C585.595 1387.44 582.873 1388.48 580.347 1390.56 577.821 1392.64 575.605 1395.61 573.7 1399.47 571.795 1403.34 570.316 1407.58 569.263 1412.2 568.209 1416.82 567.682 1420.9 567.682 1424.44 567.682 1432.79 570.721 1436.96 576.801 1436.96 580.502 1436.96 583.9 1435.26 586.993 1431.85 590.087 1428.45 592.62 1423.67 594.592 1417.53 596.564 1411.38 597.551 1405.48 597.551 1399.84 597.551 1391.57 594.538 1387.44 588.513 1387.44ZM588.959 1383.87C594.173 1383.87 598.192 1385.38 601.016 1388.41 603.839 1391.43 605.251 1395.81 605.251 1401.54 605.251 1405.73 604.535 1410.43 603.103 1415.66 601.671 1420.89 599.597 1425.42 596.882 1429.24 594.167 1433.06 591.066 1435.9 587.581 1437.75 584.096 1439.6 580.448 1440.53 576.638 1440.53 571.208 1440.53 567.088 1439.01 564.278 1435.99 561.468 1432.96 560.063 1428.64 560.063 1423.02 560.063 1418.97 560.745 1414.39 562.109 1409.28 563.474 1404.17 565.446 1399.67 568.026 1395.76 570.607 1391.86 573.687 1388.9 577.267 1386.89 580.847 1384.88 584.744 1383.87 588.959 1383.87Z" fill-rule="evenodd"/><text fill="#000000" fill-opacity="0" font-family="Arial,Arial_MSFontService,sans-serif" font-size="56.6572" x="560.063" y="1433.44">𝑂</text><path d="M743.813 925.77C740.895 925.77 738.173 926.81 735.646 928.89 733.12 930.971 730.905 933.943 729 937.806 727.095 941.67 725.616 945.912 724.562 950.532 723.509 955.152 722.982 959.232 722.982 962.771 722.982 971.12 726.021 975.294 732.1 975.294 735.802 975.294 739.199 973.592 742.293 970.188 745.387 966.784 747.919 962.008 749.892 955.861 751.864 949.715 752.85 943.818 752.85 938.171 752.85 929.904 749.838 925.77 743.813 925.77ZM744.259 922.203C749.473 922.203 753.492 923.716 756.315 926.742 759.139 929.769 760.551 934.146 760.551 939.873 760.551 944.061 759.835 948.769 758.403 953.997 756.971 959.225 754.897 963.751 752.182 967.574 749.466 971.397 746.366 974.234 742.881 976.085 739.395 977.935 735.748 978.861 731.938 978.861 726.508 978.861 722.387 977.348 719.577 974.322 716.768 971.296 715.363 966.973 715.363 961.353 715.363 957.3 716.045 952.721 717.409 947.614 718.774 942.508 720.746 938.002 723.326 934.098 725.906 930.194 728.987 927.236 732.566 925.223 736.146 923.21 740.044 922.203 744.259 922.203ZM775.902 914.625 783.48 914.625 783.48 916.935 773.713 940.441 770.268 939.428Z" fill-rule="evenodd"/><text fill="#000000" fill-opacity="0" font-family="Arial,Arial_MSFontService,sans-serif" font-size="64.2358" x="715.363" y="970.831">𝑂′</text><path d="M0.754393-0.862453 413.683 360.329 412.174 362.054-0.754393 0.862453ZM418.531 347.825 430.178 376.279 400.426 368.523Z" transform="matrix(1 0 0 -1 816 939.279)"/><path d="M1217.46 652.537 1222.04 652.537 1214.5 686.661 1215.32 686.661C1216.29 686.661 1217.21 686.485 1218.07 686.134 1219.12 685.702 1220.42 684.932 1221.96 683.824 1224.04 682.284 1225.51 681.081 1226.38 680.217 1227.24 679.352 1227.84 678.535 1228.18 677.765 1228.52 676.995 1228.69 676.205 1228.69 675.394 1228.69 674.773 1228.52 674.246 1228.18 673.814 1227.84 673.381 1227.24 673.125 1226.38 673.044L1227.03 670.369 1241.46 670.369 1242.47 673.003C1240.79 674.84 1238.54 676.84 1235.7 679.001L1226.58 685.85 1230.76 700.643C1231.24 702.399 1231.69 703.588 1232.11 704.209 1232.53 704.83 1233.12 705.141 1233.88 705.141 1234.58 705.141 1235.38 704.783 1236.27 704.067 1237.16 703.351 1238.21 702.277 1239.43 700.845L1242.35 703.763C1239.83 706.465 1237.56 708.383 1235.54 709.518 1233.51 710.653 1231.43 711.22 1229.3 711.22 1226.62 711.22 1224.54 710.585 1223.06 709.315 1221.57 708.046 1220.49 705.871 1219.81 702.791L1217.67 693.064C1217.53 692.416 1217.35 691.902 1217.14 691.524 1216.92 691.146 1216.64 690.876 1216.29 690.713 1215.94 690.551 1215.41 690.47 1214.71 690.47L1213.69 690.47 1209.28 710.572 1197.65 710.572 1207.9 664.776C1208.49 662.128 1208.79 660.196 1208.79 658.981 1208.79 658.386 1208.73 657.92 1208.61 657.582 1208.49 657.245 1208.3 656.968 1208.06 656.752 1207.82 656.535 1207.49 656.367 1207.09 656.245 1206.68 656.123 1205.89 655.982 1204.7 655.819L1205.35 653.185Z" fill-rule="evenodd"/><text fill="#000000" fill-opacity="0" font-family="Arial,Arial_MSFontService,sans-serif" font-size="58.6836" x="1197.65" y="703.885">𝒌</text><path d="M1273.29 692.578 1323.22 692.578 1323.22 697.968 1273.29 697.968ZM1273.29 675.759 1323.22 675.759 1323.22 681.149 1273.29 681.149Z" fill-rule="evenodd"/><text fill="#000000" fill-opacity="0" font-family="Arial,Arial_MSFontService,sans-serif" font-size="22.209" x="1273.29" y="695.192">=</text><path d="M1366.83 669.72C1369.08 669.72 1370.87 670.348 1372.2 671.605 1373.54 672.861 1374.21 674.516 1374.21 676.569 1374.21 677.245 1374.13 677.893 1373.97 678.515L1374.37 678.839C1376.91 675.678 1379.32 673.368 1381.61 671.909 1383.89 670.45 1386.56 669.72 1389.61 669.72 1392.39 669.72 1394.58 670.504 1396.16 672.071 1397.74 673.638 1398.53 675.772 1398.53 678.474 1398.53 679.339 1398.44 680.419 1398.26 681.716 1398.09 683.013 1397.88 684.161 1397.63 685.161L1394.43 697.806C1393.97 699.616 1393.74 701.197 1393.74 702.547 1393.74 703.601 1393.92 704.331 1394.27 704.736 1394.62 705.141 1395.12 705.344 1395.77 705.344 1396.55 705.344 1397.43 704.972 1398.4 704.229 1399.38 703.486 1400.53 702.358 1401.85 700.845L1404.77 703.763C1402.12 706.465 1399.75 708.383 1397.66 709.518 1395.56 710.653 1393.26 711.22 1390.75 711.22 1387.88 711.22 1385.79 710.511 1384.46 709.093 1383.14 707.674 1382.48 705.587 1382.48 702.831 1382.48 700.859 1382.87 698.333 1383.65 695.253L1385.44 688.525C1385.9 686.796 1386.29 685.087 1386.61 683.398 1386.94 681.71 1387.1 680.325 1387.1 679.244 1387.1 678.028 1386.84 677.123 1386.33 676.529 1385.81 675.934 1385.08 675.637 1384.14 675.637 1382.82 675.637 1381.3 676.421 1379.6 677.988 1377.9 679.555 1376.53 681.21 1375.51 682.952 1374.48 684.695 1373.67 686.971 1373.08 689.781L1368.54 710.572 1356.9 710.572 1363.43 682.405C1363.84 680.649 1364.04 679.312 1364.04 678.393 1364.04 677.502 1363.89 676.813 1363.59 676.326 1363.29 675.84 1362.78 675.597 1362.05 675.597 1361.21 675.597 1360.31 675.975 1359.34 676.732 1358.36 677.488 1357.23 678.609 1355.93 680.095L1353.01 677.177C1355.72 674.421 1358.11 672.49 1360.21 671.382 1362.3 670.274 1364.51 669.72 1366.83 669.72Z" fill-rule="evenodd"/><text fill="#000000" fill-opacity="0" font-family="Arial,Arial_MSFontService,sans-serif" font-size="41.5" x="1353.01" y="706.033">𝒏</text><path d="M1427.25 671.139 1429.32 673.895C1425.21 677.245 1421.99 681.034 1419.67 685.263 1417.35 689.491 1416.18 693.861 1416.18 698.373 1416.18 701.48 1416.77 703.865 1417.95 705.526 1419.12 707.188 1420.78 708.019 1422.91 708.019 1424.91 708.019 1426.61 707.208 1428.02 705.587 1429.42 703.966 1430.46 701.588 1431.14 698.454L1434.46 683.175 1441.27 683.175 1438.19 697.117C1437.84 698.711 1437.66 700.197 1437.66 701.575 1437.66 703.736 1438.13 705.351 1439.06 706.418 1439.99 707.485 1441.31 708.019 1443.01 708.019 1445.26 708.019 1447.24 707.201 1448.97 705.567 1450.7 703.932 1452.04 701.548 1453 698.414 1453.96 695.28 1454.44 691.632 1454.44 687.471 1454.44 685.013 1454.1 682.493 1453.43 679.913 1452.75 677.333 1451.81 675.191 1450.59 673.489L1453.35 671.139C1456.05 673.705 1458.08 676.529 1459.45 679.609 1460.81 682.689 1461.49 685.999 1461.49 689.538 1461.49 693.51 1460.71 697.171 1459.14 700.521 1457.58 703.871 1455.35 706.492 1452.48 708.383 1449.6 710.275 1446.31 711.22 1442.61 711.22 1438.12 711.22 1435.06 709.005 1433.41 704.574L1433.25 704.574C1432.3 706.06 1431.31 707.255 1430.27 708.16 1429.23 709.066 1427.92 709.802 1426.36 710.369 1424.79 710.937 1422.93 711.22 1420.76 711.22 1418.68 711.22 1416.77 710.754 1415.03 709.822 1413.29 708.89 1411.87 707.431 1410.79 705.445 1409.71 703.459 1409.17 701.021 1409.17 698.13 1409.17 693.213 1410.75 688.39 1413.91 683.662 1417.08 678.933 1421.52 674.759 1427.25 671.139Z" fill-rule="evenodd"/><text fill="#000000" fill-opacity="0" font-family="Arial,Arial_MSFontService,sans-serif" font-size="40.0815" x="1409.17" y="706.21">𝜔</text><path d="M1476.87 648.795 1484.56 648.795 1484.56 651.119 1474.64 674.977 1471.15 673.934Z" fill-rule="evenodd"/><text fill="#000000" fill-opacity="0" font-family="Arial,Arial_MSFontService,sans-serif" font-size="26.1812" x="1471.15" y="671.704">′</text><path d="M1523.18 652.577 1529.47 652.577 1500.2 727.999 1493.84 727.999Z" fill-rule="evenodd"/><text fill="#000000" fill-opacity="0" font-family="Arial,Arial_MSFontService,sans-serif" font-size="75.4214" x="1493.84" y="718.571">/</text><path d="M1558.84 671.179C1562.43 671.179 1565.74 671.585 1568.76 672.395L1566.78 681.554 1562.52 681.554C1562.47 679.501 1562.3 678.015 1562.02 677.096 1561.73 676.178 1561.27 675.489 1560.64 675.029 1560 674.57 1559.11 674.34 1557.94 674.34 1555.21 674.34 1552.76 675.428 1550.59 677.603 1548.41 679.778 1546.64 682.858 1545.26 686.843 1543.88 690.828 1543.19 694.658 1543.19 698.333 1543.19 701.088 1543.73 703.135 1544.81 704.472 1545.89 705.81 1547.51 706.479 1549.68 706.479 1552.13 706.479 1554.26 706.013 1556.06 705.08 1557.86 704.148 1559.75 702.682 1561.75 700.683L1564.23 703.155C1561.69 705.965 1559.13 708.019 1556.55 709.315 1553.97 710.612 1551.19 711.261 1548.22 711.261 1544.3 711.261 1541.33 710.099 1539.3 707.775 1537.27 705.452 1536.26 702.075 1536.26 697.644 1536.26 694.753 1536.8 691.578 1537.88 688.12 1538.96 684.661 1540.54 681.622 1542.62 679.001 1544.7 676.38 1547.14 674.421 1549.92 673.125 1552.7 671.828 1555.67 671.179 1558.84 671.179Z" fill-rule="evenodd"/><text fill="#000000" fill-opacity="0" font-family="Arial,Arial_MSFontService,sans-serif" font-size="40.0815" x="1536.26" y="706.251">𝑐</text><path d="M1585.46 691.733C1584.07 691.733 1582.91 692.095 1581.98 692.82 1581.05 693.545 1580.31 694.607 1579.76 696.007 1579.21 697.407 1578.83 699.115 1578.6 701.13 1578.37 703.146 1578.26 705.434 1578.26 707.996 1578.26 710.954 1578.4 713.511 1578.69 715.665 1578.98 717.82 1579.42 719.592 1580.03 720.982 1580.63 722.372 1581.39 723.395 1582.31 724.05 1583.22 724.705 1584.31 725.033 1585.58 725.033 1586.78 725.033 1587.82 724.725 1588.71 724.109 1589.6 723.494 1590.34 722.536 1590.93 721.235 1591.52 719.935 1591.96 718.286 1592.26 716.291 1592.55 714.295 1592.7 711.937 1592.7 709.217 1592.7 706.159 1592.54 703.528 1592.21 701.324 1591.88 699.12 1591.42 697.308 1590.83 695.888 1590.23 694.468 1589.48 693.421 1588.58 692.746 1587.67 692.071 1586.64 691.733 1585.46 691.733ZM1585.58 688.844C1587.95 688.844 1589.97 689.286 1591.65 690.169 1593.32 691.053 1594.69 692.314 1595.76 693.952 1596.82 695.59 1597.6 697.591 1598.09 699.954 1598.59 702.317 1598.84 704.987 1598.84 707.966 1598.84 714.578 1597.67 719.577 1595.32 722.963 1592.98 726.348 1589.58 728.041 1585.14 728.041 1580.73 728.041 1577.45 726.443 1575.31 723.246 1573.16 720.049 1572.09 715.204 1572.09 708.711 1572.09 705.315 1572.42 702.376 1573.09 699.894 1573.75 697.412 1574.69 695.352 1575.89 693.714 1577.09 692.076 1578.51 690.854 1580.16 690.05 1581.81 689.246 1583.62 688.844 1585.58 688.844Z" fill-rule="evenodd"/><text fill="#000000" fill-opacity="0" font-family="Arial,Arial_MSFontService,sans-serif" font-size="39.1973" x="1572.09" y="723.141">0</text><path d="M679.781 755.664C682.266 755.664 684.57 755.832 686.691 756.17 688.812 756.508 691.155 757.082 693.722 757.893L691.453 768.308 687.562 768.308C687.454 766.011 687.103 764.208 686.508 762.898 685.914 761.587 685.063 760.648 683.955 760.081 682.847 759.514 681.375 759.23 679.538 759.23 677.295 759.23 675.323 759.689 673.621 760.608 671.918 761.526 670.622 762.776 669.73 764.357 668.838 765.937 668.393 767.7 668.393 769.645 668.393 771.672 668.926 773.448 669.993 774.975 671.061 776.501 673.107 778.305 676.133 780.385 678.781 782.222 680.801 783.864 682.192 785.309 683.584 786.755 684.61 788.288 685.272 789.909 685.934 791.53 686.265 793.408 686.265 795.542 686.265 798.839 685.475 801.763 683.894 804.317 682.314 806.87 680.085 808.842 677.207 810.234 674.33 811.625 671.054 812.321 667.379 812.321 664.894 812.321 662.212 812.118 659.335 811.713 656.457 811.308 653.884 810.794 651.614 810.173L654.046 799.028 657.937 799.028C657.937 802.324 658.7 804.776 660.226 806.383 661.753 807.991 664.11 808.795 667.298 808.795 670.973 808.795 673.864 807.795 675.971 805.796 678.079 803.797 679.132 801.014 679.132 797.447 679.132 795.799 678.842 794.347 678.261 793.091 677.68 791.834 676.802 790.632 675.627 789.484 674.451 788.335 672.756 787.018 670.541 785.532 668.541 784.181 666.88 782.851 665.556 781.54 664.232 780.23 663.178 778.764 662.395 777.143 661.611 775.522 661.219 773.712 661.219 771.712 661.219 768.524 661.989 765.714 663.529 763.283 665.069 760.851 667.244 758.973 670.054 757.649 672.864 756.325 676.106 755.664 679.781 755.664ZM705.017 748.085 712.595 748.085 712.595 750.395 702.828 773.901 699.383 772.888Z" fill-rule="evenodd"/><text fill="#000000" fill-opacity="0" font-family="Arial,Arial_MSFontService,sans-serif" font-size="64.2358" x="651.614" y="804.291">𝑆′</text><path d="M502.131 1209.97C504.616 1209.97 506.92 1210.14 509.041 1210.47 511.162 1210.81 513.505 1211.38 516.072 1212.2L513.803 1222.61 509.912 1222.61C509.804 1220.31 509.453 1218.51 508.858 1217.2 508.264 1215.89 507.413 1214.95 506.305 1214.38 505.197 1213.82 503.725 1213.53 501.888 1213.53 499.645 1213.53 497.673 1213.99 495.971 1214.91 494.268 1215.83 492.972 1217.08 492.08 1218.66 491.188 1220.24 490.743 1222 490.743 1223.95 490.743 1225.97 491.276 1227.75 492.343 1229.28 493.411 1230.8 495.457 1232.61 498.483 1234.69 501.131 1236.53 503.151 1238.17 504.542 1239.61 505.934 1241.06 506.96 1242.59 507.622 1244.21 508.284 1245.83 508.615 1247.71 508.615 1249.85 508.615 1253.14 507.825 1256.07 506.244 1258.62 504.664 1261.17 502.435 1263.15 499.557 1264.54 496.68 1265.93 493.404 1266.62 489.729 1266.62 487.244 1266.62 484.562 1266.42 481.685 1266.02 478.807 1265.61 476.234 1265.1 473.964 1264.48L476.396 1253.33 480.287 1253.33C480.287 1256.63 481.05 1259.08 482.576 1260.69 484.103 1262.29 486.46 1263.1 489.648 1263.1 493.323 1263.1 496.214 1262.1 498.321 1260.1 500.429 1258.1 501.482 1255.32 501.482 1251.75 501.482 1250.1 501.192 1248.65 500.611 1247.39 500.03 1246.14 499.152 1244.93 497.977 1243.79 496.801 1242.64 495.106 1241.32 492.891 1239.84 490.891 1238.48 489.23 1237.15 487.906 1235.84 486.582 1234.53 485.528 1233.07 484.745 1231.45 483.961 1229.82 483.569 1228.01 483.569 1226.02 483.569 1222.83 484.339 1220.02 485.879 1217.59 487.419 1215.15 489.594 1213.28 492.404 1211.95 495.214 1210.63 498.456 1209.97 502.131 1209.97Z" fill-rule="evenodd"/><text fill="#000000" fill-opacity="0" font-family="Arial,Arial_MSFontService,sans-serif" font-size="56.6572" x="473.964" y="1259.54">𝑆</text><path d="M1077 681 1711.55 1369.83" stroke="#000000" stroke-width="2.29167" stroke-miterlimit="8" stroke-dasharray="9.16667 6.875" fill="none" fill-rule="evenodd"/><path d="M1024 731 1679.75 1465.95" stroke="#000000" stroke-width="2.29167" stroke-miterlimit="8" stroke-dasharray="9.16667 6.875" fill="none" fill-rule="evenodd"/><path d="M967 783 1581.52 1485.1" stroke="#000000" stroke-width="2.29167" stroke-miterlimit="8" stroke-dasharray="9.16667 6.875" fill="none" fill-rule="evenodd"/><path d="M1411.3 1068.59C1413.38 1068.59 1414.97 1069.08 1416.08 1070.05 1417.19 1071.02 1417.97 1072.56 1418.43 1074.65 1418.89 1076.74 1419.12 1079.8 1419.12 1083.83 1419.12 1085.15 1419.09 1087.07 1419.04 1089.58L1418.88 1095.99C1418.66 1102.07 1418.55 1106.85 1418.55 1110.33 1418.55 1113.14 1418.61 1115.34 1418.73 1116.92 1418.86 1118.5 1419.05 1119.7 1419.32 1120.51 1419.59 1121.32 1419.93 1121.86 1420.33 1122.15 1420.74 1122.43 1421.24 1122.57 1421.83 1122.57 1422.54 1122.57 1423.29 1122.34 1424.08 1121.86 1424.88 1121.39 1425.86 1120.53 1427.02 1119.29L1429.29 1121.56C1427.54 1123.34 1425.8 1124.74 1424.08 1125.73 1422.37 1126.73 1420.85 1127.23 1419.52 1127.23 1417.98 1127.23 1416.81 1126.92 1416 1126.3 1415.19 1125.68 1414.6 1124.65 1414.24 1123.22 1413.87 1121.79 1413.69 1119.68 1413.69 1116.9 1413.69 1113.06 1413.97 1106.78 1414.54 1098.05L1414.13 1098.05C1406.03 1109.94 1399.91 1119.45 1395.78 1126.59L1387.55 1126.59 1387.95 1124.6C1389.2 1123.09 1390.44 1121.51 1391.68 1119.88 1392.92 1118.24 1394.44 1116.17 1396.22 1113.66L1414.38 1087.88C1414.35 1085.13 1414.23 1082.82 1414.01 1080.95 1413.8 1079.09 1413.5 1077.61 1413.12 1076.51 1412.74 1075.42 1412.24 1074.62 1411.62 1074.1 1411 1073.59 1410.15 1073.33 1409.07 1073.33 1408.18 1073.33 1407.27 1073.59 1406.35 1074.1 1405.43 1074.62 1404.1 1075.67 1402.34 1077.26L1400.23 1074.91C1402.72 1072.45 1404.78 1070.79 1406.41 1069.91 1408.05 1069.03 1409.68 1068.59 1411.3 1068.59Z" fill-rule="evenodd"/><text fill="#000000" fill-opacity="0" font-family="Arial,Arial_MSFontService,sans-serif" font-size="58.6431" x="1387.55" y="1119.9">𝜆</text><path d="M1.05879-0.438065 167.858 402.709 165.74 403.585-1.05879 0.438065ZM177.752 393.655 175.56 424.322 152.341 404.168Z" transform="matrix(1 0 0 -1 638 1370.32)"/><path d="M822.314 1032.01C824.962 1032.01 827.008 1032.74 828.454 1034.2 829.899 1035.66 830.622 1037.5 830.622 1039.71 830.622 1041.06 830.473 1042.47 830.176 1043.93L827.542 1056.29C827.299 1057.72 827.096 1059.11 826.934 1060.46 826.772 1061.81 826.691 1063.01 826.691 1064.07 826.691 1065.09 826.758 1065.93 826.893 1066.58 827.028 1067.23 827.204 1067.55 827.42 1067.55 828.177 1067.55 829.156 1067.2 830.358 1066.5 831.561 1065.8 832.858 1064.82 834.249 1063.58 835.641 1062.34 837.032 1060.88 838.423 1059.2 839.815 1057.53 841.071 1055.72 842.192 1053.77 843.314 1051.83 844.219 1049.77 844.908 1047.59 845.597 1045.42 845.941 1043.22 845.941 1041.01 845.941 1039.93 845.732 1039.09 845.313 1038.5 844.894 1037.9 844.239 1037.6 843.347 1037.6 842.348 1037.6 841.422 1037.97 840.571 1038.72 839.72 1039.46 838.849 1040.45 837.957 1041.7L835.12 1039.43C836.823 1037.08 838.721 1035.25 840.815 1033.96 842.908 1032.66 845.239 1032.01 847.805 1032.01 850.345 1032.01 852.142 1032.67 853.196 1033.98 854.249 1035.29 854.776 1037.04 854.776 1039.22 854.776 1040.49 854.533 1041.96 854.047 1043.62 853.56 1045.28 852.858 1047.03 851.939 1048.87 851.021 1050.71 849.94 1052.6 848.697 1054.54 847.454 1056.49 846.076 1058.37 844.563 1060.2 843.05 1062.02 841.436 1063.74 839.72 1065.36 838.005 1066.99 836.221 1068.4 834.371 1069.6 832.52 1070.8 830.642 1071.75 828.737 1072.46 826.833 1073.16 824.921 1073.51 823.003 1073.51 821.571 1073.51 820.396 1073.31 819.477 1072.92 818.558 1072.53 817.89 1071.98 817.471 1071.26 817.052 1070.55 816.775 1069.71 816.64 1068.75 816.505 1067.79 816.437 1066.74 816.437 1065.61 816.437 1064.04 816.532 1062.39 816.721 1060.64 816.91 1058.9 817.153 1057.15 817.451 1055.4L819.923 1043.93C820.085 1043.22 820.22 1042.58 820.328 1042 820.436 1041.42 820.49 1040.95 820.49 1040.6 820.49 1039.79 820.321 1039.15 819.983 1038.68 819.646 1038.2 818.95 1037.97 817.896 1037.97 816.221 1037.97 813.83 1039.39 810.723 1042.22L808.21 1039.39C809.48 1037.79 811.378 1036.16 813.904 1034.5 816.431 1032.84 819.234 1032.01 822.314 1032.01Z" fill-rule="evenodd"/><text fill="#000000" fill-opacity="0" font-family="Arial,Arial_MSFontService,sans-serif" font-size="41.5" x="808.21" y="1068.32">𝒗</text><path d="M873.806 1054.02C872.416 1054.02 871.255 1054.39 870.321 1055.11 869.388 1055.84 868.648 1056.9 868.102 1058.3 867.556 1059.7 867.169 1061.41 866.941 1063.42 866.712 1065.44 866.598 1067.72 866.598 1070.29 866.598 1073.24 866.742 1075.8 867.03 1077.96 867.318 1080.11 867.765 1081.88 868.37 1083.27 868.976 1084.66 869.736 1085.69 870.649 1086.34 871.562 1087 872.655 1087.32 873.925 1087.32 875.117 1087.32 876.159 1087.02 877.053 1086.4 877.946 1085.78 878.686 1084.83 879.272 1083.53 879.858 1082.22 880.299 1080.58 880.597 1078.58 880.895 1076.59 881.044 1074.23 881.044 1071.51 881.044 1068.45 880.88 1065.82 880.553 1063.61 880.225 1061.41 879.763 1059.6 879.168 1058.18 878.572 1056.76 877.822 1055.71 876.919 1055.04 876.015 1054.36 874.978 1054.02 873.806 1054.02ZM873.925 1051.13C876.288 1051.13 878.309 1051.58 879.987 1052.46 881.665 1053.34 883.035 1054.6 884.097 1056.24 885.159 1057.88 885.939 1059.88 886.435 1062.24 886.932 1064.61 887.18 1067.28 887.18 1070.26 887.18 1076.87 886.008 1081.87 883.665 1085.25 881.322 1088.64 877.927 1090.33 873.479 1090.33 869.07 1090.33 865.794 1088.73 863.65 1085.54 861.505 1082.34 860.433 1077.49 860.433 1071 860.433 1067.61 860.765 1064.67 861.431 1062.18 862.096 1059.7 863.029 1057.64 864.23 1056 865.432 1054.37 866.856 1053.14 868.505 1052.34 870.153 1051.54 871.96 1051.13 873.925 1051.13Z" fill-rule="evenodd"/><text fill="#000000" fill-opacity="0" font-family="Arial,Arial_MSFontService,sans-serif" font-size="39.1973" x="860.433" y="1085.43">0</text><path d="M910.352 1024.11 915.945 1024.11 913.716 1034.12 926.036 1034.12 925.145 1038.21 912.825 1038.21 909.218 1053.94C908.515 1056.99 908.069 1059.18 907.88 1060.52 907.691 1061.86 907.597 1062.93 907.597 1063.74 907.597 1067.09 908.988 1068.77 911.771 1068.77 912.96 1068.77 914.223 1068.32 915.56 1067.41 916.898 1066.51 918.485 1064.96 920.322 1062.77L922.673 1065.2C920.322 1068.04 918.059 1070.13 915.884 1071.48 913.709 1072.84 911.433 1073.51 909.056 1073.51 903.409 1073.51 900.585 1070.66 900.585 1064.96 900.585 1063.15 900.815 1061.24 901.274 1059.25L906.057 1038.21 899.248 1038.21 899.856 1035.42C901.45 1035.39 902.659 1035.27 903.483 1035.05 904.307 1034.83 904.996 1034.54 905.55 1034.16 906.104 1033.78 906.61 1033.24 907.07 1032.54 907.529 1031.84 907.975 1030.94 908.407 1029.84 908.839 1028.75 909.488 1026.84 910.352 1024.11Z" fill-rule="evenodd"/><text fill="#000000" fill-opacity="0" font-family="Arial,Arial_MSFontService,sans-serif" font-size="49.4028" x="899.248" y="1067.34">𝑡</text><path d="M0.754393-0.862453 413.683 360.329 412.174 362.054-0.754393 0.862453ZM418.531 347.825 430.178 376.279 400.426 368.523Z" transform="matrix(1 0 0 -1 1948 1309.28)"/><path d="M1.05879-0.438065 167.858 402.709 165.74 403.585-1.05879 0.438065ZM177.752 393.655 175.56 424.322 152.341 404.168Z" transform="matrix(1 0 0 -1 1948 1310.32)"/><path d="M1954.19 995.522C1956.84 995.522 1958.88 996.251 1960.33 997.71 1961.77 999.169 1962.5 1001.01 1962.5 1003.22 1962.5 1004.57 1962.35 1005.98 1962.05 1007.44L1959.42 1019.8C1959.17 1021.23 1958.97 1022.62 1958.81 1023.97 1958.65 1025.32 1958.56 1026.53 1958.56 1027.58 1958.56 1028.61 1958.63 1029.44 1958.77 1030.09 1958.9 1030.74 1959.08 1031.06 1959.29 1031.06 1960.05 1031.06 1961.03 1030.71 1962.23 1030.01 1963.43 1029.31 1964.73 1028.34 1966.12 1027.09 1967.51 1025.85 1968.91 1024.39 1970.3 1022.72 1971.69 1021.04 1972.94 1019.23 1974.07 1017.28 1975.19 1015.34 1976.09 1013.28 1976.78 1011.1 1977.47 1008.93 1977.81 1006.73 1977.81 1004.52 1977.81 1003.44 1977.61 1002.6 1977.19 1002.01 1976.77 1001.41 1976.11 1001.11 1975.22 1001.11 1974.22 1001.11 1973.3 1001.49 1972.44 1002.23 1971.59 1002.97 1970.72 1003.96 1969.83 1005.21L1966.99 1002.94C1968.7 1000.59 1970.59 998.764 1972.69 997.467 1974.78 996.17 1977.11 995.522 1979.68 995.522 1982.22 995.522 1984.02 996.177 1985.07 997.487 1986.12 998.798 1986.65 1000.55 1986.65 1002.74 1986.65 1004.01 1986.41 1005.47 1985.92 1007.13 1985.43 1008.79 1984.73 1010.54 1983.81 1012.38 1982.89 1014.22 1981.81 1016.11 1980.57 1018.05 1979.33 1020 1977.95 1021.88 1976.44 1023.71 1974.92 1025.53 1973.31 1027.25 1971.59 1028.88 1969.88 1030.5 1968.09 1031.91 1966.24 1033.11 1964.39 1034.31 1962.52 1035.27 1960.61 1035.97 1958.71 1036.67 1956.79 1037.02 1954.88 1037.02 1953.44 1037.02 1952.27 1036.83 1951.35 1036.43 1950.43 1036.04 1949.76 1035.49 1949.34 1034.77 1948.93 1034.06 1948.65 1033.22 1948.51 1032.26 1948.38 1031.3 1948.31 1030.25 1948.31 1029.12 1948.31 1027.55 1948.41 1025.9 1948.59 1024.15 1948.78 1022.41 1949.03 1020.66 1949.32 1018.91L1951.8 1007.44C1951.96 1006.73 1952.09 1006.09 1952.2 1005.51 1952.31 1004.93 1952.36 1004.46 1952.36 1004.11 1952.36 1003.3 1952.19 1002.66 1951.86 1002.19 1951.52 1001.72 1950.82 1001.48 1949.77 1001.48 1948.09 1001.48 1945.7 1002.9 1942.6 1005.73L1940.08 1002.9C1941.35 1001.3 1943.25 999.676 1945.78 998.014 1948.3 996.352 1951.11 995.522 1954.19 995.522Z" fill-rule="evenodd"/><text fill="#000000" fill-opacity="0" font-family="Arial,Arial_MSFontService,sans-serif" font-size="41.5" x="1940.08" y="1031.83">𝒗</text><path d="M2005.68 1017.53C2004.29 1017.53 2003.13 1017.9 2002.2 1018.62 2001.26 1019.35 2000.52 1020.41 1999.98 1021.81 1999.43 1023.21 1999.04 1024.92 1998.81 1026.93 1998.59 1028.95 1998.47 1031.24 1998.47 1033.8 1998.47 1036.76 1998.62 1039.31 1998.9 1041.47 1999.19 1043.62 1999.64 1045.39 2000.24 1046.78 2000.85 1048.17 2001.61 1049.2 2002.52 1049.85 2003.44 1050.51 2004.53 1050.83 2005.8 1050.83 2006.99 1050.83 2008.03 1050.53 2008.93 1049.91 2009.82 1049.3 2010.56 1048.34 2011.15 1047.04 2011.73 1045.74 2012.17 1044.09 2012.47 1042.09 2012.77 1040.1 2012.92 1037.74 2012.92 1035.02 2012.92 1031.96 2012.75 1029.33 2012.43 1027.13 2012.1 1024.92 2011.64 1023.11 2011.04 1021.69 2010.45 1020.27 2009.7 1019.22 2008.79 1018.55 2007.89 1017.87 2006.85 1017.53 2005.68 1017.53ZM2005.8 1014.65C2008.16 1014.65 2010.18 1015.09 2011.86 1015.97 2013.54 1016.85 2014.91 1018.12 2015.97 1019.75 2017.03 1021.39 2017.81 1023.39 2018.31 1025.76 2018.81 1028.12 2019.05 1030.79 2019.05 1033.77 2019.05 1040.38 2017.88 1045.38 2015.54 1048.76 2013.2 1052.15 2009.8 1053.84 2005.35 1053.84 2000.94 1053.84 1997.67 1052.24 1995.52 1049.05 1993.38 1045.85 1992.31 1041.01 1992.31 1034.51 1992.31 1031.12 1992.64 1028.18 1993.3 1025.7 1993.97 1023.21 1994.9 1021.15 1996.1 1019.52 1997.31 1017.88 1998.73 1016.66 2000.38 1015.85 2002.03 1015.05 2003.83 1014.65 2005.8 1014.65Z" fill-rule="evenodd"/><text fill="#000000" fill-opacity="0" font-family="Arial,Arial_MSFontService,sans-serif" font-size="39.1973" x="1992.31" y="1048.94">0</text><path d="M2138.91 1190.6 2143.49 1190.6 2135.95 1224.72 2136.77 1224.72C2137.74 1224.72 2138.66 1224.55 2139.52 1224.2 2140.57 1223.76 2141.87 1222.99 2143.41 1221.89 2145.49 1220.35 2146.96 1219.14 2147.83 1218.28 2148.69 1217.41 2149.3 1216.6 2149.63 1215.83 2149.97 1215.06 2150.14 1214.27 2150.14 1213.46 2150.14 1212.83 2149.97 1212.31 2149.63 1211.88 2149.3 1211.44 2148.69 1211.19 2147.83 1211.11L2148.48 1208.43 2162.91 1208.43 2163.92 1211.07C2162.24 1212.9 2159.99 1214.9 2157.15 1217.06L2148.03 1223.91 2152.21 1238.7C2152.69 1240.46 2153.15 1241.65 2153.56 1242.27 2153.98 1242.89 2154.57 1243.2 2155.33 1243.2 2156.03 1243.2 2156.83 1242.85 2157.72 1242.13 2158.61 1241.41 2159.66 1240.34 2160.88 1238.91L2163.8 1241.83C2161.28 1244.53 2159.01 1246.45 2156.99 1247.58 2154.96 1248.72 2152.88 1249.28 2150.75 1249.28 2148.07 1249.28 2145.99 1248.65 2144.51 1247.38 2143.02 1246.11 2141.94 1243.93 2141.26 1240.85L2139.12 1231.13C2138.98 1230.48 2138.81 1229.96 2138.59 1229.59 2138.37 1229.21 2138.09 1228.94 2137.74 1228.78 2137.39 1228.61 2136.86 1228.53 2136.16 1228.53L2135.14 1228.53 2130.73 1248.63 2119.1 1248.63 2129.35 1202.84C2129.94 1200.19 2130.24 1198.26 2130.24 1197.04 2130.24 1196.45 2130.18 1195.98 2130.06 1195.64 2129.94 1195.31 2129.75 1195.03 2129.51 1194.81 2129.27 1194.6 2128.94 1194.43 2128.54 1194.31 2128.13 1194.19 2127.34 1194.04 2126.15 1193.88L2126.8 1191.25Z" fill-rule="evenodd"/><text fill="#000000" fill-opacity="0" font-family="Arial,Arial_MSFontService,sans-serif" font-size="58.6836" x="2119.1" y="1241.95">𝒌</text><path d="M2063.62 1127.85C2062.35 1133.72 2061.72 1138.65 2061.72 1142.64 2061.72 1145.67 2062.18 1147.89 2063.1 1149.31 2064.02 1150.73 2065.5 1151.44 2067.55 1151.44 2070.58 1151.44 2073.45 1149.41 2076.17 1145.34 2078.88 1141.27 2081.19 1135.44 2083.08 1127.85ZM2080.24 1100.54C2077.08 1100.54 2074.15 1102.54 2071.47 1106.53 2068.78 1110.53 2066.49 1116.26 2064.6 1123.72L2084.01 1123.72C2085.28 1118.02 2085.91 1113.11 2085.91 1109.01 2085.91 1106.17 2085.45 1104.05 2084.54 1102.64 2083.62 1101.24 2082.18 1100.54 2080.24 1100.54ZM2080.73 1097.25C2088.56 1097.25 2092.48 1102.23 2092.48 1112.17 2092.48 1114.98 2092.16 1118.34 2091.53 1122.24 2090.89 1126.14 2089.89 1130.12 2088.51 1134.17 2087.13 1138.23 2085.39 1141.81 2083.28 1144.93 2081.17 1148.06 2078.74 1150.47 2075.98 1152.17 2073.23 1153.87 2070.26 1154.72 2067.07 1154.72 2063.04 1154.72 2060.04 1153.49 2058.07 1151.03 2056.1 1148.58 2055.11 1144.89 2055.11 1139.97 2055.11 1137.3 2055.41 1134 2056 1130.08 2056.6 1126.16 2057.58 1122.16 2058.94 1118.06 2060.31 1113.97 2062.06 1110.34 2064.21 1107.16 2066.36 1103.99 2068.83 1101.54 2071.63 1099.83 2074.42 1098.11 2077.46 1097.25 2080.73 1097.25Z" fill-rule="evenodd"/><text fill="#000000" fill-opacity="0" font-family="Arial,Arial_MSFontService,sans-serif" font-size="57.4678" x="2055.11" y="1147.54">𝜃</text></g></svg>