<svg width="868" height="467" xmlns="http://www.w3.org/2000/svg" xmlns:xlink="http://www.w3.org/1999/xlink" xml:space="preserve" overflow="hidden"><g transform="translate(-1016 -1308)"><path d="M1.14583-1.61986e-06 1.14616 232.367-1.1455 232.367-1.14583 1.61986e-06ZM13.7503 227.783 0.000360892 255.283-13.7497 227.783Z" transform="matrix(1 0 0 -1 1044 1592.28)"/><path d="M1041 1591.85 1326.46 1591.85 1326.46 1594.15 1041 1594.15ZM1321.88 1579.25 1349.38 1593 1321.88 1606.75Z"/><path d="M0.665581-0.932703 133.547 93.892 132.216 95.7574-0.665581 0.932703ZM137.138 80.97 151.535 108.136 121.164 103.355Z" transform="matrix(1 0 0 -1 1044 1593.14)"/><path d="M1223.71 1464.55C1224.55 1464.55 1225.29 1464.64 1225.92 1464.83 1226.56 1465.02 1227.12 1465.31 1227.6 1465.7 1228.09 1466.1 1228.52 1466.6 1228.9 1467.22 1229.28 1467.85 1229.64 1468.69 1230 1469.76 1230.35 1470.82 1230.68 1472.15 1230.99 1473.73 1231.3 1475.31 1231.58 1476.95 1231.82 1478.65L1232.22 1478.65C1234.82 1475.01 1236.78 1472.34 1238.12 1470.65 1239.46 1468.96 1240.59 1467.7 1241.5 1466.88 1242.42 1466.06 1243.31 1465.47 1244.16 1465.14 1245.01 1464.8 1246.14 1464.63 1247.54 1464.63 1248.81 1464.63 1249.85 1464.79 1250.66 1465.12L1249.04 1472.45 1246.21 1472.45C1246.04 1471.32 1245.57 1470.75 1244.79 1470.75 1244.54 1470.75 1244.29 1470.79 1244.02 1470.87 1243.75 1470.95 1243.42 1471.13 1243.02 1471.4 1242.63 1471.67 1242.06 1472.2 1241.3 1472.98 1240.55 1473.76 1239.69 1474.72 1238.75 1475.86 1237.8 1476.99 1236.83 1478.18 1235.83 1479.42L1233.08 1482.87C1233.56 1485.46 1234.02 1487.7 1234.45 1489.59 1234.89 1491.49 1235.27 1493.06 1235.61 1494.32 1235.95 1495.57 1236.24 1496.57 1236.5 1497.3 1236.76 1498.02 1237.03 1498.57 1237.33 1498.94 1237.63 1499.3 1237.93 1499.56 1238.24 1499.71 1238.55 1499.86 1238.91 1499.93 1239.32 1499.93 1240.05 1499.93 1240.76 1499.65 1241.44 1499.08 1242.13 1498.51 1243.13 1497.23 1244.42 1495.23L1247.06 1496.97C1245.17 1499.78 1243.46 1501.76 1241.93 1502.91 1240.4 1504.06 1238.59 1504.63 1236.48 1504.63 1235.32 1504.63 1234.33 1504.42 1233.52 1504 1232.71 1503.58 1232.01 1502.91 1231.41 1502 1230.82 1501.08 1230.29 1499.65 1229.83 1497.7 1229 1494.24 1228.48 1491.59 1228.29 1489.76L1227.89 1489.76C1225.02 1493.78 1222.9 1496.67 1221.5 1498.43 1220.11 1500.19 1218.96 1501.48 1218.06 1502.32 1217.15 1503.16 1216.28 1503.75 1215.43 1504.08 1214.57 1504.42 1213.45 1504.59 1212.04 1504.59 1210.77 1504.59 1209.73 1504.43 1208.92 1504.1L1210.54 1496.77 1213.38 1496.77C1213.54 1497.9 1214.01 1498.47 1214.8 1498.47 1215.18 1498.47 1215.57 1498.37 1215.99 1498.17 1216.41 1497.96 1217.01 1497.48 1217.8 1496.71 1218.58 1495.94 1219.66 1494.73 1221.04 1493.08 1222.42 1491.43 1224.42 1488.96 1227.04 1485.66 1226.63 1483.53 1226.21 1481.48 1225.78 1479.5 1225.35 1477.53 1224.9 1475.69 1224.44 1473.99 1223.98 1472.29 1223.61 1471.18 1223.31 1470.65 1223.01 1470.12 1222.69 1469.76 1222.36 1469.55 1222.02 1469.35 1221.59 1469.25 1221.08 1469.25 1220.51 1469.25 1220 1469.38 1219.54 1469.64 1219.08 1469.89 1218.58 1470.34 1218.04 1470.97 1217.5 1471.61 1216.78 1472.6 1215.89 1473.95L1213.26 1472.21C1214.96 1469.64 1216.59 1467.72 1218.16 1466.45 1219.73 1465.18 1221.58 1464.55 1223.71 1464.55Z" fill-rule="evenodd"/><text fill="#000000" fill-opacity="0" font-family="Arial,Arial_MSFontService,sans-serif" font-size="40.0815" x="1208.92" y="1499.62">𝑥</text><path d="M1383.53 1576.86 1412.34 1576.86 1413.11 1578.88 1393.78 1601.09C1390.02 1605.39 1386.77 1609.04 1384.01 1612.04L1384.25 1612.32 1393.41 1612.32C1395.03 1612.32 1396.28 1612.23 1397.14 1612.06 1398.01 1611.88 1398.76 1611.55 1399.41 1611.06 1400.06 1610.58 1400.73 1609.84 1401.42 1608.85 1402.11 1607.87 1402.96 1606.32 1403.99 1604.21L1407.6 1604.21 1405.13 1615.6 1375.78 1615.6 1375.01 1613.62 1397.18 1588.08C1400.32 1584.49 1402.61 1581.94 1404.07 1580.42L1403.83 1580.14 1394.35 1580.14C1392.94 1580.14 1391.91 1580.23 1391.27 1580.42 1390.62 1580.61 1389.97 1580.94 1389.32 1581.42 1388.67 1581.89 1387.98 1582.59 1387.23 1583.52 1386.49 1584.46 1385.66 1585.79 1384.74 1587.52L1381.13 1587.52Z" fill-rule="evenodd"/><text fill="#000000" fill-opacity="0" font-family="Arial,Arial_MSFontService,sans-serif" font-size="38.7441" x="1375.01" y="1610.76">𝑧</text><path d="M1090.5 1349.27C1091.61 1349.27 1092.55 1349.42 1093.33 1349.71 1093.87 1349.93 1094.42 1350.29 1094.96 1350.79 1095.5 1351.29 1095.98 1351.98 1096.39 1352.87 1096.81 1353.77 1097.18 1354.77 1097.49 1355.87 1097.8 1356.98 1098.14 1358.58 1098.52 1360.66 1099.17 1364.14 1099.8 1367.81 1100.41 1371.66 1101.01 1375.51 1101.53 1379.08 1101.97 1382.38 1104.59 1378.6 1106.81 1374.89 1108.63 1371.27 1110.46 1367.65 1111.77 1364.51 1112.56 1361.83 1113.36 1359.16 1113.76 1356.98 1113.76 1355.31 1113.76 1354.04 1113.49 1353.17 1112.95 1352.71 1112.41 1352.25 1111.49 1351.98 1110.19 1351.9L1110.6 1349.92 1121.26 1349.92 1122.35 1351.94C1120.3 1357.56 1117.52 1363.57 1114 1369.98 1110.55 1376.25 1106.59 1382.49 1102.13 1388.7 1097.86 1394.62 1094.31 1398.9 1091.47 1401.55 1089.5 1403.36 1087.59 1404.65 1085.76 1405.44 1084.3 1406.03 1082.74 1406.33 1081.1 1406.33 1080.53 1406.33 1079.87 1406.28 1079.13 1406.19 1078.39 1406.09 1077.81 1405.97 1077.41 1405.8L1079.15 1397.94 1082.35 1397.94C1082.35 1399.67 1082.95 1400.53 1084.13 1400.53 1085.7 1400.53 1087.53 1399.56 1089.61 1397.6 1091.69 1395.64 1094.13 1392.69 1096.94 1388.74 1096.16 1384.01 1095.09 1378.31 1093.74 1371.64 1092.31 1364.51 1091.36 1360.09 1090.9 1358.39 1090.34 1356.33 1089.74 1355.02 1089.12 1354.45 1088.74 1354.1 1088.27 1353.93 1087.7 1353.93 1086.84 1353.93 1086.03 1354.28 1085.27 1354.98 1084.51 1355.68 1083.58 1356.9 1082.47 1358.63L1079.84 1356.89C1081.7 1354.1 1083.45 1352.14 1085.07 1350.99 1086.69 1349.84 1088.5 1349.27 1090.5 1349.27Z" fill-rule="evenodd"/><text fill="#000000" fill-opacity="0" font-family="Arial,Arial_MSFontService,sans-serif" font-size="57.0625" x="1077.41" y="1399.2">𝑦</text><path d="M1.14583-1.61986e-06 1.14616 232.367-1.1455 232.367-1.14583 1.61986e-06ZM13.7503 227.783 0.000360892 255.283-13.7497 227.783Z" transform="matrix(1 0 0 -1 1502 1591.28)"/><path d="M1499 1590.85 1784.46 1590.85 1784.46 1593.15 1499 1593.15ZM1779.88 1578.25 1807.38 1592 1779.88 1605.75Z"/><path d="M0.665581-0.932703 133.547 93.892 132.216 95.7574-0.665581 0.932703ZM137.138 80.97 151.535 108.136 121.164 103.355Z" transform="matrix(1 0 0 -1 1502 1592.14)"/><path d="M1681.89 1463.62C1682.73 1463.62 1683.47 1463.71 1684.1 1463.9 1684.74 1464.09 1685.3 1464.38 1685.78 1464.77 1686.27 1465.16 1686.7 1465.67 1687.08 1466.29 1687.46 1466.91 1687.82 1467.76 1688.17 1468.82 1688.53 1469.89 1688.86 1471.22 1689.17 1472.8 1689.48 1474.38 1689.76 1476.02 1690 1477.72L1690.4 1477.72C1693 1474.07 1694.96 1471.4 1696.3 1469.72 1697.64 1468.03 1698.77 1466.77 1699.68 1465.95 1700.6 1465.12 1701.49 1464.54 1702.34 1464.2 1703.19 1463.87 1704.32 1463.7 1705.72 1463.7 1706.99 1463.7 1708.03 1463.86 1708.84 1464.18L1707.22 1471.52 1704.39 1471.52C1704.22 1470.38 1703.75 1469.82 1702.97 1469.82 1702.72 1469.82 1702.47 1469.86 1702.2 1469.94 1701.93 1470.02 1701.6 1470.2 1701.2 1470.47 1700.81 1470.74 1700.24 1471.26 1699.48 1472.05 1698.73 1472.83 1697.87 1473.79 1696.93 1474.92 1695.98 1476.06 1695.01 1477.25 1694.01 1478.49L1691.25 1481.93C1691.74 1484.53 1692.2 1486.77 1692.63 1488.66 1693.06 1490.55 1693.45 1492.13 1693.79 1493.38 1694.13 1494.64 1694.42 1495.63 1694.68 1496.36 1694.94 1497.09 1695.21 1497.64 1695.51 1498 1695.81 1498.37 1696.11 1498.63 1696.42 1498.77 1696.73 1498.92 1697.09 1499 1697.5 1499 1698.23 1499 1698.93 1498.71 1699.62 1498.15 1700.31 1497.58 1701.31 1496.3 1702.6 1494.3L1705.24 1496.04C1703.35 1498.85 1701.64 1500.83 1700.11 1501.98 1698.58 1503.12 1696.77 1503.7 1694.66 1503.7 1693.5 1503.7 1692.51 1503.49 1691.7 1503.07 1690.89 1502.65 1690.19 1501.98 1689.59 1501.06 1689 1500.15 1688.47 1498.71 1688.01 1496.77 1687.18 1493.31 1686.66 1490.66 1686.47 1488.82L1686.07 1488.82C1683.2 1492.85 1681.08 1495.74 1679.68 1497.5 1678.29 1499.25 1677.14 1500.55 1676.24 1501.39 1675.33 1502.23 1674.46 1502.81 1673.61 1503.15 1672.75 1503.49 1671.63 1503.66 1670.22 1503.66 1668.95 1503.66 1667.91 1503.5 1667.1 1503.17L1668.72 1495.84 1671.56 1495.84C1671.72 1496.97 1672.19 1497.54 1672.98 1497.54 1673.36 1497.54 1673.75 1497.44 1674.17 1497.23 1674.59 1497.03 1675.19 1496.54 1675.98 1495.77 1676.76 1495 1677.84 1493.8 1679.22 1492.15 1680.6 1490.5 1682.6 1488.03 1685.22 1484.73 1684.81 1482.6 1684.39 1480.54 1683.96 1478.57 1683.53 1476.6 1683.08 1474.76 1682.62 1473.06 1682.16 1471.36 1681.78 1470.24 1681.49 1469.72 1681.19 1469.19 1680.87 1468.82 1680.54 1468.62 1680.2 1468.42 1679.77 1468.32 1679.26 1468.32 1678.69 1468.32 1678.18 1468.45 1677.72 1468.7 1677.26 1468.96 1676.76 1469.41 1676.22 1470.04 1675.68 1470.67 1674.96 1471.67 1674.07 1473.02L1671.44 1471.28C1673.14 1468.71 1674.77 1466.79 1676.34 1465.52 1677.91 1464.25 1679.76 1463.62 1681.89 1463.62Z" fill-rule="evenodd"/><text fill="#000000" fill-opacity="0" font-family="Arial,Arial_MSFontService,sans-serif" font-size="40.0815" x="1667.1" y="1498.69">𝑥</text><path d="M1841.7 1575.93 1870.52 1575.93 1871.29 1577.95 1851.96 1600.16C1848.2 1604.46 1844.95 1608.1 1842.19 1611.1L1842.43 1611.39 1851.59 1611.39C1853.21 1611.39 1854.46 1611.3 1855.32 1611.12 1856.19 1610.95 1856.94 1610.62 1857.59 1610.13 1858.24 1609.64 1858.91 1608.91 1859.6 1607.92 1860.29 1606.94 1861.14 1605.39 1862.17 1603.28L1865.78 1603.28 1863.31 1614.67 1833.96 1614.67 1833.19 1612.68 1855.36 1587.15C1858.5 1583.56 1860.79 1581 1862.25 1579.49L1862.01 1579.21 1852.53 1579.21C1851.12 1579.21 1850.09 1579.3 1849.45 1579.49 1848.8 1579.68 1848.15 1580.01 1847.5 1580.48 1846.85 1580.96 1846.16 1581.66 1845.41 1582.59 1844.67 1583.52 1843.84 1584.85 1842.92 1586.58L1839.31 1586.58Z" fill-rule="evenodd"/><text fill="#000000" fill-opacity="0" font-family="Arial,Arial_MSFontService,sans-serif" font-size="38.7441" x="1833.19" y="1609.83">𝑧</text><path d="M1548.68 1348.33C1549.78 1348.33 1550.73 1348.48 1551.51 1348.78 1552.05 1349 1552.59 1349.35 1553.14 1349.85 1553.68 1350.35 1554.16 1351.05 1554.57 1351.94 1554.99 1352.83 1555.36 1353.83 1555.67 1354.94 1555.98 1356.05 1556.32 1357.64 1556.7 1359.72 1557.35 1363.21 1557.98 1366.88 1558.59 1370.73 1559.19 1374.58 1559.71 1378.15 1560.15 1381.45 1562.77 1377.66 1564.99 1373.96 1566.81 1370.34 1568.64 1366.72 1569.95 1363.57 1570.74 1360.9 1571.54 1358.22 1571.94 1356.05 1571.94 1354.37 1571.94 1353.1 1571.67 1352.24 1571.13 1351.78 1570.59 1351.32 1569.67 1351.05 1568.37 1350.97L1568.78 1348.98 1579.44 1348.98 1580.53 1351.01C1578.48 1356.63 1575.7 1362.64 1572.18 1369.04 1568.72 1375.31 1564.77 1381.55 1560.31 1387.77 1556.04 1393.69 1552.49 1397.97 1549.65 1400.62 1547.68 1402.43 1545.77 1403.72 1543.94 1404.51 1542.48 1405.1 1540.92 1405.4 1539.27 1405.4 1538.71 1405.4 1538.05 1405.35 1537.31 1405.26 1536.57 1405.16 1535.99 1405.03 1535.59 1404.87L1537.33 1397.01 1540.53 1397.01C1540.53 1398.74 1541.13 1399.6 1542.31 1399.6 1543.88 1399.6 1545.71 1398.62 1547.79 1396.66 1549.87 1394.7 1552.31 1391.75 1555.12 1387.81 1554.34 1383.08 1553.27 1377.38 1551.92 1370.71 1550.49 1363.57 1549.54 1359.16 1549.08 1357.45 1548.52 1355.4 1547.92 1354.09 1547.3 1353.52 1546.92 1353.17 1546.45 1353 1545.88 1353 1545.02 1353 1544.21 1353.35 1543.45 1354.05 1542.69 1354.75 1541.76 1355.97 1540.65 1357.7L1538.02 1355.95C1539.88 1353.17 1541.63 1351.21 1543.25 1350.06 1544.87 1348.91 1546.68 1348.33 1548.68 1348.33Z" fill-rule="evenodd"/><text fill="#000000" fill-opacity="0" font-family="Arial,Arial_MSFontService,sans-serif" font-size="57.0625" x="1535.59" y="1398.26">𝑦</text><path d="M1499 1618C1499 1638.71 1496.2 1655.5 1492.75 1655.5L1281.75 1655.5C1278.3 1655.5 1275.5 1672.29 1275.5 1693 1275.5 1672.29 1272.7 1655.5 1269.25 1655.5L1058.25 1655.5C1054.8 1655.5 1052 1638.71 1052 1618" stroke="#000000" stroke-width="2.29167" stroke-miterlimit="8" fill="none" fill-rule="evenodd"/><path d="M1279.17 1705.16 1263.73 1745.69 1291.93 1745.69ZM1277.75 1696.2 1283.75 1696.2 1300.85 1749.58 1300.85 1752.17 1256.55 1752.17 1256.55 1749.58Z" fill-rule="evenodd"/><text fill="#000000" fill-opacity="0" font-family="Arial,Arial_MSFontService,sans-serif" font-size="55.9683" x="1256.55" y="1745.17">Δ</text><path d="M1313.28 1713.43 1342.1 1713.43 1342.87 1715.45 1323.54 1737.66C1319.78 1741.96 1316.52 1745.6 1313.77 1748.6L1314.01 1748.89 1323.17 1748.89C1324.79 1748.89 1326.03 1748.8 1326.9 1748.62 1327.76 1748.45 1328.52 1748.12 1329.17 1747.63 1329.82 1747.14 1330.49 1746.41 1331.17 1745.42 1331.86 1744.44 1332.72 1742.89 1333.75 1740.78L1337.35 1740.78 1334.88 1752.17 1305.54 1752.17 1304.77 1750.18 1326.94 1724.65C1330.07 1721.06 1332.37 1718.51 1333.83 1716.99L1333.59 1716.71 1324.1 1716.71C1322.7 1716.71 1321.67 1716.8 1321.02 1716.99 1320.37 1717.18 1319.73 1717.51 1319.08 1717.99 1318.43 1718.46 1317.73 1719.16 1316.99 1720.09 1316.25 1721.03 1315.42 1722.36 1314.5 1724.08L1310.89 1724.08Z" fill-rule="evenodd"/><text fill="#000000" fill-opacity="0" font-family="Arial,Arial_MSFontService,sans-serif" font-size="38.7441" x="1304.77" y="1747.33">𝑧</text></g></svg>