<svg width="872" height="741" xmlns="http://www.w3.org/2000/svg" xmlns:xlink="http://www.w3.org/1999/xlink" xml:space="preserve" overflow="hidden"><g transform="translate(-721 -304)"><path d="M1.14583-1.61986e-06 1.14616 232.367-1.1455 232.367-1.14583 1.61986e-06ZM13.7503 227.783 0.000360892 255.283-13.7497 227.783Z" transform="matrix(1 0 0 -1 814 952.283)"/><path d="M814 950.854 1045.94 950.854 1045.94 953.146 814 953.146ZM1041.36 938.25 1068.86 952 1041.36 965.75Z"/><path d="M1110.19 935.477C1111.03 935.477 1111.77 935.571 1112.4 935.76 1113.04 935.949 1113.6 936.24 1114.09 936.632 1114.57 937.023 1115 937.53 1115.38 938.151 1115.76 938.773 1116.13 939.617 1116.48 940.684 1116.83 941.751 1117.16 943.075 1117.47 944.656 1117.78 946.237 1118.06 947.878 1118.3 949.58L1118.71 949.58C1121.3 945.933 1123.27 943.265 1124.6 941.576 1125.94 939.887 1127.07 938.631 1127.99 937.807 1128.91 936.983 1129.79 936.402 1130.64 936.064 1131.49 935.726 1132.62 935.558 1134.03 935.558 1135.29 935.558 1136.34 935.72 1137.15 936.044L1135.52 943.379 1132.69 943.379C1132.53 942.245 1132.05 941.677 1131.27 941.677 1131.03 941.677 1130.77 941.718 1130.5 941.799 1130.23 941.88 1129.9 942.055 1129.51 942.326 1129.11 942.596 1128.54 943.123 1127.78 943.906 1127.03 944.69 1126.18 945.649 1125.23 946.784 1124.28 947.918 1123.31 949.107 1122.31 950.35L1119.56 953.795C1120.04 956.389 1120.5 958.631 1120.93 960.522 1121.37 962.414 1121.75 963.987 1122.09 965.244 1122.43 966.5 1122.72 967.493 1122.98 968.223 1123.24 968.952 1123.51 969.499 1123.81 969.864 1124.11 970.229 1124.41 970.485 1124.72 970.634 1125.03 970.783 1125.39 970.857 1125.8 970.857 1126.53 970.857 1127.24 970.573 1127.93 970.006 1128.61 969.438 1129.61 968.155 1130.9 966.156L1133.54 967.898C1131.65 970.708 1129.94 972.687 1128.41 973.836 1126.89 974.984 1125.07 975.558 1122.96 975.558 1121.8 975.558 1120.81 975.349 1120 974.93 1119.19 974.511 1118.49 973.842 1117.9 972.924 1117.3 972.005 1116.77 970.573 1116.31 968.628 1115.48 965.17 1114.96 962.522 1114.77 960.685L1114.37 960.685C1111.51 964.71 1109.38 967.601 1107.99 969.357 1106.59 971.114 1105.45 972.41 1104.54 973.248 1103.64 974.086 1102.76 974.673 1101.91 975.011 1101.06 975.349 1099.93 975.518 1098.52 975.518 1097.25 975.518 1096.21 975.355 1095.4 975.031L1097.02 967.696 1099.86 967.696C1100.02 968.831 1100.5 969.398 1101.28 969.398 1101.66 969.398 1102.06 969.297 1102.47 969.094 1102.89 968.891 1103.49 968.405 1104.28 967.635 1105.06 966.865 1106.14 965.656 1107.52 964.008 1108.9 962.36 1110.9 959.887 1113.52 956.591 1113.11 954.457 1112.69 952.403 1112.26 950.431 1111.83 948.459 1111.38 946.622 1110.92 944.919 1110.47 943.217 1110.09 942.103 1109.79 941.576 1109.49 941.049 1109.18 940.684 1108.84 940.482 1108.5 940.279 1108.07 940.178 1107.56 940.178 1106.99 940.178 1106.48 940.306 1106.02 940.563 1105.56 940.819 1105.06 941.265 1104.52 941.9 1103.98 942.535 1103.26 943.528 1102.37 944.879L1099.74 943.136C1101.44 940.569 1103.08 938.651 1104.64 937.381 1106.21 936.111 1108.06 935.477 1110.19 935.477Z" fill-rule="evenodd"/><text fill="#000000" fill-opacity="0" font-family="Arial,Arial_MSFontService,sans-serif" font-size="40.0815" x="1095.4" y="970.548">𝑥</text><path d="M852.446 708.575C853.554 708.575 854.5 708.724 855.283 709.021 855.824 709.237 856.364 709.595 856.904 710.095 857.445 710.595 857.924 711.291 858.343 712.182 858.762 713.074 859.127 714.073 859.437 715.181 859.748 716.289 860.093 717.883 860.471 719.963 861.119 723.449 861.747 727.117 862.355 730.967 862.963 734.817 863.483 738.39 863.916 741.686 866.536 737.904 868.759 734.202 870.582 730.582 872.406 726.961 873.716 723.814 874.514 721.139 875.311 718.464 875.709 716.289 875.709 714.614 875.709 713.344 875.439 712.479 874.899 712.02 874.358 711.561 873.44 711.291 872.143 711.21L872.548 709.224 883.207 709.224 884.301 711.25C882.247 716.87 879.465 722.881 875.952 729.285 872.494 735.553 868.536 741.794 864.078 748.008 859.809 753.925 856.256 758.208 853.419 760.856 851.447 762.666 849.542 763.963 847.705 764.746 846.246 765.341 844.692 765.638 843.044 765.638 842.477 765.638 841.821 765.59 841.078 765.496 840.336 765.401 839.761 765.273 839.356 765.111L841.099 757.249 844.3 757.249C844.3 758.978 844.895 759.842 846.084 759.842 847.651 759.842 849.474 758.863 851.555 756.904 853.635 754.945 856.08 751.994 858.89 748.049 858.107 743.321 857.039 737.62 855.689 730.946 854.257 723.814 853.311 719.396 852.852 717.694 852.284 715.641 851.69 714.33 851.068 713.763 850.69 713.411 850.217 713.236 849.65 713.236 848.785 713.236 847.975 713.587 847.218 714.29 846.462 714.992 845.53 716.208 844.422 717.937L841.788 716.194C843.652 713.411 845.395 711.446 847.016 710.298 848.637 709.149 850.447 708.575 852.446 708.575Z" fill-rule="evenodd"/><text fill="#000000" fill-opacity="0" font-family="Arial,Arial_MSFontService,sans-serif" font-size="57.0625" x="839.356" y="758.505">𝑦</text><path d="M1.14583-1.61986e-06 1.14616 232.367-1.1455 232.367-1.14583 1.61986e-06ZM13.7503 227.783 0.000360892 255.283-13.7497 227.783Z" transform="matrix(1 0 0 -1 1124 765.283)"/><path d="M1124 764.854 1355.94 764.854 1355.94 767.146 1124 767.146ZM1351.36 752.25 1378.86 766 1351.36 779.75Z"/><path d="M1410.29 749.087C1411.13 749.087 1411.86 749.182 1412.5 749.371 1413.13 749.56 1413.69 749.85 1414.18 750.242 1414.67 750.634 1415.1 751.141 1415.48 751.762 1415.86 752.383 1416.22 753.228 1416.57 754.295 1416.92 755.362 1417.25 756.686 1417.56 758.267 1417.88 759.847 1418.15 761.488 1418.4 763.191L1418.8 763.191C1421.39 759.543 1423.36 756.875 1424.7 755.186 1426.03 753.498 1427.16 752.241 1428.08 751.417 1429 750.593 1429.89 750.012 1430.74 749.675 1431.59 749.337 1432.72 749.168 1434.12 749.168 1435.39 749.168 1436.43 749.33 1437.24 749.654L1435.62 756.99 1432.78 756.99C1432.62 755.855 1432.15 755.288 1431.36 755.288 1431.12 755.288 1430.86 755.328 1430.59 755.409 1430.32 755.49 1429.99 755.666 1429.6 755.936 1429.21 756.206 1428.64 756.733 1427.88 757.517 1427.12 758.3 1426.27 759.259 1425.33 760.394 1424.38 761.529 1423.41 762.718 1422.41 763.961L1419.65 767.405C1420.14 769.999 1420.6 772.242 1421.03 774.133 1421.46 776.024 1421.85 777.598 1422.18 778.854 1422.52 780.111 1422.82 781.104 1423.08 781.833 1423.33 782.563 1423.61 783.11 1423.91 783.475 1424.2 783.839 1424.51 784.096 1424.82 784.245 1425.13 784.393 1425.49 784.467 1425.89 784.467 1426.62 784.467 1427.33 784.184 1428.02 783.616 1428.71 783.049 1429.7 781.766 1431 779.766L1433.63 781.509C1431.74 784.319 1430.03 786.298 1428.51 787.446 1426.98 788.594 1425.16 789.169 1423.06 789.169 1421.89 789.169 1420.91 788.959 1420.1 788.54 1419.29 788.122 1418.58 787.453 1417.99 786.534 1417.4 785.616 1416.87 784.184 1416.41 782.238 1415.57 778.78 1415.06 776.132 1414.87 774.295L1414.46 774.295C1411.6 778.321 1409.47 781.212 1408.08 782.968 1406.69 784.724 1405.54 786.021 1404.64 786.859 1403.73 787.696 1402.85 788.284 1402 788.622 1401.15 788.959 1400.02 789.128 1398.62 789.128 1397.35 789.128 1396.31 788.966 1395.5 788.642L1397.12 781.306 1399.96 781.306C1400.12 782.441 1400.59 783.008 1401.37 783.008 1401.75 783.008 1402.15 782.907 1402.57 782.705 1402.99 782.502 1403.59 782.016 1404.37 781.246 1405.16 780.476 1406.24 779.266 1407.62 777.618 1408.99 775.97 1410.99 773.498 1413.61 770.202 1413.21 768.067 1412.79 766.014 1412.36 764.042 1411.92 762.069 1411.48 760.232 1411.02 758.53 1410.56 756.828 1410.18 755.713 1409.88 755.186 1409.59 754.66 1409.27 754.295 1408.93 754.092 1408.59 753.89 1408.17 753.788 1407.66 753.788 1407.09 753.788 1406.58 753.917 1406.12 754.173 1405.66 754.43 1405.16 754.876 1404.62 755.511 1404.08 756.146 1403.36 757.139 1402.47 758.489L1399.83 756.747C1401.54 754.18 1403.17 752.262 1404.74 750.992 1406.3 749.722 1408.16 749.087 1410.29 749.087Z" fill-rule="evenodd"/><text fill="#000000" fill-opacity="0" font-family="Arial,Arial_MSFontService,sans-serif" font-size="40.0815" x="1395.5" y="784.158">𝑥</text><text font-family="Calibri,Calibri_MSFontService,sans-serif" font-weight="400" font-size="83" transform="matrix(1 0 0 1 1440.89 789)">’</text><path d="M1170.36 522.186C1171.47 522.186 1172.42 522.335 1173.2 522.632 1173.74 522.848 1174.28 523.206 1174.82 523.706 1175.36 524.206 1175.84 524.901 1176.26 525.793 1176.68 526.684 1177.04 527.684 1177.35 528.792 1177.66 529.9 1178.01 531.494 1178.39 533.574 1179.04 537.059 1179.66 540.727 1180.27 544.577 1180.88 548.427 1181.4 552.001 1181.83 555.297 1184.45 551.514 1186.67 547.813 1188.5 544.192 1190.32 540.572 1191.63 537.424 1192.43 534.749 1193.23 532.075 1193.62 529.9 1193.62 528.224 1193.62 526.955 1193.35 526.09 1192.81 525.631 1192.27 525.171 1191.36 524.901 1190.06 524.82L1190.46 522.834 1201.12 522.834 1202.22 524.861C1200.16 530.481 1197.38 536.492 1193.87 542.895 1190.41 549.164 1186.45 555.405 1181.99 561.619 1177.72 567.536 1174.17 571.818 1171.33 574.466 1169.36 576.276 1167.46 577.573 1165.62 578.357 1164.16 578.951 1162.61 579.248 1160.96 579.248 1160.39 579.248 1159.74 579.201 1158.99 579.107 1158.25 579.012 1157.68 578.884 1157.27 578.722L1159.01 570.859 1162.22 570.859C1162.22 572.588 1162.81 573.453 1164 573.453 1165.57 573.453 1167.39 572.474 1169.47 570.515 1171.55 568.556 1174 565.604 1176.81 561.66 1176.02 556.931 1174.96 551.231 1173.6 544.557 1172.17 537.424 1171.23 533.007 1170.77 531.305 1170.2 529.251 1169.61 527.941 1168.98 527.373 1168.61 527.022 1168.13 526.847 1167.57 526.847 1166.7 526.847 1165.89 527.198 1165.13 527.9 1164.38 528.603 1163.45 529.819 1162.34 531.548L1159.7 529.805C1161.57 527.022 1163.31 525.057 1164.93 523.908 1166.55 522.76 1168.36 522.186 1170.36 522.186ZM1213 498.032 1220.58 498.032 1220.58 500.342 1210.81 523.848 1207.37 522.834Z" fill-rule="evenodd"/><text fill="#000000" fill-opacity="0" font-family="Arial,Arial_MSFontService,sans-serif" font-size="81.2168" x="1157.27" y="569.096">𝑦′</text><path d="M764.513 969.435C761.595 969.435 758.873 970.476 756.347 972.556 753.821 974.636 751.605 977.608 749.7 981.472 747.795 985.336 746.316 989.577 745.263 994.198 744.209 998.818 743.682 1002.9 743.682 1006.44 743.682 1014.79 746.721 1018.96 752.801 1018.96 756.502 1018.96 759.9 1017.26 762.993 1013.85 766.087 1010.45 768.62 1005.67 770.592 999.527 772.564 993.38 773.551 987.483 773.551 981.837 773.551 973.569 770.538 969.435 764.513 969.435ZM764.959 965.869C770.173 965.869 774.192 967.382 777.016 970.408 779.839 973.434 781.251 977.811 781.251 983.539 781.251 987.727 780.535 992.435 779.103 997.663 777.671 1002.89 775.597 1007.42 772.882 1011.24 770.167 1015.06 767.066 1017.9 763.581 1019.75 760.096 1021.6 756.448 1022.53 752.638 1022.53 747.208 1022.53 743.088 1021.01 740.278 1017.99 737.468 1014.96 736.063 1010.64 736.063 1005.02 736.063 1000.97 736.745 996.386 738.109 991.28 739.474 986.173 741.446 981.668 744.026 977.764 746.607 973.86 749.687 970.901 753.267 968.888 756.847 966.875 760.744 965.869 764.959 965.869Z" fill-rule="evenodd"/><text fill="#000000" fill-opacity="0" font-family="Arial,Arial_MSFontService,sans-serif" font-size="56.6572" x="736.063" y="1015.44">𝑂</text><path d="M1155.87 800.028C1152.95 800.028 1150.23 801.068 1147.71 803.149 1145.18 805.229 1142.96 808.201 1141.06 812.065 1139.15 815.928 1137.67 820.17 1136.62 824.79 1135.57 829.41 1135.04 833.49 1135.04 837.03 1135.04 845.378 1138.08 849.552 1144.16 849.552 1147.86 849.552 1151.26 847.85 1154.35 844.446 1157.45 841.042 1159.98 836.266 1161.95 830.12 1163.92 823.973 1164.91 818.076 1164.91 812.429 1164.91 804.162 1161.9 800.028 1155.87 800.028ZM1156.32 796.462C1161.53 796.462 1165.55 797.975 1168.37 801.001 1171.2 804.027 1172.61 808.404 1172.61 814.132 1172.61 818.319 1171.89 823.027 1170.46 828.255 1169.03 833.483 1166.96 838.009 1164.24 841.832 1161.53 845.655 1158.42 848.492 1154.94 850.343 1151.45 852.194 1147.81 853.119 1144 853.119 1138.57 853.119 1134.45 851.606 1131.64 848.58 1128.83 845.554 1127.42 841.231 1127.42 835.611 1127.42 831.558 1128.1 826.979 1129.47 821.872 1130.83 816.766 1132.8 812.261 1135.39 808.356 1137.97 804.452 1141.05 801.494 1144.63 799.481 1148.21 797.468 1152.1 796.462 1156.32 796.462ZM1187.96 788.883 1195.54 788.883 1195.54 791.193 1185.77 814.699 1182.33 813.686Z" fill-rule="evenodd"/><text fill="#000000" fill-opacity="0" font-family="Arial,Arial_MSFontService,sans-serif" font-size="64.2358" x="1127.42" y="845.089">𝑂′</text><path d="M0.573604-0.991924 297.771 170.87 296.624 172.854-0.573604 0.991924ZM300.113 157.664 317.036 183.334 286.347 181.47Z" transform="matrix(1 0 0 -1 811 949.334)"/><path d="M987.129 864.617C989.776 864.617 991.823 865.347 993.269 866.806 994.714 868.265 995.437 870.102 995.437 872.318 995.437 873.668 995.288 875.073 994.991 876.532L992.357 888.893C992.114 890.325 991.911 891.717 991.749 893.068 991.587 894.418 991.506 895.621 991.506 896.674 991.506 897.701 991.573 898.539 991.708 899.187 991.843 899.836 992.019 900.16 992.235 900.16 992.992 900.16 993.971 899.809 995.173 899.106 996.376 898.404 997.673 897.431 999.064 896.188 1000.46 894.945 1001.85 893.486 1003.24 891.811 1004.63 890.136 1005.89 888.326 1007.01 886.38 1008.13 884.435 1009.03 882.375 1009.72 880.2 1010.41 878.025 1010.76 875.83 1010.76 873.614 1010.76 872.534 1010.55 871.696 1010.13 871.102 1009.71 870.507 1009.05 870.21 1008.16 870.21 1007.16 870.21 1006.24 870.582 1005.39 871.325 1004.54 872.068 1003.66 873.06 1002.77 874.303L999.935 872.034C1001.64 869.683 1003.54 867.859 1005.63 866.563 1007.72 865.266 1010.05 864.617 1012.62 864.617 1015.16 864.617 1016.96 865.273 1018.01 866.583 1019.06 867.893 1019.59 869.643 1019.59 871.831 1019.59 873.101 1019.35 874.567 1018.86 876.228 1018.38 877.89 1017.67 879.639 1016.75 881.477 1015.84 883.314 1014.75 885.205 1013.51 887.151 1012.27 889.096 1010.89 890.98 1009.38 892.804 1007.87 894.628 1006.25 896.35 1004.54 897.971 1002.82 899.592 1001.04 901.004 999.186 902.206 997.335 903.409 995.457 904.361 993.552 905.064 991.647 905.766 989.736 906.117 987.818 906.117 986.386 906.117 985.21 905.921 984.292 905.53 983.373 905.138 982.704 904.584 982.286 903.868 981.867 903.152 981.59 902.315 981.455 901.355 981.32 900.396 981.252 899.349 981.252 898.214 981.252 896.647 981.347 894.993 981.536 893.25 981.725 891.507 981.968 889.758 982.265 888.002L984.738 876.532C984.9 875.83 985.035 875.188 985.143 874.607 985.251 874.026 985.305 873.56 985.305 873.209 985.305 872.399 985.136 871.757 984.798 871.284 984.461 870.811 983.765 870.575 982.711 870.575 981.036 870.575 978.645 871.993 975.538 874.83L973.025 871.993C974.295 870.399 976.193 868.771 978.719 867.11 981.245 865.448 984.049 864.617 987.129 864.617Z" fill-rule="evenodd"/><text fill="#000000" fill-opacity="0" font-family="Arial,Arial_MSFontService,sans-serif" font-size="41.5" x="973.025" y="900.93">𝒗</text><path d="M1038.62 886.63C1037.23 886.63 1036.07 886.992 1035.14 887.717 1034.2 888.442 1033.46 889.504 1032.92 890.904 1032.37 892.304 1031.98 894.012 1031.76 896.027 1031.53 898.043 1031.41 900.331 1031.41 902.893 1031.41 905.851 1031.56 908.408 1031.84 910.562 1032.13 912.717 1032.58 914.489 1033.19 915.879 1033.79 917.269 1034.55 918.292 1035.46 918.947 1036.38 919.602 1037.47 919.93 1038.74 919.93 1039.93 919.93 1040.97 919.622 1041.87 919.006 1042.76 918.391 1043.5 917.433 1044.09 916.132 1044.67 914.832 1045.11 913.183 1045.41 911.188 1045.71 909.192 1045.86 906.834 1045.86 904.114 1045.86 901.056 1045.7 898.425 1045.37 896.221 1045.04 894.017 1044.58 892.205 1043.98 890.785 1043.39 889.365 1042.64 888.318 1041.73 887.643 1040.83 886.968 1039.79 886.63 1038.62 886.63ZM1038.74 883.741C1041.1 883.741 1043.12 884.183 1044.8 885.066 1046.48 885.95 1047.85 887.211 1048.91 888.849 1049.97 890.487 1050.75 892.488 1051.25 894.851 1051.75 897.214 1051.99 899.884 1051.99 902.863 1051.99 909.475 1050.82 914.474 1048.48 917.86 1046.14 921.245 1042.74 922.938 1038.29 922.938 1033.89 922.938 1030.61 921.34 1028.46 918.143 1026.32 914.946 1025.25 910.101 1025.25 903.608 1025.25 900.212 1025.58 897.273 1026.25 894.791 1026.91 892.309 1027.84 890.249 1029.05 888.611 1030.25 886.973 1031.67 885.751 1033.32 884.947 1034.97 884.143 1036.77 883.741 1038.74 883.741Z" fill-rule="evenodd"/><text fill="#000000" fill-opacity="0" font-family="Arial,Arial_MSFontService,sans-serif" font-size="39.1973" x="1025.25" y="918.038">0</text><path d="M1075.17 856.714 1080.76 856.714 1078.53 866.725 1090.85 866.725 1089.96 870.818 1077.64 870.818 1074.03 886.543C1073.33 889.596 1072.88 891.791 1072.7 893.128 1072.51 894.466 1072.41 895.54 1072.41 896.35 1072.41 899.701 1073.8 901.376 1076.59 901.376 1077.77 901.376 1079.04 900.923 1080.38 900.018 1081.71 899.113 1083.3 897.566 1085.14 895.378L1087.49 897.809C1085.14 900.646 1082.87 902.74 1080.7 904.091 1078.52 905.442 1076.25 906.117 1073.87 906.117 1068.22 906.117 1065.4 903.267 1065.4 897.566 1065.4 895.756 1065.63 893.851 1066.09 891.852L1070.87 870.818 1064.06 870.818 1064.67 868.022C1066.26 867.995 1067.47 867.873 1068.3 867.657 1069.12 867.441 1069.81 867.143 1070.36 866.765 1070.92 866.387 1071.43 865.847 1071.88 865.144 1072.34 864.442 1072.79 863.543 1073.22 862.449 1073.65 861.355 1074.3 859.443 1075.17 856.714Z" fill-rule="evenodd"/><text fill="#000000" fill-opacity="0" font-family="Arial,Arial_MSFontService,sans-serif" font-size="49.4028" x="1064.06" y="899.942">𝑡</text><path d="M0.728498-0.884435 738.657 606.938 737.2 608.707-0.728498 0.884435ZM743.133 594.296 755.617 622.393 725.649 615.522Z" transform="matrix(1 0 0 -1 809 954.393)"/><path d="M1399.31 368.466C1401.55 368.466 1403.34 369.095 1404.68 370.351 1406.02 371.607 1406.69 373.262 1406.69 375.316 1406.69 376.045 1406.54 376.964 1406.24 378.071L1406.57 378.193C1408.84 375.005 1411.21 372.587 1413.7 370.939 1416.18 369.29 1418.94 368.466 1421.97 368.466 1423.75 368.466 1425.64 368.723 1427.64 369.236L1425.25 380.138 1417.99 380.138C1417.99 378.328 1417.8 377.072 1417.41 376.369 1417.02 375.667 1416.35 375.316 1415.4 375.316 1414.67 375.316 1413.87 375.572 1413.01 376.086 1412.15 376.599 1411.11 377.599 1409.91 379.085 1408.71 380.571 1407.8 381.989 1407.19 383.34 1406.59 384.691 1406.05 386.42 1405.59 388.527L1401.01 409.318 1389.38 409.318 1395.91 381.151C1396.31 379.395 1396.52 378.058 1396.52 377.139 1396.52 376.248 1396.37 375.559 1396.07 375.072 1395.77 374.586 1395.26 374.343 1394.53 374.343 1393.69 374.343 1392.79 374.721 1391.81 375.478 1390.84 376.234 1389.71 377.355 1388.41 378.841L1385.49 375.923C1388.19 373.168 1390.59 371.236 1392.69 370.128 1394.78 369.02 1396.99 368.466 1399.31 368.466Z" fill-rule="evenodd"/><text fill="#000000" fill-opacity="0" font-family="Arial,Arial_MSFontService,sans-serif" font-size="40.8516" x="1385.49" y="404.212">𝒓</text><path d="M0.788805-0.831096 425.581 402.345 424.003 404.007-0.788805 0.831096ZM430.933 390.048 441.414 418.952 412.002 409.994Z" transform="matrix(1 0 0 -1 1123 762.952)"/><path d="M1435.14 532.11C1437.38 532.11 1439.17 532.738 1440.51 533.995 1441.85 535.251 1442.52 536.906 1442.52 538.959 1442.52 539.689 1442.37 540.607 1442.07 541.715L1442.39 541.837C1444.66 538.649 1447.04 536.23 1449.53 534.582 1452.01 532.934 1454.77 532.11 1457.8 532.11 1459.58 532.11 1461.47 532.367 1463.47 532.88L1461.08 543.782 1453.82 543.782C1453.82 541.972 1453.63 540.715 1453.24 540.013 1452.84 539.311 1452.18 538.959 1451.23 538.959 1450.5 538.959 1449.7 539.216 1448.84 539.729 1447.97 540.243 1446.94 541.242 1445.74 542.728 1444.54 544.214 1443.63 545.633 1443.02 546.984 1442.41 548.335 1441.88 550.064 1441.42 552.171L1436.84 572.962 1425.21 572.962 1431.74 544.795C1432.14 543.039 1432.34 541.702 1432.34 540.783 1432.34 539.891 1432.2 539.202 1431.9 538.716 1431.6 538.23 1431.09 537.987 1430.36 537.987 1429.52 537.987 1428.62 538.365 1427.64 539.121 1426.67 539.878 1425.54 540.999 1424.24 542.485L1421.32 539.567C1424.02 536.811 1426.42 534.88 1428.51 533.772 1430.61 532.664 1432.82 532.11 1435.14 532.11Z" fill-rule="evenodd"/><text fill="#000000" fill-opacity="0" font-family="Arial,Arial_MSFontService,sans-serif" font-size="40.8516" x="1421.32" y="567.855">𝒓</text><path d="M1474.66 511.185 1482.34 511.185 1482.34 513.509 1472.43 537.366 1468.94 536.324Z" fill-rule="evenodd"/><text fill="#000000" fill-opacity="0" font-family="Arial,Arial_MSFontService,sans-serif" font-size="26.1812" x="1468.94" y="534.094">′</text></g></svg>