<svg width="503" height="204" xmlns="http://www.w3.org/2000/svg" xmlns:xlink="http://www.w3.org/1999/xlink" xml:space="preserve" overflow="hidden"><g transform="translate(-752 -826)"><path d="M806 947.854 1063.43 947.855 1063.43 950.146 806 950.146ZM1058.84 935.25 1086.34 949 1058.84 962.75Z"/><path d="M1127.11 932.421C1127.95 932.421 1128.68 932.515 1129.32 932.705 1129.95 932.894 1130.51 933.184 1131 933.576 1131.48 933.968 1131.92 934.474 1132.3 935.096 1132.67 935.717 1133.04 936.561 1133.39 937.629 1133.74 938.696 1134.07 940.02 1134.38 941.6 1134.69 943.181 1134.97 944.822 1135.21 946.524L1135.62 946.524C1138.21 942.877 1140.18 940.209 1141.52 938.52 1142.85 936.832 1143.98 935.575 1144.9 934.751 1145.82 933.927 1146.7 933.346 1147.55 933.008 1148.41 932.671 1149.53 932.502 1150.94 932.502 1152.21 932.502 1153.25 932.664 1154.06 932.988L1152.44 940.324 1149.6 940.324C1149.44 939.189 1148.97 938.622 1148.18 938.622 1147.94 938.622 1147.68 938.662 1147.41 938.743 1147.14 938.824 1146.81 939 1146.42 939.27 1146.03 939.54 1145.45 940.067 1144.7 940.851 1143.94 941.634 1143.09 942.593 1142.14 943.728 1141.2 944.863 1140.23 946.052 1139.23 947.294L1136.47 950.739C1136.96 953.333 1137.42 955.575 1137.85 957.467 1138.28 959.358 1138.67 960.932 1139 962.188 1139.34 963.445 1139.64 964.437 1139.89 965.167 1140.15 965.896 1140.43 966.444 1140.73 966.808 1141.02 967.173 1141.33 967.43 1141.64 967.578 1141.95 967.727 1142.31 967.801 1142.71 967.801 1143.44 967.801 1144.15 967.518 1144.84 966.95 1145.53 966.383 1146.52 965.099 1147.82 963.1L1150.45 964.843C1148.56 967.653 1146.85 969.632 1145.33 970.78 1143.8 971.928 1141.98 972.502 1139.87 972.502 1138.71 972.502 1137.73 972.293 1136.92 971.874 1136.11 971.455 1135.4 970.787 1134.81 969.868 1134.21 968.949 1133.69 967.518 1133.23 965.572 1132.39 962.114 1131.88 959.466 1131.69 957.629L1131.28 957.629C1128.42 961.655 1126.29 964.546 1124.9 966.302 1123.51 968.058 1122.36 969.355 1121.45 970.192 1120.55 971.03 1119.67 971.618 1118.82 971.955 1117.97 972.293 1116.84 972.462 1115.44 972.462 1114.17 972.462 1113.13 972.3 1112.32 971.976L1113.94 964.64 1116.77 964.64C1116.94 965.775 1117.41 966.342 1118.19 966.342 1118.57 966.342 1118.97 966.241 1119.39 966.038 1119.81 965.836 1120.41 965.349 1121.19 964.579 1121.97 963.809 1123.06 962.6 1124.43 960.952 1125.81 959.304 1127.81 956.832 1130.43 953.536 1130.03 951.401 1129.61 949.348 1129.17 947.375 1128.74 945.403 1128.3 943.566 1127.84 941.864 1127.38 940.162 1127 939.047 1126.7 938.52 1126.41 937.993 1126.09 937.629 1125.75 937.426 1125.41 937.223 1124.99 937.122 1124.47 937.122 1123.91 937.122 1123.39 937.25 1122.93 937.507 1122.47 937.764 1121.97 938.209 1121.43 938.844 1120.89 939.479 1120.18 940.472 1119.29 941.823L1116.65 940.081C1118.35 937.514 1119.99 935.595 1121.56 934.326 1123.12 933.056 1124.97 932.421 1127.11 932.421Z" fill-rule="evenodd"/><text fill="#000000" fill-opacity="0" font-family="Arial,Arial_MSFontService,sans-serif" font-size="40.0815" x="1112.32" y="967.492">𝑥</text><path d="M1189.57 913.859 1195.85 913.859 1166.59 989.281 1160.22 989.281Z" fill-rule="evenodd"/><text fill="#000000" fill-opacity="0" font-family="Arial,Arial_MSFontService,sans-serif" font-size="75.4214" x="1160.22" y="979.853">/</text><path d="M1226.64 937.203C1225.34 937.203 1224.06 937.615 1222.81 938.439 1221.55 939.263 1220.15 940.628 1218.61 942.532 1217.07 944.437 1215.82 946.389 1214.84 948.389 1213.87 950.388 1213.05 952.941 1212.37 956.048L1212.01 957.75C1211.6 959.642 1211.4 961.479 1211.4 963.262 1211.4 965.397 1211.86 966.937 1212.8 967.882 1213.73 968.828 1215.28 969.301 1217.44 969.301 1218.54 969.301 1219.6 969.118 1220.6 968.754 1221.6 968.389 1222.62 967.788 1223.66 966.95 1224.7 966.113 1225.68 965.012 1226.62 963.647 1227.55 962.283 1228.41 960.601 1229.19 958.602 1229.97 956.602 1230.58 954.461 1231.01 952.178 1231.45 949.895 1231.66 947.713 1231.66 945.633 1231.66 942.823 1231.26 940.715 1230.47 939.31 1229.67 937.906 1228.39 937.203 1226.64 937.203ZM1219.54 913.9 1221.9 913.9 1214.76 942.269 1215.29 942.431C1217.91 938.919 1220.37 936.379 1222.67 934.812 1224.96 933.245 1227.26 932.461 1229.55 932.461 1232.5 932.461 1234.79 933.583 1236.42 935.825 1238.06 938.068 1238.88 941.229 1238.88 945.309 1238.88 949.767 1237.98 954.15 1236.18 958.46 1234.38 962.769 1231.89 966.187 1228.7 968.713 1225.52 971.239 1221.95 972.502 1218 972.502 1214.41 972.502 1211.22 971.624 1208.44 969.868L1204.71 972.502 1202.12 971.854 1212.61 925.531C1213.24 922.775 1213.55 920.776 1213.55 919.533 1213.55 918.398 1213.2 917.601 1212.51 917.142 1211.82 916.683 1210.59 916.426 1208.8 916.372L1209.29 914.265Z" fill-rule="evenodd"/><text fill="#000000" fill-opacity="0" font-family="Arial,Arial_MSFontService,sans-serif" font-size="58.6025" x="1202.12" y="965.177">𝑏</text><path d="M775.414 863.336C777.143 863.336 778.508 863.917 779.508 865.079 780.507 866.241 781.007 867.808 781.007 869.78 781.007 871.915 780.588 874.576 779.751 877.764L777.968 884.775C777.508 886.558 777.177 887.95 776.975 888.95 776.772 889.949 776.623 890.814 776.529 891.543 776.434 892.273 776.387 892.881 776.387 893.367 776.387 895.231 776.698 896.575 777.319 897.399 777.94 898.224 778.954 898.636 780.359 898.636 781.493 898.636 782.716 898.183 784.026 897.278 785.337 896.373 786.728 895.008 788.201 893.185 789.673 891.361 790.855 889.591 791.747 887.876 792.638 886.16 793.368 884.046 793.935 881.533L797.785 863.985 804.797 863.985 798.88 889.679C798.285 892.273 797.988 894.272 797.988 895.677 797.988 896.758 798.164 897.541 798.515 898.028 798.866 898.514 799.42 898.757 800.177 898.757 800.987 898.757 801.852 898.426 802.77 897.764 803.689 897.102 804.986 895.839 806.661 893.975L808.971 896.244C806.512 898.865 804.418 900.716 802.689 901.797 800.96 902.877 799.123 903.418 797.177 903.418 795.502 903.418 794.165 902.864 793.165 901.756 792.166 900.648 791.666 899.176 791.666 897.339 791.666 895.88 791.99 894.286 792.638 892.556L792.152 892.394C789.477 896.15 786.944 898.919 784.553 900.702 782.162 902.486 779.71 903.377 777.198 903.377 774.685 903.377 772.753 902.655 771.402 901.209 770.051 899.764 769.376 897.757 769.376 895.191 769.376 893.489 769.768 891.07 770.551 887.936L773.185 877.318C773.915 874.373 774.28 872.293 774.28 871.077 774.28 869.996 774.104 869.213 773.753 868.726 773.401 868.24 772.848 867.997 772.091 867.997 771.253 867.997 770.369 868.341 769.437 869.03 768.504 869.719 767.228 870.969 765.607 872.779L763.297 870.51C765.593 868.186 767.322 866.592 768.484 865.727 769.646 864.863 770.76 864.248 771.828 863.883 772.895 863.519 774.09 863.336 775.414 863.336Z" fill-rule="evenodd"/><text fill="#000000" fill-opacity="0" font-family="Arial,Arial_MSFontService,sans-serif" font-size="40.0815" x="763.297" y="898.408">𝑢</text><path d="M828.079 881.25 829.896 881.25C829.856 882.342 829.826 883.32 829.806 884.184 829.787 885.047 829.772 885.886 829.762 886.701 829.752 887.515 829.747 888.319 829.747 889.113L829.747 911.75C829.747 912.365 829.767 912.897 829.806 913.343 829.846 913.79 829.911 914.167 830 914.475 830.089 914.783 830.209 915.046 830.357 915.264 830.506 915.483 830.68 915.672 830.879 915.83 831.117 916.069 831.435 916.252 831.832 916.381 832.229 916.51 832.735 916.62 833.351 916.709 833.966 916.798 834.706 916.868 835.57 916.918 836.434 916.967 837.471 917.002 838.682 917.022L838.682 919.613 815.063 919.613 815.063 917.022C816.234 916.982 817.227 916.937 818.041 916.888 818.855 916.838 819.55 916.769 820.126 916.679 820.702 916.59 821.164 916.491 821.511 916.381 821.859 916.272 822.162 916.138 822.42 915.979 822.698 915.801 822.936 915.607 823.135 915.398 823.333 915.19 823.492 914.927 823.611 914.609 823.73 914.292 823.825 913.904 823.894 913.448 823.964 912.991 823.998 912.425 823.998 911.75L823.998 890.394C823.998 889.619 823.849 889.073 823.552 888.756 823.254 888.438 822.827 888.279 822.271 888.279 821.655 888.279 820.742 888.597 819.531 889.232 818.319 889.868 816.751 890.811 814.825 892.062 814.566 891.605 814.328 891.148 814.11 890.692 813.891 890.235 813.663 889.768 813.425 889.292 815.887 887.942 818.324 886.596 820.737 885.256 823.149 883.916 825.597 882.58 828.079 881.25Z" fill-rule="evenodd"/><text fill="#000000" fill-opacity="0" font-family="Arial,Arial_MSFontService,sans-serif" font-size="38.3633" x="813.425" y="914.818">1</text><path d="M878.15 844.207 879.245 847.328C872.922 849.408 868.241 853.468 865.202 859.506 862.162 865.545 860.643 873.13 860.643 882.263 860.643 891.719 862.162 899.514 865.202 905.647 868.241 911.78 872.882 915.887 879.123 917.967L878.15 921.088C870.234 919.007 864.168 914.529 859.954 907.653 855.739 900.777 853.631 892.448 853.631 882.668 853.631 872.914 855.746 864.586 859.974 857.683 864.202 850.78 870.261 846.288 878.15 844.207Z" fill-rule="evenodd"/><text fill="#000000" fill-opacity="0" font-family="Arial,Arial_MSFontService,sans-serif" font-size="76.8804" x="853.631" y="911.478">(</text><path d="M896.72 863.336C897.557 863.336 898.294 863.431 898.928 863.62 899.563 863.809 900.124 864.099 900.61 864.491 901.097 864.883 901.529 865.39 901.907 866.011 902.285 866.632 902.65 867.477 903.001 868.544 903.353 869.611 903.684 870.935 903.994 872.516 904.305 874.096 904.582 875.738 904.825 877.44L905.23 877.44C907.824 873.792 909.79 871.124 911.127 869.436 912.465 867.747 913.593 866.491 914.511 865.667 915.43 864.843 916.315 864.262 917.166 863.924 918.017 863.586 919.145 863.417 920.55 863.417 921.82 863.417 922.86 863.579 923.67 863.904L922.049 871.239 919.212 871.239C919.05 870.104 918.577 869.537 917.794 869.537 917.551 869.537 917.294 869.577 917.024 869.659 916.754 869.74 916.423 869.915 916.031 870.185 915.639 870.456 915.065 870.982 914.309 871.766 913.552 872.549 912.701 873.509 911.755 874.643 910.81 875.778 909.837 876.967 908.837 878.21L906.082 881.655C906.568 884.248 907.027 886.491 907.459 888.382 907.892 890.273 908.277 891.847 908.615 893.104 908.952 894.36 909.249 895.353 909.506 896.082 909.763 896.812 910.04 897.359 910.337 897.724 910.634 898.088 910.938 898.345 911.249 898.494 911.56 898.642 911.917 898.717 912.323 898.717 913.052 898.717 913.761 898.433 914.45 897.866 915.139 897.298 916.132 896.015 917.429 894.015L920.063 895.758C918.172 898.568 916.463 900.547 914.937 901.695 913.41 902.844 911.593 903.418 909.486 903.418 908.324 903.418 907.338 903.208 906.527 902.79 905.717 902.371 905.014 901.702 904.42 900.784 903.826 899.865 903.299 898.433 902.839 896.488 902.002 893.029 901.488 890.381 901.299 888.544L900.894 888.544C898.03 892.57 895.902 895.461 894.511 897.217 893.12 898.973 891.971 900.27 891.066 901.108 890.161 901.945 889.283 902.533 888.432 902.871 887.581 903.208 886.453 903.377 885.048 903.377 883.778 903.377 882.738 903.215 881.927 902.891L883.548 895.555 886.385 895.555C886.547 896.69 887.02 897.258 887.804 897.258 888.182 897.258 888.581 897.156 888.999 896.954 889.418 896.751 890.019 896.265 890.803 895.495 891.586 894.725 892.667 893.516 894.045 891.867 895.423 890.219 897.422 887.747 900.043 884.451 899.638 882.317 899.219 880.263 898.787 878.291 898.354 876.318 897.909 874.481 897.449 872.779 896.99 871.077 896.612 869.962 896.314 869.436 896.017 868.909 895.7 868.544 895.362 868.341 895.024 868.139 894.599 868.037 894.085 868.037 893.518 868.037 893.005 868.166 892.545 868.422 892.086 868.679 891.586 869.125 891.046 869.76 890.506 870.395 889.79 871.388 888.898 872.739L886.264 870.996C887.966 868.429 889.6 866.511 891.167 865.241 892.735 863.971 894.585 863.336 896.72 863.336Z" fill-rule="evenodd"/><text fill="#000000" fill-opacity="0" font-family="Arial,Arial_MSFontService,sans-serif" font-size="40.0815" x="881.927" y="898.408">𝑥</text><path d="M932.755 893.367 939.847 893.367C940.225 895.258 940.414 897.123 940.414 898.96 940.414 900.851 940.09 902.58 939.442 904.147 938.793 905.714 937.76 907.275 936.341 908.828 934.923 910.382 932.971 912.091 930.485 913.955L928.297 911.483C929.675 910.186 930.674 909.017 931.296 907.977 931.917 906.937 932.363 905.755 932.633 904.431 932.903 903.107 933.038 901.445 933.038 899.446 933.038 897.393 932.944 895.366 932.755 893.367Z" fill-rule="evenodd"/><text fill="#000000" fill-opacity="0" font-family="Arial,Arial_MSFontService,sans-serif" font-size="20.5879" x="928.297" y="911.381">,</text><path d="M971.635 863.377C972.743 863.377 973.689 863.525 974.472 863.823 975.013 864.039 975.553 864.397 976.094 864.897 976.634 865.396 977.113 866.092 977.532 866.984 977.951 867.875 978.316 868.875 978.626 869.983 978.937 871.09 979.282 872.685 979.66 874.765 980.308 878.25 980.937 881.918 981.544 885.768 982.152 889.618 982.672 893.191 983.105 896.488 985.726 892.705 987.948 889.004 989.771 885.383 991.595 881.763 992.906 878.615 993.703 875.94 994.5 873.265 994.898 871.09 994.898 869.415 994.898 868.146 994.628 867.281 994.088 866.822 993.547 866.362 992.629 866.092 991.332 866.011L991.737 864.025 1002.4 864.025 1003.49 866.052C1001.44 871.671 998.654 877.683 995.141 884.086 991.683 890.354 987.725 896.596 983.267 902.81 978.998 908.727 975.445 913.009 972.608 915.657 970.636 917.467 968.731 918.764 966.894 919.548 965.435 920.142 963.881 920.439 962.233 920.439 961.666 920.439 961.011 920.392 960.268 920.297 959.525 920.203 958.95 920.075 958.545 919.912L960.288 912.05 963.49 912.05C963.49 913.779 964.084 914.644 965.273 914.644 966.84 914.644 968.664 913.664 970.744 911.706 972.824 909.747 975.269 906.795 978.079 902.85 977.296 898.122 976.229 892.421 974.878 885.748 973.446 878.615 972.5 874.198 972.041 872.495 971.473 870.442 970.879 869.132 970.258 868.564 969.879 868.213 969.406 868.037 968.839 868.037 967.975 868.037 967.164 868.389 966.407 869.091 965.651 869.794 964.719 871.009 963.611 872.739L960.977 870.996C962.841 868.213 964.584 866.247 966.205 865.099 967.826 863.951 969.636 863.377 971.635 863.377Z" fill-rule="evenodd"/><text fill="#000000" fill-opacity="0" font-family="Arial,Arial_MSFontService,sans-serif" font-size="57.0625" x="958.545" y="913.306">𝑦</text><path d="M1008.72 844.207C1016.61 846.288 1022.67 850.78 1026.9 857.683 1031.13 864.586 1033.24 872.914 1033.24 882.668 1033.24 892.448 1031.13 900.777 1026.92 907.653 1022.7 914.529 1016.64 919.007 1008.72 921.088L1007.75 917.967C1013.99 915.887 1018.63 911.78 1021.67 905.647 1024.71 899.514 1026.23 891.719 1026.23 882.263 1026.23 873.13 1024.72 865.545 1021.69 859.506 1018.67 853.468 1013.98 849.408 1007.63 847.328Z" fill-rule="evenodd"/><text fill="#000000" fill-opacity="0" font-family="Arial,Arial_MSFontService,sans-serif" font-size="76.8804" x="1007.63" y="911.478">)</text><path d="M831.5 949.5C831.5 941.216 838.216 934.5 846.5 934.5 854.784 934.5 861.5 941.216 861.5 949.5 861.5 957.784 854.784 964.5 846.5 964.5 838.216 964.5 831.5 957.784 831.5 949.5Z" stroke="#000000" stroke-width="4.58333" stroke-miterlimit="8" fill="none" fill-rule="evenodd"/><path d="M885.5 949.5C885.5 941.216 892.44 934.5 901 934.5 909.56 934.5 916.5 941.216 916.5 949.5 916.5 957.784 909.56 964.5 901 964.5 892.44 964.5 885.5 957.784 885.5 949.5Z" stroke="#000000" stroke-width="4.58333" stroke-miterlimit="8" fill="none" fill-rule="evenodd"/><path d="M941.5 948.5C941.5 940.216 948.216 933.5 956.5 933.5 964.784 933.5 971.5 940.216 971.5 948.5 971.5 956.784 964.784 963.5 956.5 963.5 948.216 963.5 941.5 956.784 941.5 948.5Z" stroke="#000000" stroke-width="4.58333" stroke-miterlimit="8" fill="none" fill-rule="evenodd"/><path d="M1000.5 948.5C1000.5 940.216 1007.22 933.5 1015.5 933.5 1023.78 933.5 1030.5 940.216 1030.5 948.5 1030.5 956.784 1023.78 963.5 1015.5 963.5 1007.22 963.5 1000.5 956.784 1000.5 948.5Z" stroke="#000000" stroke-width="4.58333" stroke-miterlimit="8" fill="none" fill-rule="evenodd"/><path d="M835.871 980.135C834.636 980.135 833.602 980.502 832.769 981.236 831.937 981.97 831.266 983.027 830.755 984.405 830.245 985.784 829.882 987.462 829.668 989.441 829.453 991.419 829.345 993.653 829.345 996.141 829.345 1001.98 829.887 1006.26 830.97 1008.99 832.053 1011.72 833.732 1013.09 836.005 1013.09 838.172 1013.09 839.779 1011.8 840.826 1009.23 841.873 1006.66 842.397 1002.68 842.397 997.296 842.397 993.178 842.129 989.844 841.591 987.292 841.054 984.741 840.307 982.91 839.349 981.8 838.391 980.69 837.232 980.135 835.871 980.135ZM836.005 977.853C839.926 977.853 842.845 979.365 844.76 982.391 846.676 985.417 847.634 989.991 847.634 996.114 847.634 1002.45 846.609 1007.25 844.559 1010.5 842.509 1013.74 839.515 1015.37 835.576 1015.37 831.709 1015.37 828.831 1013.85 826.942 1010.8 825.053 1007.76 824.109 1003.14 824.109 996.947 824.109 993.653 824.399 990.806 824.981 988.407 825.563 986.008 826.378 984.025 827.425 982.458 828.473 980.892 829.73 979.732 831.198 978.98 832.666 978.229 834.269 977.853 836.005 977.853Z" fill-rule="evenodd"/><text fill="#000000" fill-opacity="0" font-family="Arial,Arial_MSFontService,sans-serif" font-size="37.5171" x="824.109" y="1010.68">0</text><path d="M904.451 977.853 905.928 977.853C905.821 979.571 905.767 981.952 905.767 984.996L905.767 1007.93C905.767 1008.97 905.825 1009.75 905.942 1010.28 906.058 1010.81 906.264 1011.24 906.559 1011.57 906.855 1011.9 907.28 1012.16 907.835 1012.35 908.39 1012.54 909.088 1012.68 909.93 1012.78 910.771 1012.88 911.881 1012.94 913.26 1012.98L913.26 1014.94 893.414 1014.94 893.414 1012.98C895.401 1012.89 896.82 1012.77 897.67 1012.62 898.521 1012.46 899.17 1012.24 899.617 1011.93 900.065 1011.63 900.391 1011.2 900.597 1010.64 900.803 1010.09 900.906 1009.18 900.906 1007.93L900.906 986.151C900.906 985.435 900.781 984.911 900.53 984.58 900.28 984.249 899.913 984.083 899.429 984.083 898.856 984.083 898.042 984.378 896.985 984.969 895.929 985.56 894.622 986.375 893.064 987.413L891.883 985.345Z" fill-rule="evenodd"/><text fill="#000000" fill-opacity="0" font-family="Arial,Arial_MSFontService,sans-serif" font-size="37.0874" x="891.883" y="1010.3">1</text><path d="M959.639 1008.71 965.064 1008.71 965.064 1014.94 959.639 1014.94ZM946.48 1008.71 951.905 1008.71 951.905 1014.94 946.48 1014.94ZM933.321 1008.71 938.746 1008.71 938.746 1014.94 933.321 1014.94Z" fill-rule="evenodd"/><text fill="#000000" fill-opacity="0" font-family="Arial,Arial_MSFontService,sans-serif" font-size="6.23047" x="933.321" y="1014.16">…</text><path d="M985.564 978.282 994.13 978.282 1001.22 999.203C1002.24 1002.21 1003.03 1004.75 1003.58 1006.83L1003.88 1006.83C1004.02 1005.74 1004.35 1003.92 1004.86 1001.38 1005.37 998.836 1005.84 996.616 1006.27 994.718L1008.15 986.258C1008.54 984.486 1008.74 983.045 1008.74 981.935 1008.74 981.093 1008.53 980.507 1008.11 980.176 1007.69 979.844 1007.02 979.652 1006.11 979.598L1006.4 978.282 1015.8 978.282 1015.51 979.598C1014.83 979.741 1014.34 979.903 1014.04 980.082 1013.75 980.261 1013.48 980.529 1013.25 980.887 1013.02 981.245 1012.78 981.805 1012.53 982.566 1012.28 983.327 1011.96 984.566 1011.59 986.285L1005.28 1014.94 1001.62 1014.94 993.781 991.898C992.832 989.141 992 986.393 991.284 983.653L990.935 983.653C990.827 984.566 990.532 986.308 990.048 988.877 989.565 991.446 989.055 993.957 988.518 996.41L986.154 1007.12C985.778 1008.83 985.59 1010.22 985.59 1011.31 985.59 1012.12 985.792 1012.69 986.195 1013.02 986.598 1013.35 987.273 1013.55 988.222 1013.62L987.927 1014.94 978.527 1014.94 978.823 1013.62C979.503 1013.52 980.013 1013.34 980.354 1013.1 980.694 1012.86 980.98 1012.52 981.213 1012.09 981.446 1011.66 981.661 1011.14 981.858 1010.52 982.055 1009.9 982.35 1008.71 982.744 1006.94L987.309 986.258C987.488 985.488 987.631 984.754 987.739 984.056 987.846 983.358 987.9 982.651 987.9 981.935 987.9 981.093 987.69 980.507 987.269 980.176 986.848 979.844 986.181 979.652 985.268 979.598Z" fill-rule="evenodd"/><text fill="#000000" fill-opacity="0" font-family="Arial,Arial_MSFontService,sans-serif" font-size="36.6577" x="978.527" y="1010.36">𝑁</text><path d="M1034.72 997.43 1067.81 997.43 1067.81 1001 1034.72 1001Z" fill-rule="evenodd"/><text fill="#000000" fill-opacity="0" font-family="Arial,Arial_MSFontService,sans-serif" font-size="3.57178" x="1034.72" y="1000.56">−</text><path d="M1101.53 977.853 1103.01 977.853C1102.9 979.571 1102.85 981.952 1102.85 984.996L1102.85 1007.93C1102.85 1008.97 1102.91 1009.75 1103.02 1010.28 1103.14 1010.81 1103.35 1011.24 1103.64 1011.57 1103.94 1011.9 1104.36 1012.16 1104.92 1012.35 1105.47 1012.54 1106.17 1012.68 1107.01 1012.78 1107.85 1012.88 1108.96 1012.94 1110.34 1012.98L1110.34 1014.94 1090.5 1014.94 1090.5 1012.98C1092.48 1012.89 1093.9 1012.77 1094.75 1012.62 1095.6 1012.46 1096.25 1012.24 1096.7 1011.93 1097.15 1011.63 1097.47 1011.2 1097.68 1010.64 1097.89 1010.09 1097.99 1009.18 1097.99 1007.93L1097.99 986.151C1097.99 985.435 1097.86 984.911 1097.61 984.58 1097.36 984.249 1097 984.083 1096.51 984.083 1095.94 984.083 1095.12 984.378 1094.07 984.969 1093.01 985.56 1091.71 986.375 1090.15 987.413L1088.97 985.345Z" fill-rule="evenodd"/><text fill="#000000" fill-opacity="0" font-family="Arial,Arial_MSFontService,sans-serif" font-size="37.0874" x="1088.97" y="1010.3">1</text></g></svg>