<svg width="778" height="657" xmlns="http://www.w3.org/2000/svg" xmlns:xlink="http://www.w3.org/1999/xlink" xml:space="preserve" overflow="hidden"><g transform="translate(-3072 -720)"><path d="M1.14583-1.61986e-06 1.14616 232.367-1.1455 232.367-1.14583 1.61986e-06ZM13.7503 227.783 0.000360892 255.283-13.7497 227.783Z" transform="matrix(1 0 0 -1 3213 1097.28)"/><path d="M3211 1095.85 3496.46 1095.85 3496.46 1098.15 3211 1098.15ZM3491.88 1083.25 3519.38 1097 3491.88 1110.75Z"/><path d="M3088.5 1093C3088.5 1023.14 3144.91 966.5 3214.5 966.5 3284.09 966.5 3340.5 1023.14 3340.5 1093 3340.5 1162.86 3284.09 1219.5 3214.5 1219.5 3144.91 1219.5 3088.5 1162.86 3088.5 1093Z" stroke="#172C51" stroke-width="4.58333" stroke-miterlimit="8" fill="none" fill-rule="evenodd"/><path d="M3552.47 1093.88 3554.82 1093.88 3546.87 1129.26 3548.17 1129.26C3550.2 1129.26 3552.47 1128.38 3555 1126.61 3557.53 1124.84 3559.55 1123.2 3561.06 1121.68 3562.57 1120.17 3563.33 1118.71 3563.33 1117.31 3563.33 1115.98 3562.41 1115.24 3560.57 1115.08L3561.02 1113.09 3574.15 1113.09 3574.92 1115.08C3572.68 1117.1 3570.3 1119.09 3567.79 1121.03L3557.74 1128.82 3561.71 1143.45C3562.03 1144.69 3562.32 1145.59 3562.58 1146.14 3562.83 1146.7 3563.13 1147.11 3563.47 1147.38 3563.81 1147.65 3564.26 1147.78 3564.83 1147.78 3565.53 1147.78 3566.37 1147.4 3567.34 1146.65 3568.31 1145.89 3569.42 1144.8 3570.66 1143.37L3572.97 1145.63C3570.54 1148.2 3568.53 1149.98 3566.94 1150.98 3565.34 1151.98 3563.8 1152.48 3562.31 1152.48 3560.48 1152.48 3559.02 1151.96 3557.94 1150.92 3556.86 1149.88 3556.01 1148.15 3555.38 1145.72L3552.71 1135.18C3552.44 1134.12 3552.17 1133.4 3551.9 1132.99 3551.63 1132.58 3551.32 1132.31 3550.97 1132.18 3550.62 1132.04 3549.99 1131.98 3549.1 1131.98L3546.31 1131.98 3542.09 1151.84 3535.08 1151.84 3545.5 1105.51C3545.85 1103.95 3546.1 1102.72 3546.25 1101.84 3546.39 1100.97 3546.47 1100.19 3546.47 1099.51 3546.47 1098.38 3546.12 1097.58 3545.44 1097.12 3544.75 1096.66 3543.51 1096.41 3541.73 1096.35L3542.21 1094.25Z" fill-rule="evenodd"/><text fill="#000000" fill-opacity="0" font-family="Arial,Arial_MSFontService,sans-serif" font-size="58.6025" x="3535.08" y="1145.16">ğ‘˜</text><path d="M3589.84 1138.27C3590.93 1138.27 3591.82 1138.51 3592.52 1138.98 3593.21 1139.46 3593.79 1140.15 3594.25 1141.07 3594.7 1141.98 3595.08 1143.11 3595.38 1144.45 3595.68 1145.79 3595.99 1147.32 3596.33 1149.05L3596.72 1149.05C3597.91 1147.48 3598.94 1146.12 3599.82 1144.97 3600.69 1143.82 3601.47 1142.85 3602.15 1142.05 3602.84 1141.26 3603.45 1140.61 3604 1140.12 3604.55 1139.62 3605.08 1139.24 3605.59 1138.97 3606.11 1138.7 3606.64 1138.52 3607.19 1138.42 3607.73 1138.32 3608.34 1138.27 3609.02 1138.27 3610.01 1138.27 3610.92 1138.45 3611.73 1138.8L3610.24 1144.67 3607.77 1144.67C3607.71 1143.82 3607.39 1143.39 3606.81 1143.39 3606.6 1143.39 3606.36 1143.43 3606.1 1143.51 3605.84 1143.59 3605.53 1143.75 3605.18 1143.99 3604.82 1144.23 3604.41 1144.56 3603.94 1144.98 3603.47 1145.41 3602.92 1145.97 3602.29 1146.65 3601.65 1147.34 3600.93 1148.18 3600.11 1149.17 3599.3 1150.16 3598.37 1151.33 3597.31 1152.68 3597.85 1155.42 3598.31 1157.62 3598.7 1159.27 3599.09 1160.92 3599.46 1162.18 3599.82 1163.05 3600.17 1163.92 3600.53 1164.49 3600.89 1164.76 3601.24 1165.03 3601.65 1165.16 3602.11 1165.16 3602.45 1165.16 3602.76 1165.12 3603.05 1165.05 3603.33 1164.97 3603.63 1164.79 3603.94 1164.52 3604.25 1164.26 3604.59 1163.87 3604.97 1163.36 3605.35 1162.86 3605.79 1162.19 3606.31 1161.35L3608.54 1162.81C3607.67 1164.12 3606.89 1165.19 3606.22 1166.03 3605.54 1166.86 3604.89 1167.52 3604.25 1167.99 3603.62 1168.47 3602.96 1168.79 3602.29 1168.96 3601.61 1169.13 3600.84 1169.22 3599.96 1169.22 3599.21 1169.22 3598.53 1169.11 3597.94 1168.9 3597.34 1168.69 3596.83 1168.31 3596.39 1167.76 3596.09 1167.42 3595.81 1166.97 3595.56 1166.4 3595.3 1165.83 3595.06 1165.22 3594.84 1164.57 3594.62 1163.91 3594.42 1163.23 3594.25 1162.53 3594.07 1161.82 3593.92 1161.16 3593.8 1160.55 3593.68 1159.93 3593.59 1159.38 3593.52 1158.89 3593.45 1158.41 3593.4 1158.05 3593.38 1157.81L3593.05 1157.81C3591.86 1159.4 3590.82 1160.78 3589.94 1161.96 3589.06 1163.14 3588.26 1164.16 3587.54 1165 3586.83 1165.84 3586.18 1166.54 3585.61 1167.09 3585.03 1167.63 3584.47 1168.06 3583.91 1168.38 3583.35 1168.7 3582.78 1168.92 3582.2 1169.04 3581.61 1169.16 3580.96 1169.22 3580.25 1169.22 3579.21 1169.22 3578.33 1169.04 3577.6 1168.68L3578.97 1162.87 3581.5 1162.87C3581.56 1163.74 3581.88 1164.18 3582.48 1164.18 3582.7 1164.16 3582.91 1164.12 3583.12 1164.06 3583.33 1164 3583.57 1163.88 3583.85 1163.69 3584.13 1163.5 3584.48 1163.2 3584.91 1162.8 3585.33 1162.39 3585.88 1161.82 3586.53 1161.1 3587.19 1160.37 3587.99 1159.47 3588.94 1158.37 3589.9 1157.28 3591.04 1155.93 3592.37 1154.32 3592.01 1152.65 3591.7 1151.21 3591.43 1149.97 3591.16 1148.74 3590.91 1147.69 3590.69 1146.8 3590.46 1145.92 3590.23 1145.2 3590.02 1144.64 3589.8 1144.09 3589.57 1143.64 3589.35 1143.32 3589.12 1142.99 3588.87 1142.76 3588.6 1142.62 3588.33 1142.48 3588.02 1142.4 3587.66 1142.38 3587.33 1142.38 3587.01 1142.43 3586.72 1142.54 3586.44 1142.65 3586.14 1142.85 3585.83 1143.12 3585.52 1143.4 3585.19 1143.79 3584.82 1144.29 3584.45 1144.78 3584.03 1145.43 3583.55 1146.22L3581.26 1144.73C3582.07 1143.52 3582.81 1142.5 3583.46 1141.66 3584.12 1140.83 3584.76 1140.16 3585.4 1139.67 3586.03 1139.17 3586.7 1138.81 3587.41 1138.6 3588.11 1138.38 3588.92 1138.27 3589.84 1138.27Z" fill-rule="evenodd"/><text fill="#000000" fill-opacity="0" font-family="Arial,Arial_MSFontService,sans-serif" font-size="30.9468" x="3577.6" y="1165.35">ğ‘¥</text><path d="M3227.2 739.874 3229.55 739.874 3221.6 775.254 3222.9 775.254C3224.93 775.254 3227.2 774.369 3229.73 772.6 3232.26 770.83 3234.28 769.189 3235.79 767.676 3237.3 766.163 3238.06 764.704 3238.06 763.299 3238.06 761.975 3237.14 761.232 3235.3 761.07L3235.75 759.084 3248.88 759.084 3249.65 761.07C3247.41 763.096 3245.03 765.082 3242.52 767.027L3232.47 774.808 3236.44 789.439C3236.76 790.682 3237.05 791.58 3237.31 792.134 3237.56 792.688 3237.86 793.1 3238.2 793.37 3238.54 793.64 3238.99 793.775 3239.56 793.775 3240.26 793.775 3241.1 793.397 3242.07 792.641 3243.04 791.884 3244.15 790.79 3245.39 789.358L3247.7 791.627C3245.27 794.194 3243.26 795.977 3241.66 796.977 3240.07 797.977 3238.53 798.476 3237.04 798.476 3235.21 798.476 3233.75 797.956 3232.67 796.916 3231.59 795.876 3230.74 794.14 3230.11 791.708L3227.44 781.171C3227.17 780.118 3226.9 779.388 3226.63 778.983 3226.36 778.578 3226.05 778.307 3225.7 778.172 3225.35 778.037 3224.72 777.97 3223.83 777.97L3221.04 777.97 3216.82 797.828 3209.81 797.828 3220.23 751.505C3220.58 749.938 3220.83 748.716 3220.98 747.838 3221.12 746.959 3221.2 746.183 3221.2 745.507 3221.2 744.372 3220.85 743.575 3220.17 743.116 3219.48 742.657 3218.24 742.4 3216.46 742.346L3216.94 740.239Z" fill-rule="evenodd"/><text fill="#000000" fill-opacity="0" font-family="Arial,Arial_MSFontService,sans-serif" font-size="58.6025" x="3209.81" y="791.151">ğ‘˜</text><path d="M3262.99 784.261C3263.7 784.261 3264.32 784.336 3264.83 784.484 3265.35 784.633 3265.82 784.867 3266.23 785.184 3266.65 785.502 3267.02 785.914 3267.35 786.421 3267.68 786.927 3268.01 787.537 3268.35 788.252 3268.53 788.689 3268.72 789.315 3268.92 790.129 3269.11 790.943 3269.32 791.886 3269.54 792.958 3269.76 794.031 3269.98 795.212 3270.2 796.503 3270.41 797.794 3270.63 799.144 3270.85 800.554 3271.07 801.963 3271.28 803.408 3271.48 804.887 3271.68 806.367 3271.86 807.821 3272.04 809.251 3273.53 807.305 3274.87 805.334 3276.06 803.339 3277.26 801.343 3278.26 799.456 3279.09 797.679 3279.91 795.902 3280.54 794.284 3280.98 792.824 3281.42 791.365 3281.62 790.198 3281.6 789.325 3281.6 788.451 3281.38 787.825 3280.92 787.448 3280.46 787.071 3279.7 786.852 3278.63 786.793L3279.01 784.887 3287.5 784.887 3288.54 786.614C3286.56 791.519 3284.24 796.25 3281.59 800.807 3278.94 805.364 3275.94 809.787 3272.61 814.076 3271.16 815.804 3269.85 817.293 3268.69 818.544 3267.53 819.795 3266.46 820.872 3265.48 821.776 3264.49 822.679 3263.58 823.419 3262.73 823.995 3261.89 824.57 3261.07 825.032 3260.28 825.38 3259.48 825.727 3258.69 825.975 3257.91 826.124 3257.13 826.273 3256.31 826.367 3255.45 826.407 3255 826.407 3254.44 826.357 3253.8 826.258 3253.15 826.159 3252.58 826.03 3252.09 825.871L3253.58 819.348 3256.29 819.348 3256.29 819.527C3256.29 820.877 3256.83 821.552 3257.92 821.552 3259.37 821.552 3260.84 820.991 3262.33 819.869 3263.82 818.747 3265.62 816.955 3267.72 814.493 3267.07 810.72 3266.49 807.459 3266 804.709 3265.5 801.958 3265.05 799.615 3264.64 797.679 3264.23 795.743 3263.86 794.17 3263.52 792.958 3263.19 791.747 3262.86 790.804 3262.54 790.129 3262.22 789.454 3261.9 788.992 3261.57 788.744 3261.25 788.496 3260.89 788.371 3260.52 788.371 3260.16 788.371 3259.83 788.416 3259.53 788.505 3259.24 788.595 3258.93 788.779 3258.61 789.057 3258.29 789.335 3257.95 789.727 3257.58 790.233 3257.21 790.739 3256.76 791.4 3256.23 792.214L3253.93 790.724C3254.79 789.474 3255.57 788.431 3256.29 787.597 3257 786.763 3257.71 786.103 3258.42 785.616 3259.12 785.13 3259.84 784.782 3260.58 784.574 3261.31 784.365 3262.11 784.261 3262.99 784.261Z" fill-rule="evenodd"/><text fill="#000000" fill-opacity="0" font-family="Arial,Arial_MSFontService,sans-serif" font-size="42.146" x="3252.09" y="821.139">ğ‘¦</text><text font-family="Arial,Arial_MSFontService,sans-serif" font-weight="400" font-size="83" transform="matrix(1 0 0 1 3364.7 1006)">propagating</text><text font-family="Arial,Arial_MSFontService,sans-serif" font-weight="400" font-size="83" transform="matrix(1 0 0 1 3121.95 1308)">evanescent</text><path d="M0.71618-0.894439 15.0272 10.5644 13.5948 12.3533-0.71618 0.894439ZM20.3938 14.8615 34.7048 26.3204 33.2725 28.1093 18.9615 16.6504ZM40.0715 30.6175 54.3825 42.0763 52.9501 43.8652 38.6391 32.4063ZM59.7491 46.3734 63.851 49.6578 62.4186 51.4467 58.3168 48.1623ZM68.1512 36.9542 81.0236 64.8758 50.9629 58.4208Z" transform="matrix(-1 0 0 1 3346.02 1002)"/></g></svg>