<svg width="504" height="442" xmlns="http://www.w3.org/2000/svg" xmlns:xlink="http://www.w3.org/1999/xlink" xml:space="preserve" overflow="hidden"><g transform="translate(-1676 -643)"><path d="M1730 1002.85 1987.43 1002.85 1987.43 1005.15 1730 1005.15ZM1982.84 990.25 2010.34 1004 1982.84 1017.75Z"/><path d="M2051.6 987.421C2052.43 987.421 2053.17 987.515 2053.8 987.704 2054.44 987.894 2055 988.184 2055.49 988.576 2055.97 988.968 2056.4 989.474 2056.78 990.096 2057.16 990.717 2057.53 991.561 2057.88 992.629 2058.23 993.696 2058.56 995.02 2058.87 996.6 2059.18 998.181 2059.46 999.822 2059.7 1001.52L2060.11 1001.52C2062.7 997.877 2064.67 995.209 2066 993.52 2067.34 991.831 2068.47 990.575 2069.39 989.751 2070.31 988.927 2071.19 988.346 2072.04 988.008 2072.89 987.671 2074.02 987.502 2075.43 987.502 2076.7 987.502 2077.74 987.664 2078.55 987.988L2076.92 995.324 2074.09 995.324C2073.93 994.189 2073.45 993.621 2072.67 993.621 2072.43 993.621 2072.17 993.662 2071.9 993.743 2071.63 993.824 2071.3 994 2070.91 994.27 2070.51 994.54 2069.94 995.067 2069.18 995.85 2068.43 996.634 2067.58 997.593 2066.63 998.728 2065.69 999.863 2064.71 1001.05 2063.71 1002.29L2060.96 1005.74C2061.44 1008.33 2061.9 1010.58 2062.33 1012.47 2062.77 1014.36 2063.15 1015.93 2063.49 1017.19 2063.83 1018.44 2064.12 1019.44 2064.38 1020.17 2064.64 1020.9 2064.92 1021.44 2065.21 1021.81 2065.51 1022.17 2065.81 1022.43 2066.12 1022.58 2066.44 1022.73 2066.79 1022.8 2067.2 1022.8 2067.93 1022.8 2068.64 1022.52 2069.33 1021.95 2070.01 1021.38 2071.01 1020.1 2072.3 1018.1L2074.94 1019.84C2073.05 1022.65 2071.34 1024.63 2069.81 1025.78 2068.29 1026.93 2066.47 1027.5 2064.36 1027.5 2063.2 1027.5 2062.21 1027.29 2061.4 1026.87 2060.59 1026.46 2059.89 1025.79 2059.3 1024.87 2058.7 1023.95 2058.17 1022.52 2057.71 1020.57 2056.88 1017.11 2056.36 1014.47 2056.17 1012.63L2055.77 1012.63C2052.91 1016.65 2050.78 1019.55 2049.39 1021.3 2047.99 1023.06 2046.85 1024.35 2045.94 1025.19 2045.04 1026.03 2044.16 1026.62 2043.31 1026.96 2042.46 1027.29 2041.33 1027.46 2039.92 1027.46 2038.65 1027.46 2037.61 1027.3 2036.8 1026.98L2038.42 1019.64 2041.26 1019.64C2041.42 1020.77 2041.9 1021.34 2042.68 1021.34 2043.06 1021.34 2043.46 1021.24 2043.87 1021.04 2044.29 1020.84 2044.89 1020.35 2045.68 1019.58 2046.46 1018.81 2047.54 1017.6 2048.92 1015.95 2050.3 1014.3 2052.3 1011.83 2054.92 1008.54 2054.51 1006.4 2054.09 1004.35 2053.66 1002.38 2053.23 1000.4 2052.78 998.566 2052.32 996.864 2051.87 995.161 2051.49 994.047 2051.19 993.52 2050.89 992.993 2050.58 992.629 2050.24 992.426 2049.9 992.223 2049.47 992.122 2048.96 992.122 2048.39 992.122 2047.88 992.25 2047.42 992.507 2046.96 992.764 2046.46 993.209 2045.92 993.844 2045.38 994.479 2044.67 995.472 2043.77 996.823L2041.14 995.08C2042.84 992.514 2044.48 990.595 2046.04 989.326 2047.61 988.056 2049.46 987.421 2051.6 987.421Z" fill-rule="evenodd"/><text fill="#000000" fill-opacity="0" font-family="Arial,Arial_MSFontService,sans-serif" font-size="40.0815" x="2036.8" y="1022.49">𝑥</text><path d="M2114.05 968.859 2120.34 968.859 2091.07 1044.28 2084.71 1044.28Z" fill-rule="evenodd"/><text fill="#000000" fill-opacity="0" font-family="Arial,Arial_MSFontService,sans-serif" font-size="75.4214" x="2084.71" y="1034.85">/</text><path d="M2151.12 992.203C2149.83 992.203 2148.55 992.615 2147.29 993.439 2146.04 994.263 2144.64 995.628 2143.1 997.532 2141.56 999.437 2140.3 1001.39 2139.33 1003.39 2138.36 1005.39 2137.53 1007.94 2136.86 1011.05L2136.49 1012.75C2136.09 1014.64 2135.89 1016.48 2135.89 1018.26 2135.89 1020.4 2136.35 1021.94 2137.28 1022.88 2138.22 1023.83 2139.76 1024.3 2141.92 1024.3 2143.03 1024.3 2144.09 1024.12 2145.09 1023.75 2146.09 1023.39 2147.1 1022.79 2148.15 1021.95 2149.19 1021.11 2150.17 1020.01 2151.1 1018.65 2152.04 1017.28 2152.89 1015.6 2153.68 1013.6 2154.46 1011.6 2155.07 1009.46 2155.5 1007.18 2155.93 1004.89 2156.15 1002.71 2156.15 1000.63 2156.15 997.823 2155.75 995.715 2154.95 994.31 2154.16 992.905 2152.88 992.203 2151.12 992.203ZM2144.03 968.9 2146.38 968.9 2139.25 997.269 2139.78 997.431C2142.4 993.919 2144.86 991.379 2147.15 989.812 2149.45 988.245 2151.75 987.461 2154.04 987.461 2156.99 987.461 2159.28 988.583 2160.91 990.825 2162.55 993.068 2163.36 996.229 2163.36 1000.31 2163.36 1004.77 2162.46 1009.15 2160.67 1013.46 2158.87 1017.77 2156.38 1021.19 2153.19 1023.71 2150 1026.24 2146.44 1027.5 2142.49 1027.5 2138.9 1027.5 2135.71 1026.62 2132.93 1024.87L2129.2 1027.5 2126.6 1026.85 2137.1 980.531C2137.72 977.775 2138.03 975.776 2138.03 974.533 2138.03 973.398 2137.69 972.601 2137 972.142 2136.31 971.683 2135.08 971.426 2133.29 971.372L2133.78 969.265Z" fill-rule="evenodd"/><text fill="#000000" fill-opacity="0" font-family="Arial,Arial_MSFontService,sans-serif" font-size="58.6025" x="2126.6" y="1020.18">𝑏</text><path d="M1699.9 680.161C1701.63 680.161 1703 680.742 1703.99 681.904 1704.99 683.065 1705.49 684.633 1705.49 686.605 1705.49 688.739 1705.08 691.401 1704.24 694.589L1702.45 701.6C1702 703.383 1701.66 704.775 1701.46 705.774 1701.26 706.774 1701.11 707.639 1701.02 708.368 1700.92 709.098 1700.87 709.705 1700.87 710.192 1700.87 712.056 1701.18 713.4 1701.81 714.224 1702.43 715.048 1703.44 715.46 1704.85 715.46 1705.98 715.46 1707.2 715.008 1708.51 714.103 1709.82 713.198 1711.22 711.833 1712.69 710.009 1714.16 708.186 1715.34 706.416 1716.23 704.7 1717.13 702.985 1717.86 700.87 1718.42 698.358L1722.27 680.809 1729.28 680.809 1723.37 706.504C1722.77 709.098 1722.48 711.097 1722.48 712.502 1722.48 713.583 1722.65 714.366 1723 714.852 1723.35 715.339 1723.91 715.582 1724.66 715.582 1725.47 715.582 1726.34 715.251 1727.26 714.589 1728.18 713.927 1729.47 712.664 1731.15 710.8L1733.46 713.069C1731 715.69 1728.91 717.541 1727.18 718.621 1725.45 719.702 1723.61 720.243 1721.66 720.243 1719.99 720.243 1718.65 719.689 1717.65 718.581 1716.65 717.473 1716.15 716.001 1716.15 714.163 1716.15 712.704 1716.48 711.11 1717.13 709.381L1716.64 709.219C1713.96 712.975 1711.43 715.744 1709.04 717.527 1706.65 719.31 1704.2 720.202 1701.68 720.202 1699.17 720.202 1697.24 719.479 1695.89 718.034 1694.54 716.588 1693.86 714.582 1693.86 712.016 1693.86 710.313 1694.25 707.895 1695.04 704.761L1697.67 694.143C1698.4 691.198 1698.77 689.118 1698.77 687.902 1698.77 686.821 1698.59 686.037 1698.24 685.551 1697.89 685.065 1697.33 684.822 1696.58 684.822 1695.74 684.822 1694.86 685.166 1693.92 685.855 1692.99 686.544 1691.71 687.794 1690.09 689.604L1687.78 687.334C1690.08 685.011 1691.81 683.417 1692.97 682.552 1694.13 681.688 1695.25 681.073 1696.31 680.708 1697.38 680.343 1698.58 680.161 1699.9 680.161Z" fill-rule="evenodd"/><text fill="#000000" fill-opacity="0" font-family="Arial,Arial_MSFontService,sans-serif" font-size="40.0815" x="1687.78" y="715.232">𝑢</text><path d="M1752.57 698.075 1754.38 698.075C1754.34 699.167 1754.31 700.145 1754.29 701.008 1754.27 701.872 1754.26 702.711 1754.25 703.525 1754.24 704.339 1754.23 705.144 1754.23 705.938L1754.23 728.575C1754.23 729.19 1754.25 729.721 1754.29 730.168 1754.33 730.615 1754.4 730.992 1754.49 731.3 1754.58 731.608 1754.7 731.871 1754.84 732.089 1754.99 732.308 1755.17 732.496 1755.37 732.655 1755.6 732.893 1755.92 733.077 1756.32 733.206 1756.72 733.335 1757.22 733.444 1757.84 733.534 1758.45 733.623 1759.19 733.693 1760.06 733.742 1760.92 733.792 1761.96 733.827 1763.17 733.847L1763.17 736.438 1739.55 736.438 1739.55 733.847C1740.72 733.807 1741.71 733.762 1742.53 733.713 1743.34 733.663 1744.04 733.593 1744.61 733.504 1745.19 733.415 1745.65 733.315 1746 733.206 1746.35 733.097 1746.65 732.963 1746.91 732.804 1747.18 732.625 1747.42 732.432 1747.62 732.223 1747.82 732.015 1747.98 731.752 1748.1 731.434 1748.22 731.116 1748.31 730.729 1748.38 730.272 1748.45 729.816 1748.49 729.25 1748.49 728.575L1748.49 707.219C1748.49 706.444 1748.34 705.898 1748.04 705.58 1747.74 705.263 1747.31 705.104 1746.76 705.104 1746.14 705.104 1745.23 705.422 1744.02 706.057 1742.81 706.692 1741.24 707.636 1739.31 708.887 1739.05 708.43 1738.82 707.973 1738.6 707.516 1738.38 707.06 1738.15 706.593 1737.91 706.117 1740.37 704.766 1742.81 703.421 1745.22 702.081 1747.64 700.74 1750.08 699.405 1752.57 698.075Z" fill-rule="evenodd"/><text fill="#000000" fill-opacity="0" font-family="Arial,Arial_MSFontService,sans-serif" font-size="38.3633" x="1737.91" y="731.642">1</text><path d="M1802.64 661.032 1803.73 664.153C1797.41 666.233 1792.73 670.293 1789.69 676.331 1786.65 682.37 1785.13 689.955 1785.13 699.087 1785.13 708.544 1786.65 716.338 1789.69 722.472 1792.73 728.605 1797.37 732.711 1803.61 734.792L1802.64 737.912C1794.72 735.832 1788.66 731.354 1784.44 724.478 1780.23 717.602 1778.12 709.273 1778.12 699.493 1778.12 689.739 1780.23 681.411 1784.46 674.507 1788.69 667.604 1794.75 663.112 1802.64 661.032Z" fill-rule="evenodd"/><text fill="#000000" fill-opacity="0" font-family="Arial,Arial_MSFontService,sans-serif" font-size="76.8804" x="1778.12" y="728.302">(</text><path d="M1821.21 680.161C1822.04 680.161 1822.78 680.256 1823.42 680.445 1824.05 680.634 1824.61 680.924 1825.1 681.316 1825.58 681.708 1826.02 682.214 1826.39 682.836 1826.77 683.457 1827.14 684.302 1827.49 685.369 1827.84 686.436 1828.17 687.76 1828.48 689.34 1828.79 690.921 1829.07 692.562 1829.31 694.265L1829.72 694.265C1832.31 690.617 1834.28 687.949 1835.61 686.26 1836.95 684.572 1838.08 683.315 1839 682.491 1839.92 681.667 1840.8 681.086 1841.65 680.749 1842.5 680.411 1843.63 680.242 1845.04 680.242 1846.31 680.242 1847.35 680.404 1848.16 680.728L1846.54 688.064 1843.7 688.064C1843.54 686.929 1843.06 686.362 1842.28 686.362 1842.04 686.362 1841.78 686.402 1841.51 686.483 1841.24 686.564 1840.91 686.74 1840.52 687.01 1840.13 687.28 1839.55 687.807 1838.8 688.591 1838.04 689.374 1837.19 690.333 1836.24 691.468 1835.3 692.603 1834.32 693.792 1833.32 695.035L1830.57 698.479C1831.06 701.073 1831.51 703.316 1831.95 705.207 1832.38 707.098 1832.76 708.672 1833.1 709.928 1833.44 711.185 1833.74 712.178 1833.99 712.907 1834.25 713.637 1834.53 714.184 1834.82 714.548 1835.12 714.913 1835.43 715.17 1835.74 715.318 1836.05 715.467 1836.4 715.541 1836.81 715.541 1837.54 715.541 1838.25 715.258 1838.94 714.69 1839.63 714.123 1840.62 712.84 1841.92 710.84L1844.55 712.583C1842.66 715.393 1840.95 717.372 1839.42 718.52 1837.9 719.668 1836.08 720.243 1833.97 720.243 1832.81 720.243 1831.83 720.033 1831.01 719.614 1830.2 719.196 1829.5 718.527 1828.91 717.608 1828.31 716.69 1827.79 715.258 1827.33 713.312 1826.49 709.854 1825.98 707.206 1825.79 705.369L1825.38 705.369C1822.52 709.395 1820.39 712.286 1819 714.042 1817.61 715.798 1816.46 717.095 1815.55 717.932 1814.65 718.77 1813.77 719.358 1812.92 719.695 1812.07 720.033 1810.94 720.202 1809.54 720.202 1808.27 720.202 1807.22 720.04 1806.41 719.716L1808.04 712.38 1810.87 712.38C1811.03 713.515 1811.51 714.082 1812.29 714.082 1812.67 714.082 1813.07 713.981 1813.49 713.778 1813.91 713.576 1814.51 713.089 1815.29 712.319 1816.07 711.549 1817.15 710.34 1818.53 708.692 1819.91 707.044 1821.91 704.572 1824.53 701.276 1824.12 699.141 1823.71 697.088 1823.27 695.116 1822.84 693.143 1822.4 691.306 1821.94 689.604 1821.48 687.902 1821.1 686.787 1820.8 686.26 1820.5 685.734 1820.19 685.369 1819.85 685.166 1819.51 684.964 1819.09 684.862 1818.57 684.862 1818.01 684.862 1817.49 684.991 1817.03 685.247 1816.57 685.504 1816.07 685.95 1815.53 686.585 1814.99 687.22 1814.28 688.212 1813.39 689.563L1810.75 687.821C1812.45 685.254 1814.09 683.336 1815.65 682.066 1817.22 680.796 1819.07 680.161 1821.21 680.161Z" fill-rule="evenodd"/><text fill="#000000" fill-opacity="0" font-family="Arial,Arial_MSFontService,sans-serif" font-size="40.0815" x="1806.41" y="715.232">𝑥</text><path d="M1857.24 710.192 1864.33 710.192C1864.71 712.083 1864.9 713.947 1864.9 715.785 1864.9 717.676 1864.58 719.405 1863.93 720.972 1863.28 722.539 1862.25 724.099 1860.83 725.653 1859.41 727.206 1857.46 728.915 1854.97 730.78L1852.78 728.307C1854.16 727.011 1855.16 725.842 1855.78 724.802 1856.4 723.762 1856.85 722.58 1857.12 721.256 1857.39 719.932 1857.53 718.27 1857.53 716.271 1857.53 714.217 1857.43 712.191 1857.24 710.192Z" fill-rule="evenodd"/><text fill="#000000" fill-opacity="0" font-family="Arial,Arial_MSFontService,sans-serif" font-size="20.5879" x="1852.78" y="728.206">,</text><path d="M1896.12 680.202C1897.23 680.202 1898.18 680.35 1898.96 680.647 1899.5 680.863 1900.04 681.221 1900.58 681.721 1901.12 682.221 1901.6 682.917 1902.02 683.808 1902.44 684.7 1902.8 685.7 1903.11 686.807 1903.42 687.915 1903.77 689.509 1904.15 691.59 1904.8 695.075 1905.42 698.743 1906.03 702.593 1906.64 706.443 1907.16 710.016 1907.59 713.312 1910.21 709.53 1912.43 705.828 1914.26 702.208 1916.08 698.587 1917.39 695.44 1918.19 692.765 1918.99 690.09 1919.39 687.915 1919.39 686.24 1919.39 684.97 1919.12 684.106 1918.57 683.646 1918.03 683.187 1917.12 682.917 1915.82 682.836L1916.22 680.85 1926.88 680.85 1927.98 682.876C1925.92 688.496 1923.14 694.508 1919.63 700.911 1916.17 707.179 1912.21 713.42 1907.75 719.635 1903.49 725.552 1899.93 729.834 1897.1 732.482 1895.12 734.292 1893.22 735.589 1891.38 736.372 1889.92 736.967 1888.37 737.264 1886.72 737.264 1886.15 737.264 1885.5 737.217 1884.75 737.122 1884.01 737.028 1883.44 736.899 1883.03 736.737L1884.78 728.875 1887.98 728.875C1887.98 730.604 1888.57 731.469 1889.76 731.469 1891.33 731.469 1893.15 730.489 1895.23 728.53 1897.31 726.572 1899.76 723.62 1902.57 719.675 1901.78 714.947 1900.72 709.246 1899.36 702.573 1897.93 695.44 1896.99 691.022 1896.53 689.32 1895.96 687.267 1895.37 685.956 1894.74 685.389 1894.37 685.038 1893.89 684.862 1893.33 684.862 1892.46 684.862 1891.65 685.213 1890.89 685.916 1890.14 686.618 1889.21 687.834 1888.1 689.563L1885.46 687.821C1887.33 685.038 1889.07 683.072 1890.69 681.924 1892.31 680.776 1894.12 680.202 1896.12 680.202Z" fill-rule="evenodd"/><text fill="#000000" fill-opacity="0" font-family="Arial,Arial_MSFontService,sans-serif" font-size="57.0625" x="1883.03" y="730.131">𝑦</text><path d="M1933.21 661.032C1941.1 663.112 1947.16 667.604 1951.39 674.507 1955.61 681.411 1957.73 689.739 1957.73 699.493 1957.73 709.273 1955.62 717.602 1951.41 724.478 1947.19 731.354 1941.13 735.832 1933.21 737.912L1932.24 734.792C1938.48 732.711 1943.12 728.605 1946.16 722.472 1949.2 716.338 1950.72 708.544 1950.72 699.087 1950.72 689.955 1949.2 682.37 1946.18 676.331 1943.15 670.293 1938.46 666.233 1932.12 664.153Z" fill-rule="evenodd"/><text fill="#000000" fill-opacity="0" font-family="Arial,Arial_MSFontService,sans-serif" font-size="76.8804" x="1932.12" y="728.302">)</text><path d="M1755.5 1004.5C1755.5 996.216 1762.22 989.5 1770.5 989.5 1778.78 989.5 1785.5 996.216 1785.5 1004.5 1785.5 1012.78 1778.78 1019.5 1770.5 1019.5 1762.22 1019.5 1755.5 1012.78 1755.5 1004.5Z" stroke="#000000" stroke-width="4.58333" stroke-miterlimit="8" fill="none" fill-rule="evenodd"/><path d="M1810.5 1004.5C1810.5 996.216 1817.22 989.5 1825.5 989.5 1833.78 989.5 1840.5 996.216 1840.5 1004.5 1840.5 1012.78 1833.78 1019.5 1825.5 1019.5 1817.22 1019.5 1810.5 1012.78 1810.5 1004.5Z" stroke="#000000" stroke-width="4.58333" stroke-miterlimit="8" fill="none" fill-rule="evenodd"/><path d="M1865.5 1003.5C1865.5 995.216 1872.22 988.5 1880.5 988.5 1888.78 988.5 1895.5 995.216 1895.5 1003.5 1895.5 1011.78 1888.78 1018.5 1880.5 1018.5 1872.22 1018.5 1865.5 1011.78 1865.5 1003.5Z" stroke="#000000" stroke-width="4.58333" stroke-miterlimit="8" fill="none" fill-rule="evenodd"/><path d="M1924.5 1003.5C1924.5 995.216 1931.22 988.5 1939.5 988.5 1947.78 988.5 1954.5 995.216 1954.5 1003.5 1954.5 1011.78 1947.78 1018.5 1939.5 1018.5 1931.22 1018.5 1924.5 1011.78 1924.5 1003.5Z" stroke="#000000" stroke-width="4.58333" stroke-miterlimit="8" fill="none" fill-rule="evenodd"/><path d="M1760.36 1035.14C1759.12 1035.14 1758.09 1035.5 1757.26 1036.24 1756.42 1036.97 1755.75 1038.03 1755.24 1039.41 1754.73 1040.78 1754.37 1042.46 1754.15 1044.44 1753.94 1046.42 1753.83 1048.65 1753.83 1051.14 1753.83 1056.98 1754.37 1061.26 1755.46 1063.99 1756.54 1066.72 1758.22 1068.09 1760.49 1068.09 1762.66 1068.09 1764.27 1066.8 1765.31 1064.23 1766.36 1061.66 1766.88 1057.68 1766.88 1052.3 1766.88 1048.18 1766.62 1044.84 1766.08 1042.29 1765.54 1039.74 1764.79 1037.91 1763.84 1036.8 1762.88 1035.69 1761.72 1035.14 1760.36 1035.14ZM1760.49 1032.85C1764.41 1032.85 1767.33 1034.37 1769.25 1037.39 1771.16 1040.42 1772.12 1044.99 1772.12 1051.11 1772.12 1057.45 1771.1 1062.25 1769.05 1065.5 1767 1068.74 1764 1070.37 1760.06 1070.37 1756.2 1070.37 1753.32 1068.85 1751.43 1065.8 1749.54 1062.76 1748.6 1058.14 1748.6 1051.95 1748.6 1048.65 1748.89 1045.81 1749.47 1043.41 1750.05 1041.01 1750.86 1039.02 1751.91 1037.46 1752.96 1035.89 1754.22 1034.73 1755.69 1033.98 1757.15 1033.23 1758.76 1032.85 1760.49 1032.85Z" fill-rule="evenodd"/><text fill="#000000" fill-opacity="0" font-family="Arial,Arial_MSFontService,sans-serif" font-size="37.5171" x="1748.6" y="1065.68">0</text><path d="M1828.94 1032.85 1830.42 1032.85C1830.31 1034.57 1830.25 1036.95 1830.25 1040L1830.25 1062.93C1830.25 1063.97 1830.31 1064.75 1830.43 1065.28 1830.55 1065.81 1830.75 1066.24 1831.05 1066.57 1831.34 1066.9 1831.77 1067.16 1832.32 1067.35 1832.88 1067.54 1833.58 1067.68 1834.42 1067.78 1835.26 1067.88 1836.37 1067.94 1837.75 1067.98L1837.75 1069.94 1817.9 1069.94 1817.9 1067.98C1819.89 1067.89 1821.31 1067.77 1822.16 1067.62 1823.01 1067.46 1823.66 1067.24 1824.1 1066.93 1824.55 1066.63 1824.88 1066.2 1825.08 1065.64 1825.29 1065.09 1825.39 1064.18 1825.39 1062.93L1825.39 1041.15C1825.39 1040.43 1825.27 1039.91 1825.02 1039.58 1824.77 1039.25 1824.4 1039.08 1823.92 1039.08 1823.34 1039.08 1822.53 1039.38 1821.47 1039.97 1820.42 1040.56 1819.11 1041.37 1817.55 1042.41L1816.37 1040.35Z" fill-rule="evenodd"/><text fill="#000000" fill-opacity="0" font-family="Arial,Arial_MSFontService,sans-serif" font-size="37.0874" x="1816.37" y="1065.3">1</text><path d="M1884.13 1063.71 1889.55 1063.71 1889.55 1069.94 1884.13 1069.94ZM1870.97 1063.71 1876.39 1063.71 1876.39 1069.94 1870.97 1069.94ZM1857.81 1063.71 1863.23 1063.71 1863.23 1069.94 1857.81 1069.94Z" fill-rule="evenodd"/><text fill="#000000" fill-opacity="0" font-family="Arial,Arial_MSFontService,sans-serif" font-size="6.23047" x="1857.81" y="1069.16">…</text><path d="M1910.05 1033.28 1918.62 1033.28 1925.71 1054.2C1926.73 1057.21 1927.52 1059.75 1928.07 1061.83L1928.37 1061.83C1928.51 1060.74 1928.84 1058.92 1929.35 1056.38 1929.86 1053.84 1930.33 1051.62 1930.76 1049.72L1932.64 1041.26C1933.03 1039.49 1933.23 1038.04 1933.23 1036.93 1933.23 1036.09 1933.02 1035.51 1932.6 1035.18 1932.18 1034.84 1931.51 1034.65 1930.6 1034.6L1930.89 1033.28 1940.29 1033.28 1939.99 1034.6C1939.31 1034.74 1938.83 1034.9 1938.53 1035.08 1938.24 1035.26 1937.97 1035.53 1937.74 1035.89 1937.51 1036.25 1937.26 1036.8 1937.01 1037.57 1936.76 1038.33 1936.45 1039.57 1936.07 1041.29L1929.76 1069.94 1926.11 1069.94 1918.27 1046.9C1917.32 1044.14 1916.49 1041.39 1915.77 1038.65L1915.42 1038.65C1915.31 1039.57 1915.02 1041.31 1914.54 1043.88 1914.05 1046.45 1913.54 1048.96 1913 1051.41L1910.64 1062.12C1910.27 1063.83 1910.08 1065.22 1910.08 1066.31 1910.08 1067.12 1910.28 1067.69 1910.68 1068.02 1911.08 1068.35 1911.76 1068.55 1912.71 1068.62L1912.41 1069.94 1903.01 1069.94 1903.31 1068.62C1903.99 1068.52 1904.5 1068.34 1904.84 1068.1 1905.18 1067.86 1905.47 1067.52 1905.7 1067.09 1905.93 1066.66 1906.15 1066.14 1906.34 1065.52 1906.54 1064.9 1906.84 1063.71 1907.23 1061.94L1911.8 1041.26C1911.98 1040.49 1912.12 1039.75 1912.23 1039.06 1912.33 1038.36 1912.39 1037.65 1912.39 1036.93 1912.39 1036.09 1912.18 1035.51 1911.76 1035.18 1911.34 1034.84 1910.67 1034.65 1909.76 1034.6Z" fill-rule="evenodd"/><text fill="#000000" fill-opacity="0" font-family="Arial,Arial_MSFontService,sans-serif" font-size="36.6577" x="1903.01" y="1065.36">𝑁</text><path d="M1959.21 1052.43 1992.3 1052.43 1992.3 1056 1959.21 1056Z" fill-rule="evenodd"/><text fill="#000000" fill-opacity="0" font-family="Arial,Arial_MSFontService,sans-serif" font-size="3.57178" x="1959.21" y="1055.56">−</text><path d="M2026.02 1032.85 2027.5 1032.85C2027.39 1034.57 2027.34 1036.95 2027.34 1040L2027.34 1062.93C2027.34 1063.97 2027.4 1064.75 2027.51 1065.28 2027.63 1065.81 2027.83 1066.24 2028.13 1066.57 2028.43 1066.9 2028.85 1067.16 2029.41 1067.35 2029.96 1067.54 2030.66 1067.68 2031.5 1067.78 2032.34 1067.88 2033.45 1067.94 2034.83 1067.98L2034.83 1069.94 2014.98 1069.94 2014.98 1067.98C2016.97 1067.89 2018.39 1067.77 2019.24 1067.62 2020.09 1067.46 2020.74 1067.24 2021.19 1066.93 2021.64 1066.63 2021.96 1066.2 2022.17 1065.64 2022.37 1065.09 2022.48 1064.18 2022.48 1062.93L2022.48 1041.15C2022.48 1040.43 2022.35 1039.91 2022.1 1039.58 2021.85 1039.25 2021.48 1039.08 2021 1039.08 2020.43 1039.08 2019.61 1039.38 2018.56 1039.97 2017.5 1040.56 2016.19 1041.37 2014.63 1042.41L2013.45 1040.35Z" fill-rule="evenodd"/><text fill="#000000" fill-opacity="0" font-family="Arial,Arial_MSFontService,sans-serif" font-size="37.0874" x="2013.45" y="1065.3">1</text><path d="M1.14583-0.000625285 1.24845 188.048-1.04321 188.05-1.14583 0.000625285ZM13.8501 183.458 0.115125 210.966-13.6499 183.473Z" transform="matrix(1 0 0 -1 1741 1010.97)"/><path d="M1787.63 768.526C1788.74 768.526 1789.68 768.675 1790.47 768.972 1791.01 769.188 1791.55 769.546 1792.09 770.046 1792.63 770.546 1793.11 771.241 1793.53 772.133 1793.94 773.025 1794.31 774.024 1794.62 775.132 1794.93 776.24 1795.27 777.834 1795.65 779.914 1796.3 783.4 1796.93 787.067 1797.54 790.917 1798.15 794.767 1798.67 798.341 1799.1 801.637 1801.72 797.854 1803.94 794.153 1805.76 790.532 1807.59 786.912 1808.9 783.764 1809.7 781.089 1810.49 778.415 1810.89 776.24 1810.89 774.565 1810.89 773.295 1810.62 772.43 1810.08 771.971 1809.54 771.512 1808.62 771.241 1807.32 771.16L1807.73 769.174 1818.39 769.174 1819.48 771.201C1817.43 776.821 1814.65 782.832 1811.13 789.235 1807.68 795.504 1803.72 801.745 1799.26 807.959 1794.99 813.876 1791.44 818.159 1788.6 820.806 1786.63 822.617 1784.72 823.913 1782.89 824.697 1781.43 825.291 1779.87 825.589 1778.23 825.589 1777.66 825.589 1777 825.541 1776.26 825.447 1775.52 825.352 1774.94 825.224 1774.54 825.062L1776.28 817.199 1779.48 817.199C1779.48 818.929 1780.08 819.793 1781.27 819.793 1782.83 819.793 1784.66 818.814 1786.74 816.855 1788.82 814.896 1791.26 811.944 1794.07 808 1793.29 803.271 1792.22 797.571 1790.87 790.897 1789.44 783.764 1788.49 779.347 1788.03 777.645 1787.47 775.591 1786.87 774.281 1786.25 773.714 1785.87 773.362 1785.4 773.187 1784.83 773.187 1783.97 773.187 1783.16 773.538 1782.4 774.24 1781.64 774.943 1780.71 776.159 1779.6 777.888L1776.97 776.145C1778.83 773.362 1780.58 771.397 1782.2 770.248 1783.82 769.1 1785.63 768.526 1787.63 768.526Z" fill-rule="evenodd"/><text fill="#000000" fill-opacity="0" font-family="Arial,Arial_MSFontService,sans-serif" font-size="57.0625" x="1774.54" y="818.456">𝑦</text><path d="M1853.94 749.924 1860.22 749.924 1830.96 825.345 1824.59 825.345Z" fill-rule="evenodd"/><text fill="#000000" fill-opacity="0" font-family="Arial,Arial_MSFontService,sans-serif" font-size="75.4214" x="1824.59" y="815.918">/</text><path d="M1891.01 773.268C1889.71 773.268 1888.43 773.68 1887.18 774.504 1885.92 775.328 1884.52 776.692 1882.98 778.597 1881.44 780.502 1880.19 782.454 1879.21 784.453 1878.24 786.453 1877.42 789.006 1876.74 792.113L1876.38 793.815C1875.97 795.706 1875.77 797.544 1875.77 799.327 1875.77 801.461 1876.23 803.001 1877.17 803.947 1878.1 804.893 1879.65 805.365 1881.81 805.365 1882.91 805.365 1883.97 805.183 1884.97 804.818 1885.97 804.453 1886.99 803.852 1888.03 803.015 1889.07 802.177 1890.05 801.076 1890.99 799.712 1891.92 798.347 1892.78 796.665 1893.56 794.666 1894.34 792.667 1894.95 790.526 1895.38 788.243 1895.82 785.96 1896.03 783.778 1896.03 781.697 1896.03 778.888 1895.63 776.78 1894.84 775.375 1894.04 773.97 1892.76 773.268 1891.01 773.268ZM1883.91 749.964 1886.26 749.964 1879.13 778.334 1879.66 778.496C1882.28 774.983 1884.74 772.444 1887.03 770.877 1889.33 769.31 1891.63 768.526 1893.92 768.526 1896.87 768.526 1899.16 769.647 1900.79 771.89 1902.43 774.132 1903.25 777.293 1903.25 781.373 1903.25 785.831 1902.35 790.215 1900.55 794.524 1898.75 798.834 1896.26 802.252 1893.07 804.778 1889.89 807.304 1886.32 808.567 1882.37 808.567 1878.78 808.567 1875.59 807.689 1872.81 805.933L1869.08 808.567 1866.49 807.919 1876.98 761.596C1877.61 758.84 1877.92 756.841 1877.92 755.598 1877.92 754.463 1877.57 753.666 1876.88 753.207 1876.19 752.747 1874.96 752.491 1873.17 752.437L1873.66 750.329Z" fill-rule="evenodd"/><text fill="#000000" fill-opacity="0" font-family="Arial,Arial_MSFontService,sans-serif" font-size="58.6025" x="1866.49" y="801.242">𝑏</text><path d="M1755.5 954.5C1755.5 946.216 1762.44 939.5 1771 939.5 1779.56 939.5 1786.5 946.216 1786.5 954.5 1786.5 962.784 1779.56 969.5 1771 969.5 1762.44 969.5 1755.5 962.784 1755.5 954.5Z" stroke="#000000" stroke-width="4.58333" stroke-miterlimit="8" fill="none" fill-rule="evenodd"/><path d="M1810.5 954.5C1810.5 946.216 1817.44 939.5 1826 939.5 1834.56 939.5 1841.5 946.216 1841.5 954.5 1841.5 962.784 1834.56 969.5 1826 969.5 1817.44 969.5 1810.5 962.784 1810.5 954.5Z" stroke="#000000" stroke-width="4.58333" stroke-miterlimit="8" fill="none" fill-rule="evenodd"/><path d="M1865.5 953.5C1865.5 945.216 1872.44 938.5 1881 938.5 1889.56 938.5 1896.5 945.216 1896.5 953.5 1896.5 961.784 1889.56 968.5 1881 968.5 1872.44 968.5 1865.5 961.784 1865.5 953.5Z" stroke="#000000" stroke-width="4.58333" stroke-miterlimit="8" fill="none" fill-rule="evenodd"/><path d="M1925.5 953.5C1925.5 945.216 1932.22 938.5 1940.5 938.5 1948.78 938.5 1955.5 945.216 1955.5 953.5 1955.5 961.784 1948.78 968.5 1940.5 968.5 1932.22 968.5 1925.5 961.784 1925.5 953.5Z" stroke="#000000" stroke-width="4.58333" stroke-miterlimit="8" fill="none" fill-rule="evenodd"/><path d="M1755.5 900.5C1755.5 892.216 1762.22 885.5 1770.5 885.5 1778.78 885.5 1785.5 892.216 1785.5 900.5 1785.5 908.784 1778.78 915.5 1770.5 915.5 1762.22 915.5 1755.5 908.784 1755.5 900.5Z" stroke="#000000" stroke-width="4.58333" stroke-miterlimit="8" fill="none" fill-rule="evenodd"/><path d="M1809.5 900.5C1809.5 892.216 1816.44 885.5 1825 885.5 1833.56 885.5 1840.5 892.216 1840.5 900.5 1840.5 908.784 1833.56 915.5 1825 915.5 1816.44 915.5 1809.5 908.784 1809.5 900.5Z" stroke="#000000" stroke-width="4.58333" stroke-miterlimit="8" fill="none" fill-rule="evenodd"/><path d="M1865.5 899.5C1865.5 891.216 1872.22 884.5 1880.5 884.5 1888.78 884.5 1895.5 891.216 1895.5 899.5 1895.5 907.784 1888.78 914.5 1880.5 914.5 1872.22 914.5 1865.5 907.784 1865.5 899.5Z" stroke="#000000" stroke-width="4.58333" stroke-miterlimit="8" fill="none" fill-rule="evenodd"/><path d="M1924.5 899.5C1924.5 891.216 1931.22 884.5 1939.5 884.5 1947.78 884.5 1954.5 891.216 1954.5 899.5 1954.5 907.784 1947.78 914.5 1939.5 914.5 1931.22 914.5 1924.5 907.784 1924.5 899.5Z" stroke="#000000" stroke-width="4.58333" stroke-miterlimit="8" fill="none" fill-rule="evenodd"/><path d="M1755.5 850.5C1755.5 842.216 1762.22 835.5 1770.5 835.5 1778.78 835.5 1785.5 842.216 1785.5 850.5 1785.5 858.784 1778.78 865.5 1770.5 865.5 1762.22 865.5 1755.5 858.784 1755.5 850.5Z" stroke="#000000" stroke-width="4.58333" stroke-miterlimit="8" fill="none" fill-rule="evenodd"/><path d="M1810.5 850.5C1810.5 842.216 1817.22 835.5 1825.5 835.5 1833.78 835.5 1840.5 842.216 1840.5 850.5 1840.5 858.784 1833.78 865.5 1825.5 865.5 1817.22 865.5 1810.5 858.784 1810.5 850.5Z" stroke="#000000" stroke-width="4.58333" stroke-miterlimit="8" fill="none" fill-rule="evenodd"/><path d="M1865.5 849.5C1865.5 841.216 1872.22 834.5 1880.5 834.5 1888.78 834.5 1895.5 841.216 1895.5 849.5 1895.5 857.784 1888.78 864.5 1880.5 864.5 1872.22 864.5 1865.5 857.784 1865.5 849.5Z" stroke="#000000" stroke-width="4.58333" stroke-miterlimit="8" fill="none" fill-rule="evenodd"/><path d="M1924.5 849.5C1924.5 841.216 1931.22 834.5 1939.5 834.5 1947.78 834.5 1954.5 841.216 1954.5 849.5 1954.5 857.784 1947.78 864.5 1939.5 864.5 1931.22 864.5 1924.5 857.784 1924.5 849.5Z" stroke="#000000" stroke-width="4.58333" stroke-miterlimit="8" fill="none" fill-rule="evenodd"/></g></svg>