<svg width="783" height="565" xmlns="http://www.w3.org/2000/svg" xmlns:xlink="http://www.w3.org/1999/xlink" xml:space="preserve" overflow="hidden"><defs><clipPath id="clip0"><rect x="1191" y="1334" width="783" height="565"/></clipPath></defs><g clip-path="url(#clip0)" transform="translate(-1191 -1334)"><path d="M1.14583-1.61986e-06 1.14616 232.367-1.1455 232.367-1.14583 1.61986e-06ZM13.7503 227.783 0.000360892 255.283-13.7497 227.783Z" transform="matrix(1 0 0 -1 1416 1646.28)"/><path d="M1419 1645.85 1676.43 1645.85 1676.43 1648.15 1419 1648.15ZM1671.84 1633.25 1699.34 1647 1671.84 1660.75Z"/><path d="M1193.01 1338.45 1351 1628.61 1348.98 1629.7 1190.99 1339.55ZM1359.88 1618.56 1360.95 1649.28 1335.72 1631.71Z"/><path d="M1314.76 1438.09 1319.34 1438.09 1311.8 1472.22 1312.61 1472.22C1313.59 1472.22 1314.5 1472.04 1315.37 1471.69 1316.42 1471.26 1317.72 1470.49 1319.26 1469.38 1321.34 1467.84 1322.81 1466.64 1323.68 1465.77 1324.54 1464.91 1325.14 1464.09 1325.48 1463.32 1325.82 1462.55 1325.99 1461.76 1325.99 1460.95 1325.99 1460.33 1325.82 1459.8 1325.48 1459.37 1325.14 1458.94 1324.54 1458.68 1323.68 1458.6L1324.33 1455.93 1338.75 1455.93 1339.77 1458.56C1338.09 1460.4 1335.83 1462.4 1333 1464.56L1323.88 1471.41 1328.05 1486.2C1328.54 1487.96 1328.99 1489.14 1329.41 1489.77 1329.83 1490.39 1330.42 1490.7 1331.17 1490.7 1331.88 1490.7 1332.67 1490.34 1333.57 1489.62 1334.46 1488.91 1335.51 1487.83 1336.73 1486.4L1339.64 1489.32C1337.13 1492.02 1334.86 1493.94 1332.84 1495.08 1330.81 1496.21 1328.73 1496.78 1326.59 1496.78 1323.92 1496.78 1321.84 1496.14 1320.35 1494.87 1318.87 1493.6 1317.79 1491.43 1317.11 1488.35L1314.96 1478.62C1314.83 1477.97 1314.65 1477.46 1314.44 1477.08 1314.22 1476.7 1313.94 1476.43 1313.59 1476.27 1313.23 1476.11 1312.71 1476.03 1312 1476.03L1310.99 1476.03 1306.57 1496.13 1294.94 1496.13 1305.2 1450.33C1305.79 1447.69 1306.09 1445.75 1306.09 1444.54 1306.09 1443.94 1306.03 1443.48 1305.91 1443.14 1305.78 1442.8 1305.6 1442.53 1305.36 1442.31 1305.12 1442.09 1304.79 1441.92 1304.39 1441.8 1303.98 1441.68 1303.18 1441.54 1301.99 1441.38L1302.64 1438.74Z" fill-rule="evenodd"/><text fill="#000000" fill-opacity="0" font-family="Arial,Arial_MSFontService,sans-serif" font-size="58.6836" x="1294.94" y="1489.44">ğ’Œ</text><path d="M1454.45 1371.97 1483.26 1371.97 1484.03 1374 1464.7 1396.2C1460.95 1400.5 1457.69 1404.15 1454.93 1407.15L1455.18 1407.43 1464.34 1407.43C1465.96 1407.43 1467.2 1407.34 1468.07 1407.17 1468.93 1406.99 1469.69 1406.66 1470.34 1406.17 1470.98 1405.69 1471.65 1404.95 1472.34 1403.97 1473.03 1402.98 1473.89 1401.43 1474.91 1399.32L1478.52 1399.32 1476.05 1410.71 1446.71 1410.71 1445.94 1408.73 1468.11 1383.2C1471.24 1379.6 1473.54 1377.05 1475 1375.54L1474.75 1375.25 1465.27 1375.25C1463.86 1375.25 1462.84 1375.35 1462.19 1375.54 1461.54 1375.72 1460.89 1376.06 1460.24 1376.53 1459.6 1377 1458.9 1377.7 1458.16 1378.64 1457.41 1379.57 1456.58 1380.9 1455.66 1382.63L1452.06 1382.63Z" fill-rule="evenodd"/><text fill="#000000" fill-opacity="0" font-family="Arial,Arial_MSFontService,sans-serif" font-size="38.7441" x="1445.94" y="1405.87">ğ‘§</text><text fill="#FF0000" font-family="Cambria Math,Cambria Math_MSFontService,sans-serif" font-weight="400" font-size="50" transform="matrix(1 0 0 1 1349.57 1390)">ğœƒ</text><text fill="#FF0000" font-family="Cambria Math,Cambria Math_MSFontService,sans-serif" font-weight="400" font-size="37" transform="matrix(1 0 0 1 1376.45 1401)">0</text><path d="M1377.78 1444.63C1392.02 1442.89 1405.68 1443.62 1417.93 1446.77" stroke="#FF0000" stroke-width="2.29167" stroke-miterlimit="8" stroke-dasharray="2.29167 2.29167" fill="none" fill-rule="evenodd"/><path d="M1730.24 1634.32C1731.08 1634.32 1731.81 1634.42 1732.45 1634.6 1733.08 1634.79 1733.64 1635.08 1734.13 1635.48 1734.62 1635.87 1735.05 1636.37 1735.43 1637 1735.81 1637.62 1736.17 1638.46 1736.52 1639.53 1736.87 1640.6 1737.2 1641.92 1737.52 1643.5 1737.83 1645.08 1738.1 1646.72 1738.35 1648.42L1738.75 1648.42C1741.35 1644.78 1743.31 1642.11 1744.65 1640.42 1745.99 1638.73 1747.11 1637.48 1748.03 1636.65 1748.95 1635.83 1749.84 1635.25 1750.69 1634.91 1751.54 1634.57 1752.67 1634.4 1754.07 1634.4 1755.34 1634.4 1756.38 1634.56 1757.19 1634.89L1755.57 1642.22 1752.73 1642.22C1752.57 1641.09 1752.1 1640.52 1751.31 1640.52 1751.07 1640.52 1750.81 1640.56 1750.54 1640.64 1750.27 1640.72 1749.94 1640.9 1749.55 1641.17 1749.16 1641.44 1748.59 1641.97 1747.83 1642.75 1747.07 1643.53 1746.22 1644.49 1745.28 1645.63 1744.33 1646.76 1743.36 1647.95 1742.36 1649.19L1739.6 1652.64C1740.09 1655.23 1740.55 1657.48 1740.98 1659.37 1741.41 1661.26 1741.8 1662.83 1742.14 1664.09 1742.47 1665.34 1742.77 1666.34 1743.03 1667.07 1743.28 1667.8 1743.56 1668.34 1743.86 1668.71 1744.16 1669.07 1744.46 1669.33 1744.77 1669.48 1745.08 1669.63 1745.44 1669.7 1745.84 1669.7 1746.57 1669.7 1747.28 1669.42 1747.97 1668.85 1748.66 1668.28 1749.65 1667 1750.95 1665L1753.58 1666.74C1751.69 1669.55 1749.98 1671.53 1748.46 1672.68 1746.93 1673.83 1745.11 1674.4 1743.01 1674.4 1741.84 1674.4 1740.86 1674.19 1740.05 1673.77 1739.24 1673.36 1738.54 1672.69 1737.94 1671.77 1737.35 1670.85 1736.82 1669.42 1736.36 1667.47 1735.52 1664.01 1735.01 1661.37 1734.82 1659.53L1734.41 1659.53C1731.55 1663.55 1729.42 1666.45 1728.03 1668.2 1726.64 1669.96 1725.49 1671.25 1724.59 1672.09 1723.68 1672.93 1722.8 1673.52 1721.95 1673.86 1721.1 1674.19 1719.97 1674.36 1718.57 1674.36 1717.3 1674.36 1716.26 1674.2 1715.45 1673.88L1717.07 1666.54 1719.91 1666.54C1720.07 1667.67 1720.54 1668.24 1721.32 1668.24 1721.7 1668.24 1722.1 1668.14 1722.52 1667.94 1722.94 1667.74 1723.54 1667.25 1724.32 1666.48 1725.11 1665.71 1726.19 1664.5 1727.57 1662.85 1728.94 1661.2 1730.94 1658.73 1733.56 1655.44 1733.16 1653.3 1732.74 1651.25 1732.31 1649.28 1731.88 1647.3 1731.43 1645.47 1730.97 1643.76 1730.51 1642.06 1730.13 1640.95 1729.84 1640.42 1729.54 1639.89 1729.22 1639.53 1728.88 1639.33 1728.55 1639.12 1728.12 1639.02 1727.61 1639.02 1727.04 1639.02 1726.53 1639.15 1726.07 1639.41 1725.61 1639.66 1725.11 1640.11 1724.57 1640.74 1724.03 1641.38 1723.31 1642.37 1722.42 1643.72L1719.78 1641.98C1721.49 1639.41 1723.12 1637.5 1724.69 1636.23 1726.26 1634.96 1728.11 1634.32 1730.24 1634.32Z" fill-rule="evenodd"/><text fill="#000000" fill-opacity="0" font-family="Arial,Arial_MSFontService,sans-serif" font-size="40.0815" x="1715.45" y="1669.39">ğ‘¥</text><text font-family="Arial,Arial_MSFontService,sans-serif" font-weight="400" font-size="83" transform="matrix(1 0 0 1 1487.8 1561)">medium 1</text><text font-family="Arial,Arial_MSFontService,sans-serif" font-weight="400" font-size="83" transform="matrix(1 0 0 1 1501.32 1830)">medium 2</text><path d="M1319.01 1337.45 1477 1627.61 1474.98 1628.7 1316.99 1338.55ZM1485.88 1617.56 1486.95 1648.28 1461.72 1630.71Z"/><path d="M1482.53 1686.11C1479.75 1686.11 1477.25 1687.23 1475.04 1689.47 1472.82 1691.71 1471.09 1694.72 1469.85 1698.49 1468.61 1702.26 1467.98 1706.02 1467.98 1709.77 1467.98 1712.58 1468.37 1714.68 1469.14 1716.08 1469.91 1717.47 1471.2 1718.16 1473.01 1718.16 1474.79 1718.16 1476.54 1717.39 1478.26 1715.85 1479.97 1714.31 1481.74 1712.12 1483.57 1709.27 1485.39 1706.42 1486.68 1703.13 1487.44 1699.4L1487.8 1697.66C1488.05 1696.55 1488.21 1695.59 1488.29 1694.78 1488.37 1693.97 1488.41 1693.09 1488.41 1692.14 1488.41 1690.06 1487.96 1688.54 1487.07 1687.57 1486.18 1686.59 1484.67 1686.11 1482.53 1686.11ZM1481.72 1682.9C1483.48 1682.9 1485.12 1683.1 1486.65 1683.49 1488.17 1683.88 1489.75 1684.58 1491.37 1685.58L1495.1 1682.9 1497.69 1683.55 1491.73 1709.25C1491.14 1711.81 1490.84 1713.81 1490.84 1715.25 1490.84 1716.33 1491.02 1717.11 1491.37 1717.6 1491.72 1718.08 1492.27 1718.33 1493.03 1718.33 1493.84 1718.33 1494.71 1717.99 1495.62 1717.33 1496.54 1716.67 1497.84 1715.41 1499.51 1713.54L1501.82 1715.81C1499.39 1718.41 1497.32 1720.25 1495.6 1721.34 1493.89 1722.44 1492.03 1722.99 1490.03 1722.99 1488.36 1722.99 1487.02 1722.43 1486.02 1721.32 1485.02 1720.22 1484.52 1718.74 1484.52 1716.91 1484.52 1715.42 1484.83 1713.84 1485.45 1712.17L1484.92 1712C1482.33 1715.79 1479.87 1718.55 1477.55 1720.31 1475.22 1722.07 1472.77 1722.95 1470.17 1722.95 1467.2 1722.95 1464.9 1721.82 1463.26 1719.58 1461.63 1717.34 1460.81 1714.19 1460.81 1710.14 1460.81 1705.49 1461.72 1701.03 1463.55 1696.74 1465.37 1692.46 1467.88 1689.08 1471.06 1686.61 1474.25 1684.14 1477.81 1682.9 1481.72 1682.9Z" fill-rule="evenodd"/><text fill="#000000" fill-opacity="0" font-family="Arial,Arial_MSFontService,sans-serif" font-size="40.0815" x="1460.81" y="1717.98">ğ‘</text><path d="M1264.37 1699.51 1314.3 1699.51 1314.3 1704.9 1264.37 1704.9Z" fill-rule="evenodd"/><text fill="#000000" fill-opacity="0" font-family="Arial,Arial_MSFontService,sans-serif" font-size="5.39014" x="1264.37" y="1704.23">âˆ’</text><path d="M1346.19 1689.71C1343.41 1689.71 1340.91 1690.83 1338.69 1693.07 1336.47 1695.31 1334.75 1698.32 1333.5 1702.09 1332.26 1705.86 1331.64 1709.62 1331.64 1713.37 1331.64 1716.18 1332.02 1718.28 1332.79 1719.68 1333.56 1721.07 1334.85 1721.76 1336.66 1721.76 1338.45 1721.76 1340.2 1720.99 1341.91 1719.45 1343.63 1717.91 1345.4 1715.72 1347.22 1712.87 1349.05 1710.02 1350.34 1706.73 1351.09 1703L1351.46 1701.26C1351.7 1700.15 1351.86 1699.19 1351.94 1698.38 1352.02 1697.57 1352.06 1696.69 1352.06 1695.74 1352.06 1693.66 1351.62 1692.14 1350.73 1691.16 1349.84 1690.19 1348.32 1689.71 1346.19 1689.71ZM1345.38 1686.5C1347.13 1686.5 1348.77 1686.7 1350.3 1687.09 1351.83 1687.48 1353.4 1688.18 1355.02 1689.18L1358.75 1686.5 1361.35 1687.15 1355.39 1712.85C1354.79 1715.41 1354.5 1717.41 1354.5 1718.84 1354.5 1719.93 1354.67 1720.71 1355.02 1721.2 1355.37 1721.68 1355.93 1721.92 1356.68 1721.92 1357.49 1721.92 1358.36 1721.59 1359.28 1720.93 1360.2 1720.27 1361.49 1719.01 1363.17 1717.14L1365.48 1719.41C1363.05 1722.01 1360.97 1723.85 1359.26 1724.94 1357.54 1726.04 1355.68 1726.59 1353.69 1726.59 1352.01 1726.59 1350.67 1726.03 1349.67 1724.92 1348.67 1723.82 1348.17 1722.34 1348.17 1720.51 1348.17 1719.02 1348.48 1717.44 1349.11 1715.76L1348.58 1715.6C1345.99 1719.39 1343.53 1722.15 1341.2 1723.91 1338.88 1725.67 1336.42 1726.55 1333.83 1726.55 1330.85 1726.55 1328.55 1725.42 1326.92 1723.18 1325.28 1720.94 1324.47 1717.79 1324.47 1713.74 1324.47 1709.09 1325.38 1704.63 1327.2 1700.34 1329.02 1696.06 1331.53 1692.68 1334.72 1690.21 1337.91 1687.74 1341.46 1686.5 1345.38 1686.5Z" fill-rule="evenodd"/><text fill="#000000" fill-opacity="0" font-family="Arial,Arial_MSFontService,sans-serif" font-size="40.0815" x="1324.47" y="1721.58">ğ‘</text></g></svg>