<svg width="946" height="593" xmlns="http://www.w3.org/2000/svg" xmlns:xlink="http://www.w3.org/1999/xlink" xml:space="preserve" overflow="hidden"><defs><clipPath id="clip0"><rect x="1190" y="1970" width="946" height="593"/></clipPath></defs><g clip-path="url(#clip0)" transform="translate(-1190 -1970)"><path d="M1.14583-1.61986e-06 1.14616 232.367-1.1455 232.367-1.14583 1.61986e-06ZM13.7503 227.783 0.000360892 255.283-13.7497 227.783Z" transform="matrix(1 0 0 -1 1415 2310.28)"/><path d="M1418 2309.85 1675.43 2309.85 1675.43 2312.15 1418 2312.15ZM1670.84 2297.25 1698.34 2311 1670.84 2324.75Z"/><path d="M1192.01 2002.45 1350 2292.61 1347.98 2293.7 1189.99 2003.55ZM1358.88 2282.56 1359.95 2313.28 1334.72 2295.71Z"/><path d="M1313.99 2101.97 1318.56 2101.97 1311.03 2136.1 1311.84 2136.1C1312.81 2136.1 1313.73 2135.92 1314.59 2135.57 1315.65 2135.14 1316.94 2134.37 1318.48 2133.26 1320.56 2131.72 1322.04 2130.52 1322.9 2129.65 1323.77 2128.79 1324.37 2127.97 1324.7 2127.2 1325.04 2126.43 1325.21 2125.64 1325.21 2124.83 1325.21 2124.21 1325.04 2123.68 1324.7 2123.25 1324.37 2122.82 1323.77 2122.56 1322.9 2122.48L1323.55 2119.8 1337.98 2119.8 1338.99 2122.44C1337.32 2124.27 1335.06 2126.27 1332.22 2128.44L1323.1 2135.28 1327.28 2150.08C1327.76 2151.83 1328.22 2153.02 1328.64 2153.64 1329.05 2154.27 1329.64 2154.58 1330.4 2154.58 1331.1 2154.58 1331.9 2154.22 1332.79 2153.5 1333.68 2152.79 1334.74 2151.71 1335.95 2150.28L1338.87 2153.2C1336.36 2155.9 1334.09 2157.82 1332.06 2158.95 1330.03 2160.09 1327.95 2160.66 1325.82 2160.66 1323.14 2160.66 1321.06 2160.02 1319.58 2158.75 1318.09 2157.48 1317.01 2155.31 1316.34 2152.23L1314.19 2142.5C1314.05 2141.85 1313.88 2141.34 1313.66 2140.96 1313.44 2140.58 1313.16 2140.31 1312.81 2140.15 1312.46 2139.99 1311.93 2139.91 1311.23 2139.91L1310.22 2139.91 1305.8 2160.01 1294.17 2160.01 1304.42 2114.21C1305.02 2111.56 1305.31 2109.63 1305.31 2108.42 1305.31 2107.82 1305.25 2107.35 1305.13 2107.02 1305.01 2106.68 1304.83 2106.4 1304.58 2106.19 1304.34 2105.97 1304.02 2105.8 1303.61 2105.68 1303.2 2105.56 1302.41 2105.42 1301.22 2105.25L1301.87 2102.62Z" fill-rule="evenodd"/><text fill="#000000" fill-opacity="0" font-family="Arial,Arial_MSFontService,sans-serif" font-size="58.6836" x="1294.17" y="2153.32">ğ’Œ</text><path d="M1453.67 2035.85 1482.49 2035.85 1483.26 2037.87 1463.93 2060.08C1460.17 2064.38 1456.92 2068.03 1454.16 2071.02L1454.4 2071.31 1463.56 2071.31C1465.18 2071.31 1466.43 2071.22 1467.29 2071.04 1468.15 2070.87 1468.91 2070.54 1469.56 2070.05 1470.21 2069.57 1470.88 2068.83 1471.57 2067.84 1472.25 2066.86 1473.11 2065.31 1474.14 2063.2L1477.75 2063.2 1475.27 2074.59 1445.93 2074.59 1445.16 2072.6 1467.33 2047.07C1470.46 2043.48 1472.76 2040.93 1474.22 2039.41L1473.98 2039.13 1464.49 2039.13C1463.09 2039.13 1462.06 2039.22 1461.41 2039.41 1460.77 2039.6 1460.12 2039.93 1459.47 2040.41 1458.82 2040.88 1458.12 2041.58 1457.38 2042.51 1456.64 2043.45 1455.81 2044.78 1454.89 2046.51L1451.28 2046.51Z" fill-rule="evenodd"/><text fill="#000000" fill-opacity="0" font-family="Arial,Arial_MSFontService,sans-serif" font-size="38.7441" x="1445.16" y="2069.75">ğ‘§</text><text fill="#FF0000" font-family="Cambria Math,Cambria Math_MSFontService,sans-serif" font-weight="400" font-size="50" transform="matrix(1 0 0 1 1348.8 2054)">ğœƒ</text><text fill="#FF0000" font-family="Cambria Math,Cambria Math_MSFontService,sans-serif" font-weight="400" font-size="37" transform="matrix(1 0 0 1 1375.68 2064)">0</text><path d="M1377 2108.51C1391.24 2106.77 1404.9 2107.5 1417.15 2110.65" stroke="#FF0000" stroke-width="2.29167" stroke-miterlimit="8" stroke-dasharray="2.29167 2.29167" fill="none" fill-rule="evenodd"/><path d="M1729.46 2298.2C1730.3 2298.2 1731.04 2298.29 1731.67 2298.48 1732.31 2298.67 1732.87 2298.96 1733.36 2299.35 1733.84 2299.75 1734.27 2300.25 1734.65 2300.87 1735.03 2301.49 1735.4 2302.34 1735.75 2303.41 1736.1 2304.47 1736.43 2305.8 1736.74 2307.38 1737.05 2308.96 1737.33 2310.6 1737.57 2312.3L1737.98 2312.3C1740.57 2308.65 1742.54 2305.99 1743.87 2304.3 1745.21 2302.61 1746.34 2301.35 1747.26 2300.53 1748.18 2299.7 1749.06 2299.12 1749.91 2298.79 1750.76 2298.45 1751.89 2298.28 1753.3 2298.28 1754.56 2298.28 1755.61 2298.44 1756.42 2298.77L1754.79 2306.1 1751.96 2306.1C1751.8 2304.97 1751.32 2304.4 1750.54 2304.4 1750.3 2304.4 1750.04 2304.44 1749.77 2304.52 1749.5 2304.6 1749.17 2304.78 1748.78 2305.05 1748.38 2305.32 1747.81 2305.84 1747.05 2306.63 1746.3 2307.41 1745.45 2308.37 1744.5 2309.51 1743.55 2310.64 1742.58 2311.83 1741.58 2313.07L1738.83 2316.52C1739.31 2319.11 1739.77 2321.35 1740.2 2323.24 1740.64 2325.14 1741.02 2326.71 1741.36 2327.97 1741.7 2329.22 1741.99 2330.21 1742.25 2330.94 1742.51 2331.67 1742.78 2332.22 1743.08 2332.59 1743.38 2332.95 1743.68 2333.21 1743.99 2333.36 1744.3 2333.5 1744.66 2333.58 1745.07 2333.58 1745.8 2333.58 1746.51 2333.29 1747.2 2332.73 1747.88 2332.16 1748.88 2330.88 1750.17 2328.88L1752.81 2330.62C1750.92 2333.43 1749.21 2335.41 1747.68 2336.56 1746.16 2337.71 1744.34 2338.28 1742.23 2338.28 1741.07 2338.28 1740.08 2338.07 1739.27 2337.65 1738.46 2337.23 1737.76 2336.56 1737.17 2335.65 1736.57 2334.73 1736.04 2333.29 1735.58 2331.35 1734.75 2327.89 1734.23 2325.24 1734.04 2323.41L1733.64 2323.41C1730.78 2327.43 1728.65 2330.32 1727.26 2332.08 1725.86 2333.84 1724.72 2335.13 1723.81 2335.97 1722.91 2336.81 1722.03 2337.4 1721.18 2337.73 1720.33 2338.07 1719.2 2338.24 1717.79 2338.24 1716.52 2338.24 1715.48 2338.08 1714.67 2337.75L1716.29 2330.42 1719.13 2330.42C1719.29 2331.55 1719.77 2332.12 1720.55 2332.12 1720.93 2332.12 1721.33 2332.02 1721.74 2331.82 1722.16 2331.61 1722.76 2331.13 1723.55 2330.36 1724.33 2329.59 1725.41 2328.38 1726.79 2326.73 1728.17 2325.08 1730.17 2322.61 1732.79 2319.31 1732.38 2317.18 1731.96 2315.13 1731.53 2313.15 1731.1 2311.18 1730.65 2309.34 1730.19 2307.64 1729.74 2305.94 1729.36 2304.82 1729.06 2304.3 1728.76 2303.77 1728.45 2303.41 1728.11 2303.2 1727.77 2303 1727.34 2302.9 1726.83 2302.9 1726.26 2302.9 1725.75 2303.03 1725.29 2303.28 1724.83 2303.54 1724.33 2303.99 1723.79 2304.62 1723.25 2305.26 1722.53 2306.25 1721.64 2307.6L1719.01 2305.86C1720.71 2303.29 1722.35 2301.37 1723.91 2300.1 1725.48 2298.83 1727.33 2298.2 1729.46 2298.2Z" fill-rule="evenodd"/><text fill="#000000" fill-opacity="0" font-family="Arial,Arial_MSFontService,sans-serif" font-size="40.0815" x="1714.67" y="2333.27">ğ‘¥</text><text font-family="Arial,Arial_MSFontService,sans-serif" font-weight="400" font-size="83" transform="matrix(1 0 0 1 1663.65 2234)">medium 1</text><text font-family="Arial,Arial_MSFontService,sans-serif" font-weight="400" font-size="83" transform="matrix(1 0 0 1 1500.54 2494)">medium 2</text><path d="M1318.01 2001.45 1476 2291.61 1473.98 2292.7 1315.99 2002.55ZM1484.88 2281.56 1485.95 2312.28 1460.72 2294.71Z"/><path d="M1499.38 2372.72 1483.94 2413.25 1512.15 2413.25ZM1497.97 2363.77 1503.96 2363.77 1521.07 2417.14 1521.07 2419.73 1476.77 2419.73 1476.77 2417.14Z" fill-rule="evenodd"/><text fill="#000000" fill-opacity="0" font-family="Arial,Arial_MSFontService,sans-serif" font-size="55.9683" x="1476.77" y="2412.74">Î”</text><path d="M1.00228-0.55531 161.807 289.682 159.803 290.792-1.00228 0.55531ZM170.611 279.564 171.911 310.283 146.556 292.892Z" transform="matrix(1 0 0 -1 1518 2312.28)"/><path d="M1.00228-0.55531 161.807 289.682 159.803 290.792-1.00228 0.55531ZM170.611 279.564 171.911 310.283 146.556 292.892Z" transform="matrix(1 0 0 -1 1389 2308.28)"/><path d="M1520 2323C1520 2330.46 1518.99 2336.5 1517.75 2336.5L1502.25 2336.5C1501.01 2336.5 1500 2342.54 1500 2350 1500 2342.54 1498.99 2336.5 1497.75 2336.5L1482.25 2336.5C1481.01 2336.5 1480 2330.46 1480 2323" stroke="#000000" stroke-width="2.29167" stroke-miterlimit="8" fill="none" fill-rule="evenodd"/></g></svg>