<svg width="500" height="366" xmlns="http://www.w3.org/2000/svg" xmlns:xlink="http://www.w3.org/1999/xlink" xml:space="preserve" overflow="hidden"><g transform="translate(-257 -48)"><path d="M1.14583-1.61986e-06 1.14616 232.367-1.1455 232.367-1.14583 1.61986e-06ZM13.7503 227.783 0.000360892 255.283-13.7497 227.783Z" transform="matrix(1 0 0 -1 368 340.283)"/><path d="M365 339.854 650.463 339.854 650.463 342.146 365 342.146ZM645.879 327.25 673.379 341 645.879 354.75Z"/><path d="M0.895406-0.71497 2.32535 1.07584 0.534535 2.50578-0.895406 0.71497ZM3.75529 2.86665 5.18523 4.65747 3.39442 6.08741 1.96448 4.29659ZM6.61517 6.44828 8.04511 8.23909 6.2543 9.66903 4.82436 7.87822ZM9.47505 10.0299 10.905 11.8207 9.11418 13.2507 7.68424 11.4598ZM12.3349 13.6115 13.7649 15.4023 11.9741 16.8323 10.5441 15.0415ZM15.1948 17.1931 16.6248 18.984 14.8339 20.4139 13.404 18.6231ZM18.0547 20.7748 19.4846 22.5656 17.6938 23.9955 16.2639 22.2047ZM20.9146 24.3564 22.3445 26.1472 20.5537 27.5771 19.1238 25.7863ZM23.7745 27.938 25.2044 29.7288 23.4136 31.1588 21.9836 29.368ZM26.6343 31.5196 28.0643 33.3105 26.2735 34.7404 24.8435 32.9496ZM29.4942 35.1013 30.9242 36.8921 29.1333 38.322 27.7034 36.5312ZM32.3541 38.6829 33.784 40.4737 31.9932 41.9036 30.5633 40.1128ZM35.214 42.2645 36.6439 44.0553 34.8531 45.4853 33.4232 43.6945ZM38.0739 45.8461 39.5038 47.637 37.713 49.0669 36.283 47.2761ZM40.9337 49.4278 42.3637 51.2186 40.5729 52.6485 39.1429 50.8577ZM43.7936 53.0094 45.2236 54.8002 43.4327 56.2301 42.0028 54.4393ZM46.6535 56.591 48.0834 58.3818 46.2926 59.8118 44.8627 58.021ZM49.5134 60.1726 50.9433 61.9634 49.1525 63.3934 47.7226 61.6026ZM52.3733 63.7542 53.8032 65.5451 52.0124 66.975 50.5824 65.1842ZM55.2331 67.3359 56.6631 69.1267 54.8723 70.5566 53.4423 68.7658ZM58.093 70.9175 59.523 72.7083 57.7321 74.1382 56.3022 72.3474ZM60.9529 74.4991 62.3828 76.2899 60.592 77.7199 59.1621 75.9291ZM63.8128 78.0807 65.2427 79.8715 63.4519 81.3015 62.022 79.5107ZM66.6727 81.6623 68.1026 83.4532 66.3118 84.8831 64.8819 83.0923ZM69.5325 85.244 70.9625 87.0348 69.1717 88.4647 67.7417 86.6739ZM72.3924 88.8256 73.8224 90.6164 72.0315 92.0463 70.6016 90.2555ZM75.2523 92.4072 76.6822 94.198 74.8914 95.628 73.4615 93.8372ZM78.1122 95.9888 79.5421 97.7797 77.7513 99.2096 76.3214 97.4188ZM80.9721 99.5705 82.402 101.361 80.6112 102.791 79.1813 101ZM83.8319 103.152 85.2619 104.943 83.4711 106.373 82.0411 104.582ZM86.6918 106.734 88.1218 108.525 86.3309 109.954 84.901 108.164ZM89.5517 110.315 90.9816 112.106 89.1908 113.536 87.7609 111.745ZM92.4116 113.897 93.8415 115.688 92.0507 117.118 90.6208 115.327ZM95.2715 117.479 96.7014 119.269 94.9106 120.699 93.4807 118.909ZM98.1314 121.06 99.5613 122.851 97.7705 124.281 96.3405 122.49ZM100.991 124.642 102.421 126.433 100.63 127.863 99.2004 126.072ZM103.851 128.223 105.281 130.014 103.49 131.444 102.06 129.653ZM106.711 131.805 107.181 132.394 105.391 133.824 104.92 133.235ZM114.171 120.948 120.585 151.017 92.6812 138.107Z" transform="matrix(1 0 0 -1 368 341.017)"/><path d="M396 301C411.464 301 424 318.013 424 339 424 339.399 423.995 339.797 423.986 340.195" stroke="#00B0F0" stroke-width="2.29167" stroke-miterlimit="8" stroke-dasharray="2.29167 2.29167" fill="none" fill-rule="evenodd"/><text fill="#00B0F0" font-family="Cambria Math,Cambria Math_MSFontService,sans-serif" font-weight="400" font-size="50" transform="matrix(1 0 0 1 419.389 303)">𝜃</text><text fill="#FF0000" font-family="Cambria Math,Cambria Math_MSFontService,sans-serif" font-weight="400" font-size="50" transform="matrix(1 0 0 1 486.357 339)">𝜓</text><path d="M527.738 139.028C526.442 139.028 525.28 139.299 524.253 139.839 523.226 140.379 522.254 141.251 521.335 142.453 520.416 143.655 519.545 145.337 518.721 147.499 517.897 149.66 517.12 152.335 516.391 155.523L514.283 164.723C514.067 165.668 513.959 166.506 513.959 167.235 513.959 168.721 514.493 169.903 515.56 170.782 516.627 171.66 518.039 172.099 519.795 172.099 521.173 172.099 522.45 171.761 523.625 171.085 524.8 170.41 525.888 169.336 526.887 167.864 527.887 166.391 528.806 164.304 529.643 161.602 530.292 159.468 530.846 157.279 531.305 155.037 531.872 152.146 532.156 149.268 532.156 146.404 532.156 143.811 531.791 141.933 531.062 140.771 530.332 139.609 529.224 139.028 527.738 139.028ZM528.103 134.814C532.912 134.814 536.621 136.104 539.228 138.684 541.835 141.264 543.139 144.891 543.139 149.565 543.139 154.483 542.2 159.022 540.322 163.183 538.444 167.343 535.803 170.572 532.399 172.869 528.995 175.165 525.064 176.314 520.606 176.314 516.931 176.314 514.094 175.773 512.095 174.692L508.083 193.132 496.451 193.132 504.395 157.104C506.043 149.565 508.839 143.966 512.784 140.305 516.728 136.644 521.835 134.814 528.103 134.814Z" fill-rule="evenodd"/><text fill="#000000" fill-opacity="0" font-family="Arial,Arial_MSFontService,sans-serif" font-size="58.3188" x="496.451" y="185.843">𝝆</text><path d="M597.07 267.755C598.799 267.755 600.42 268.053 601.933 268.647L599.663 278.819 594.962 278.819C594.827 278.171 594.597 277.637 594.273 277.219 593.949 276.8 593.422 276.59 592.693 276.59 592.098 276.59 591.517 276.719 590.95 276.975 590.383 277.232 589.667 277.705 588.802 278.394 587.937 279.083 586.505 280.292 584.506 282.021L588.599 296.651C589.221 298.867 589.7 300.366 590.038 301.15 590.376 301.934 590.734 302.501 591.112 302.852 591.49 303.203 592.031 303.379 592.733 303.379 594.084 303.379 595.894 302.096 598.164 299.529L601.082 302.447C598.407 305.014 596.063 306.79 594.05 307.776 592.037 308.762 589.788 309.255 587.302 309.255 584.871 309.255 582.939 308.6 581.507 307.29 580.075 305.979 579.021 304.014 578.346 301.393L575.469 288.992C574.712 289.505 573.537 290.181 571.943 291.018L568.214 308.607 556.583 308.607 562.865 280.319C563.513 277.401 563.837 275.375 563.837 274.24 563.837 273.132 563.526 272.349 562.905 271.889 562.284 271.43 561.284 271.173 559.906 271.119L560.514 268.404 571.051 267.958 577.211 267.958 572.956 285.993C574.172 285.263 575.671 284.122 577.454 282.568 579.238 281.015 580.588 279.711 581.507 278.657 583.993 275.847 585.992 273.726 587.505 272.294 589.018 270.863 590.254 269.856 591.213 269.275 592.173 268.694 593.051 268.296 593.848 268.08 594.645 267.864 595.719 267.755 597.07 267.755Z" fill-rule="evenodd"/><text fill="#000000" fill-opacity="0" font-family="Arial,Arial_MSFontService,sans-serif" font-size="41.5" x="556.583" y="304.068">𝜿</text><path d="M0.399987-1.07375 2.54749-0.273779 1.74752 1.87373-0.399987 1.07375ZM4.695 0.526194 6.8425 1.32617 6.04253 3.47367 3.89502 2.6737ZM8.99001 2.12614 11.1375 2.92611 10.3375 5.07362 8.19003 4.27365ZM13.285 3.72609 15.4325 4.52606 14.6325 6.67357 12.485 5.87359ZM17.58 5.32604 19.7275 6.12601 18.9276 8.27351 16.7801 7.47354ZM21.875 6.92598 24.0225 7.72596 23.2226 9.87346 21.0751 9.07349ZM26.17 8.52593 28.3176 9.3259 27.5176 11.4734 25.3701 10.6734ZM30.4651 10.1259 32.6126 10.9258 31.8126 13.0734 29.6651 12.2734ZM34.7601 11.7258 36.9076 12.5258 36.1076 14.6733 33.9601 13.8733ZM39.0551 13.3258 41.2026 14.1257 40.4026 16.2732 38.2551 15.4733ZM43.3501 14.9257 45.4976 15.7257 44.6976 17.8732 42.5501 17.0732ZM47.6451 16.5257 49.7926 17.3256 48.9926 19.4731 46.8451 18.6732ZM51.9401 18.1256 54.0876 18.9256 53.2876 21.0731 51.1401 20.2731ZM56.2351 19.7256 58.3826 20.5255 57.5827 22.673 55.4351 21.8731ZM60.5301 21.3255 62.6776 22.1255 61.8777 24.273 59.7302 23.473ZM64.8251 22.9254 66.9727 23.7254 66.1727 25.8729 64.0252 25.073ZM69.1202 24.5254 71.2677 25.3254 70.4677 27.4729 68.3202 26.6729ZM73.4152 26.1253 75.5627 26.9253 74.7627 29.0728 72.6152 28.2729ZM77.7102 27.7253 79.8577 28.5253 79.0577 30.6728 76.9102 29.8728ZM82.0052 29.3252 84.1527 30.1252 83.3527 32.2727 81.2052 31.4727ZM86.3002 30.9252 88.4477 31.7252 87.6478 33.8727 85.5002 33.0727ZM90.5952 32.5251 92.7427 33.3251 91.9428 35.4726 89.7952 34.6726ZM94.8902 34.1251 97.0377 34.9251 96.2378 37.0726 94.0903 36.2726ZM99.1852 35.725 101.333 36.525 100.533 38.6725 98.3853 37.8725ZM103.48 37.325 105.628 38.125 104.828 40.2725 102.68 39.4725ZM107.775 38.9249 109.923 39.7249 109.123 41.8724 106.975 41.0724ZM112.07 40.5249 114.218 41.3249 113.418 43.4724 111.27 42.6724ZM116.365 42.1248 118.513 42.9248 117.713 45.0723 115.565 44.2723ZM120.66 43.7248 122.808 44.5247 122.008 46.6722 119.86 45.8723ZM124.955 45.3247 127.103 46.1247 126.303 48.2722 124.155 47.4722ZM129.25 46.9247 131.398 47.7246 130.598 49.8721 128.45 49.0722ZM133.545 48.5246 135.693 49.3246 134.893 51.4721 132.745 50.6721ZM137.84 50.1246 139.988 50.9245 139.188 53.072 137.04 52.2721ZM142.135 51.7245 144.283 52.5245 143.483 54.672 141.335 53.872ZM146.43 53.3245 148.578 54.1244 147.778 56.2719 145.63 55.472ZM150.725 54.9244 152.873 55.7244 152.073 57.8719 149.925 57.0719ZM153.598 42.5441 174.568 65.0288 143.998 68.3142Z" transform="matrix(1 0 0 -1 370 339.029)"/><path d="M445.941 311.825C452.552 319.314 456.257 330.514 455.986 342.195" stroke="#FF0000" stroke-width="2.29167" stroke-miterlimit="8" stroke-dasharray="2.29167 2.29167" fill="none" fill-rule="evenodd"/><path d="M446.594 240.674C460.945 239.956 476.799 257.669 482.005 280.235 483.2 285.417 483.758 290.583 483.648 295.458" stroke="#000000" stroke-width="2.29167" stroke-miterlimit="8" stroke-dasharray="2.29167 2.29167" fill="none" fill-rule="evenodd"/><text font-family="Cambria Math,Cambria Math_MSFontService,sans-serif" font-weight="400" font-size="50" transform="matrix(1 0 0 1 502.759 240)">𝜃</text><text font-family="Cambria Math,Cambria Math_MSFontService,sans-serif" font-weight="400" font-size="50" transform="matrix(1 0 0 1 544.078 240)">−</text><text font-family="Cambria Math,Cambria Math_MSFontService,sans-serif" font-weight="400" font-size="50" transform="matrix(1 0 0 1 593.097 240)">𝜓</text><path d="M711.359 334.535C712.196 334.535 712.933 334.629 713.568 334.818 714.202 335.008 714.763 335.298 715.249 335.69 715.736 336.082 716.168 336.588 716.546 337.21 716.924 337.831 717.289 338.675 717.641 339.743 717.992 340.81 718.323 342.134 718.633 343.714 718.944 345.295 719.221 346.936 719.464 348.638L719.87 348.638C722.463 344.991 724.429 342.323 725.766 340.634 727.104 338.945 728.232 337.689 729.15 336.865 730.069 336.041 730.954 335.46 731.805 335.122 732.656 334.785 733.784 334.616 735.189 334.616 736.459 334.616 737.499 334.778 738.309 335.102L736.688 342.438 733.851 342.438C733.689 341.303 733.216 340.735 732.433 340.735 732.19 340.735 731.933 340.776 731.663 340.857 731.393 340.938 731.062 341.114 730.67 341.384 730.278 341.654 729.704 342.181 728.948 342.964 728.191 343.748 727.34 344.707 726.394 345.842 725.449 346.977 724.476 348.165 723.476 349.408L720.721 352.853C721.207 355.447 721.666 357.689 722.099 359.581 722.531 361.472 722.916 363.046 723.254 364.302 723.591 365.558 723.888 366.551 724.145 367.281 724.402 368.01 724.679 368.557 724.976 368.922 725.273 369.287 725.577 369.544 725.888 369.692 726.199 369.841 726.557 369.915 726.962 369.915 727.691 369.915 728.401 369.631 729.089 369.064 729.778 368.497 730.771 367.213 732.068 365.214L734.703 366.957C732.811 369.767 731.102 371.746 729.576 372.894 728.049 374.042 726.232 374.616 724.125 374.616 722.963 374.616 721.977 374.407 721.166 373.988 720.356 373.569 719.653 372.901 719.059 371.982 718.465 371.063 717.938 369.631 717.478 367.686 716.641 364.228 716.128 361.58 715.938 359.743L715.533 359.743C712.669 363.768 710.541 366.659 709.15 368.416 707.759 370.172 706.61 371.469 705.705 372.306 704.8 373.144 703.922 373.731 703.071 374.069 702.22 374.407 701.092 374.576 699.687 374.576 698.417 374.576 697.377 374.414 696.566 374.089L698.187 366.754 701.024 366.754C701.186 367.889 701.659 368.456 702.443 368.456 702.821 368.456 703.22 368.355 703.638 368.152 704.057 367.95 704.658 367.463 705.442 366.693 706.225 365.923 707.306 364.714 708.684 363.066 710.062 361.418 712.061 358.946 714.682 355.65 714.277 353.515 713.858 351.462 713.426 349.489 712.993 347.517 712.548 345.68 712.088 343.978 711.629 342.275 711.251 341.161 710.953 340.634 710.656 340.107 710.339 339.743 710.001 339.54 709.663 339.337 709.238 339.236 708.724 339.236 708.157 339.236 707.644 339.364 707.184 339.621 706.725 339.878 706.225 340.323 705.685 340.958 705.145 341.593 704.429 342.586 703.537 343.937L700.903 342.194C702.605 339.628 704.239 337.709 705.807 336.44 707.374 335.17 709.224 334.535 711.359 334.535Z" fill-rule="evenodd"/><text fill="#000000" fill-opacity="0" font-family="Arial,Arial_MSFontService,sans-serif" font-size="40.0815" x="696.566" y="369.606">𝑥</text><path d="M304.439 101.708C305.546 101.708 306.492 101.857 307.276 102.154 307.816 102.37 308.356 102.728 308.897 103.228 309.437 103.728 309.917 104.423 310.335 105.315 310.754 106.207 311.119 107.206 311.43 108.314 311.74 109.422 312.085 111.016 312.463 113.096 313.111 116.582 313.74 120.249 314.348 124.099 314.955 127.949 315.476 131.523 315.908 134.819 318.529 131.036 320.751 127.335 322.575 123.714 324.398 120.094 325.709 116.946 326.506 114.272 327.303 111.597 327.701 109.422 327.701 107.747 327.701 106.477 327.431 105.612 326.891 105.153 326.35 104.694 325.432 104.423 324.135 104.342L324.54 102.356 335.199 102.356 336.293 104.383C334.24 110.003 331.457 116.014 327.944 122.418 324.486 128.686 320.528 134.927 316.07 141.141 311.801 147.058 308.248 151.341 305.411 153.988 303.439 155.799 301.534 157.095 299.697 157.879 298.238 158.473 296.684 158.771 295.036 158.771 294.469 158.771 293.814 158.723 293.071 158.629 292.328 158.534 291.754 158.406 291.348 158.244L293.091 150.381 296.293 150.381C296.293 152.111 296.887 152.975 298.076 152.975 299.643 152.975 301.467 151.996 303.547 150.037 305.627 148.078 308.073 145.126 310.882 141.182 310.099 136.453 309.032 130.753 307.681 124.079 306.249 116.946 305.303 112.529 304.844 110.827 304.276 108.773 303.682 107.463 303.061 106.896 302.682 106.544 302.21 106.369 301.642 106.369 300.778 106.369 299.967 106.72 299.211 107.422 298.454 108.125 297.522 109.341 296.414 111.07L293.78 109.327C295.644 106.544 297.387 104.579 299.008 103.43 300.629 102.282 302.439 101.708 304.439 101.708Z" fill-rule="evenodd"/><text fill="#000000" fill-opacity="0" font-family="Arial,Arial_MSFontService,sans-serif" font-size="57.0625" x="291.348" y="151.638">𝑦</text></g></svg>