<svg width="536" height="441" xmlns="http://www.w3.org/2000/svg" xmlns:xlink="http://www.w3.org/1999/xlink" xml:space="preserve" overflow="hidden"><g transform="translate(-1547 -800)"><path d="M1.14583-1.61986e-06 1.14616 232.367-1.1455 232.367-1.14583 1.61986e-06ZM13.7503 227.783 0.000360892 255.283-13.7497 227.783Z" transform="matrix(1 0 0 -1 1749 1083.28)"/><path d="M1746 1081.85 2031.46 1081.85 2031.46 1084.15 1746 1084.15ZM2026.88 1069.25 2054.38 1083 2026.88 1096.75Z"/><path d="M0.649935-0.943673 155.026 105.38 153.726 107.267-0.649935 0.943673ZM158.4 92.3993 173.249 119.322 142.802 115.047Z" transform="matrix(-1 0 0 1 1748.25 1083)"/><path d="M1636 1160 1870.31 1160" stroke="#000000" stroke-width="2.29167" stroke-miterlimit="8" stroke-dasharray="9.16667 6.875" fill="none" fill-rule="evenodd"/><path d="M0 0 82.456 69.6851" stroke="#000000" stroke-width="2.29167" stroke-miterlimit="8" stroke-dasharray="9.16667 6.875" fill="none" fill-rule="evenodd" transform="matrix(1 0 0 -1 1874 1157.69)"/><path d="M0 0 0.000360892 227.458" stroke="#000000" stroke-width="2.29167" stroke-miterlimit="8" stroke-dasharray="9.16667 6.875" fill="none" fill-rule="evenodd" transform="matrix(1 0 0 -1 1869 1159.46)"/><path d="M0.895406-0.71497 2.32535 1.07584 0.534535 2.50578-0.895406 0.71497ZM3.75529 2.86665 5.18523 4.65747 3.39442 6.08741 1.96448 4.29659ZM6.61517 6.44828 8.04511 8.23909 6.2543 9.66903 4.82436 7.87822ZM9.47505 10.0299 10.905 11.8207 9.11418 13.2507 7.68424 11.4598ZM12.3349 13.6115 13.7649 15.4023 11.9741 16.8323 10.5441 15.0415ZM15.1948 17.1931 16.6248 18.984 14.8339 20.4139 13.404 18.6231ZM18.0547 20.7748 19.4846 22.5656 17.6938 23.9955 16.2639 22.2047ZM20.9146 24.3564 22.3445 26.1472 20.5537 27.5771 19.1238 25.7863ZM23.7745 27.938 25.2044 29.7288 23.4136 31.1588 21.9836 29.368ZM26.6343 31.5196 28.0643 33.3105 26.2735 34.7404 24.8435 32.9496ZM29.4942 35.1013 30.9242 36.8921 29.1333 38.322 27.7034 36.5312ZM32.3541 38.6829 33.784 40.4737 31.9932 41.9036 30.5633 40.1128ZM35.214 42.2645 36.6439 44.0553 34.8531 45.4853 33.4232 43.6945ZM38.0739 45.8461 39.5038 47.637 37.713 49.0669 36.283 47.2761ZM40.9337 49.4278 42.3637 51.2186 40.5729 52.6485 39.1429 50.8577ZM43.7936 53.0094 45.2236 54.8002 43.4327 56.2301 42.0028 54.4393ZM46.6535 56.591 48.0834 58.3818 46.2926 59.8118 44.8627 58.021ZM49.5134 60.1726 50.9433 61.9634 49.1525 63.3934 47.7226 61.6026ZM52.3733 63.7542 53.8032 65.5451 52.0124 66.975 50.5824 65.1842ZM55.2331 67.3359 56.6631 69.1267 54.8723 70.5566 53.4423 68.7658ZM58.093 70.9175 59.523 72.7083 57.7321 74.1382 56.3022 72.3474ZM60.9529 74.4991 62.3828 76.2899 60.592 77.7199 59.1621 75.9291ZM63.8128 78.0807 65.2427 79.8715 63.4519 81.3015 62.022 79.5107ZM66.6727 81.6623 68.1026 83.4532 66.3118 84.8831 64.8819 83.0923ZM69.5325 85.244 70.9625 87.0348 69.1717 88.4647 67.7417 86.6739ZM72.3924 88.8256 73.8224 90.6164 72.0315 92.0463 70.6016 90.2555ZM75.2523 92.4072 76.6822 94.198 74.8914 95.628 73.4615 93.8372ZM78.1122 95.9888 79.5421 97.7797 77.7513 99.2096 76.3214 97.4188ZM80.9721 99.5705 82.402 101.361 80.6112 102.791 79.1813 101ZM83.8319 103.152 85.2619 104.943 83.4711 106.373 82.0411 104.582ZM86.6918 106.734 88.1218 108.525 86.3309 109.954 84.901 108.164ZM89.5517 110.315 90.9816 112.106 89.1908 113.536 87.7609 111.745ZM92.4116 113.897 93.8415 115.688 92.0507 117.118 90.6208 115.327ZM95.2715 117.479 96.7014 119.269 94.9106 120.699 93.4807 118.909ZM98.1314 121.06 99.5613 122.851 97.7705 124.281 96.3405 122.49ZM100.991 124.642 102.421 126.433 100.63 127.863 99.2004 126.072ZM103.851 128.223 105.281 130.014 103.49 131.444 102.06 129.653ZM106.711 131.805 107.181 132.394 105.391 133.824 104.92 133.235ZM114.171 120.948 120.585 151.017 92.6812 138.107Z" transform="matrix(1 0 0 -1 1749 1083.02)"/><path d="M1748.5 969C1781.91 969 1809 989.371 1809 1014.5" stroke="#000000" stroke-width="2.29167" stroke-miterlimit="8" stroke-dasharray="2.29167 2.29167" fill="none" fill-rule="evenodd"/><path d="M1781.98 885.581C1784.63 885.581 1786.56 886.594 1787.78 888.621 1788.99 890.647 1789.6 893.984 1789.6 898.631 1789.6 904.089 1789.35 910.006 1788.83 916.382L1789.2 916.382C1795.76 905.358 1801.19 895.308 1805.49 886.229L1813.96 886.229 1813.43 888.175C1810.81 891.336 1806.98 896.537 1801.92 903.778 1796.87 911.019 1792.16 918.206 1787.78 925.338 1786.89 930.958 1785.75 936.254 1784.37 941.225L1778.34 941.225 1777.16 939.32C1778.24 935.078 1780.17 930.404 1782.96 925.298 1783.2 920.191 1783.32 914.977 1783.32 909.654 1783.32 905.142 1783.23 901.643 1783.04 899.158 1782.85 896.672 1782.57 894.801 1782.21 893.545 1781.84 892.288 1781.41 891.424 1780.91 890.951 1780.41 890.478 1779.8 890.242 1779.07 890.242 1777.55 890.242 1775.81 891.336 1773.84 893.524L1771.57 891.255C1772.86 890.093 1773.87 889.215 1774.59 888.621 1775.3 888.026 1776.05 887.499 1776.82 887.04 1777.59 886.581 1778.38 886.223 1779.21 885.966 1780.03 885.709 1780.96 885.581 1781.98 885.581Z" fill-rule="evenodd"/><text fill="#000000" fill-opacity="0" font-family="Arial,Arial_MSFontService,sans-serif" font-size="55.644" x="1771.57" y="934.27">𝛾</text><path d="M1778.89 1115.93C1756.57 1140.7 1720.17 1144.29 1697.59 1123.94" stroke="#000000" stroke-width="2.29167" stroke-miterlimit="8" stroke-dasharray="2.29167 2.29167" fill="none" fill-rule="evenodd"/><path d="M1733.97 1146.13 1740.37 1146.13 1728.54 1199.83C1732.35 1199.59 1735.67 1198.44 1738.49 1196.37 1741.31 1194.3 1743.5 1191.46 1745.05 1187.86 1746.61 1184.25 1747.38 1180.19 1747.38 1175.68 1747.38 1172.49 1746.89 1169.34 1745.89 1166.24L1746.37 1164.21 1753.55 1164.21C1753.95 1166.18 1754.15 1168.48 1754.15 1171.1 1754.15 1177.15 1753.07 1182.65 1750.91 1187.59 1748.75 1192.54 1745.67 1196.39 1741.67 1199.14 1737.67 1201.9 1733.04 1203.36 1727.77 1203.52L1724.04 1220.38 1717.64 1220.38 1721.37 1203.4C1711.26 1202.45 1706.21 1198.17 1706.21 1190.55 1706.21 1188.53 1706.65 1185.69 1707.55 1182.04L1708.8 1177.02C1709.48 1174.31 1709.82 1172.38 1709.82 1171.22 1709.82 1170.14 1709.62 1169.37 1709.23 1168.91 1708.84 1168.45 1708.28 1168.22 1707.55 1168.22 1706.71 1168.22 1705.91 1168.49 1705.14 1169.01 1704.37 1169.54 1703.59 1170.21 1702.8 1171.02L1700.58 1168.79C1702.6 1166.87 1704.37 1165.52 1705.86 1164.74 1707.36 1163.95 1708.87 1163.56 1710.38 1163.56 1712.41 1163.56 1713.97 1164.17 1715.06 1165.39 1716.16 1166.6 1716.71 1168.36 1716.71 1170.65 1716.71 1172.28 1716.37 1174.46 1715.69 1177.22L1714.19 1183.22C1713.92 1184.3 1713.67 1185.61 1713.42 1187.15 1713.18 1188.69 1713.06 1189.94 1713.06 1190.92 1713.06 1193.78 1713.83 1195.92 1715.37 1197.34 1716.91 1198.76 1719.18 1199.62 1722.18 1199.91Z" fill-rule="evenodd"/><text fill="#000000" fill-opacity="0" font-family="Arial,Arial_MSFontService,sans-serif" font-size="74.2461" x="1700.58" y="1211.1">𝜓</text><path d="M1903.28 899.158 1907.86 899.158 1900.32 933.282 1901.13 933.282C1902.11 933.282 1903.02 933.107 1903.89 932.755 1904.94 932.323 1906.24 931.553 1907.78 930.445 1909.86 928.905 1911.33 927.703 1912.2 926.838 1913.06 925.974 1913.66 925.156 1914 924.386 1914.34 923.616 1914.51 922.826 1914.51 922.016 1914.51 921.394 1914.34 920.867 1914 920.435 1913.66 920.003 1913.06 919.746 1912.2 919.665L1912.85 916.99 1927.27 916.99 1928.29 919.625C1926.61 921.462 1924.36 923.461 1921.52 925.623L1912.4 932.472 1916.57 947.264C1917.06 949.02 1917.51 950.209 1917.93 950.831 1918.35 951.452 1918.94 951.763 1919.69 951.763 1920.4 951.763 1921.19 951.405 1922.09 950.689 1922.98 949.973 1924.03 948.899 1925.25 947.467L1928.16 950.385C1925.65 953.087 1923.38 955.005 1921.36 956.14 1919.33 957.274 1917.25 957.842 1915.11 957.842 1912.44 957.842 1910.36 957.207 1908.87 955.937 1907.39 954.667 1906.31 952.492 1905.63 949.412L1903.48 939.686C1903.35 939.037 1903.17 938.524 1902.96 938.146 1902.74 937.767 1902.46 937.497 1902.11 937.335 1901.75 937.173 1901.23 937.092 1900.53 937.092L1899.51 937.092 1895.09 957.193 1883.46 957.193 1893.72 911.397C1894.31 908.75 1894.61 906.818 1894.61 905.602 1894.61 905.008 1894.55 904.542 1894.43 904.204 1894.3 903.866 1894.12 903.589 1893.88 903.373 1893.64 903.157 1893.31 902.988 1892.91 902.866 1892.5 902.745 1891.7 902.603 1890.51 902.441L1891.16 899.807Z" fill-rule="evenodd"/><text fill="#000000" fill-opacity="0" font-family="Arial,Arial_MSFontService,sans-serif" font-size="58.6836" x="1883.46" y="950.506">𝒌</text><path d="M1907.01 1176.8C1908.74 1176.8 1910.36 1177.1 1911.88 1177.69L1909.61 1187.87 1904.91 1187.87C1904.77 1187.22 1904.54 1186.68 1904.22 1186.27 1903.89 1185.85 1903.37 1185.64 1902.64 1185.64 1902.04 1185.64 1901.46 1185.77 1900.89 1186.02 1900.33 1186.28 1899.61 1186.75 1898.75 1187.44 1897.88 1188.13 1896.45 1189.34 1894.45 1191.07L1898.54 1205.7C1899.16 1207.91 1899.64 1209.41 1899.98 1210.2 1900.32 1210.98 1900.68 1211.55 1901.06 1211.9 1901.43 1212.25 1901.97 1212.43 1902.68 1212.43 1904.03 1212.43 1905.84 1211.14 1908.11 1208.58L1911.03 1211.49C1908.35 1214.06 1906.01 1215.84 1903.99 1216.82 1901.98 1217.81 1899.73 1218.3 1897.25 1218.3 1894.81 1218.3 1892.88 1217.65 1891.45 1216.34 1890.02 1215.03 1888.96 1213.06 1888.29 1210.44L1885.41 1198.04C1884.66 1198.55 1883.48 1199.23 1881.89 1200.07L1878.16 1217.65 1866.53 1217.65 1872.81 1189.37C1873.46 1186.45 1873.78 1184.42 1873.78 1183.29 1873.78 1182.18 1873.47 1181.4 1872.85 1180.94 1872.23 1180.48 1871.23 1180.22 1869.85 1180.17L1870.46 1177.45 1880.99 1177.01 1887.15 1177.01 1882.9 1195.04C1884.11 1194.31 1885.61 1193.17 1887.4 1191.62 1889.18 1190.06 1890.53 1188.76 1891.45 1187.7 1893.94 1184.89 1895.94 1182.77 1897.45 1181.34 1898.96 1179.91 1900.2 1178.9 1901.16 1178.32 1902.12 1177.74 1902.99 1177.34 1903.79 1177.13 1904.59 1176.91 1905.66 1176.8 1907.01 1176.8Z" fill-rule="evenodd"/><text fill="#000000" fill-opacity="0" font-family="Arial,Arial_MSFontService,sans-serif" font-size="41.5" x="1866.53" y="1213.12">𝜿</text><path d="M1751.67 1081.07 1753.53 1082.41 1752.19 1084.27 1750.33 1082.93ZM1755.39 1083.76 1757.24 1085.1 1755.9 1086.96 1754.04 1085.61ZM1759.1 1086.44 1760.96 1087.79 1759.61 1089.64 1757.76 1088.3ZM1762.81 1089.13 1764.67 1090.47 1763.33 1092.33 1761.47 1090.99ZM1766.53 1091.82 1768.38 1093.16 1767.04 1095.02 1765.18 1093.67ZM1770.24 1094.5 1772.1 1095.84 1770.76 1097.7 1768.9 1096.36ZM1773.95 1097.19 1775.81 1098.53 1774.47 1100.39 1772.61 1099.04ZM1777.67 1099.87 1779.53 1101.22 1778.18 1103.07 1776.33 1101.73ZM1781.38 1102.56 1783.24 1103.9 1781.9 1105.76 1780.04 1104.42ZM1785.1 1105.24 1786.95 1106.59 1785.61 1108.44 1783.75 1107.1ZM1788.81 1107.93 1790.67 1109.27 1789.32 1111.13 1787.47 1109.79ZM1792.52 1110.62 1794.38 1111.96 1793.04 1113.82 1791.18 1112.47ZM1796.24 1113.3 1798.1 1114.65 1796.75 1116.5 1794.9 1115.16ZM1799.95 1115.99 1801.81 1117.33 1800.47 1119.19 1798.61 1117.84ZM1803.67 1118.67 1805.52 1120.02 1804.18 1121.87 1802.32 1120.53ZM1807.38 1121.36 1809.24 1122.7 1807.89 1124.56 1806.04 1123.22ZM1811.09 1124.05 1812.95 1125.39 1811.61 1127.25 1809.75 1125.9ZM1814.81 1126.73 1816.66 1128.07 1815.32 1129.93 1813.46 1128.59ZM1818.52 1129.42 1820.38 1130.76 1819.04 1132.62 1817.18 1131.27ZM1822.24 1132.1 1824.09 1133.45 1822.75 1135.3 1820.89 1133.96ZM1825.95 1134.79 1827.81 1136.13 1826.46 1137.99 1824.61 1136.65ZM1829.66 1137.47 1831.52 1138.82 1830.18 1140.67 1828.32 1139.33ZM1833.38 1140.16 1835.23 1141.5 1833.89 1143.36 1832.03 1142.02ZM1837.09 1142.85 1838.95 1144.19 1837.61 1146.05 1835.75 1144.7ZM1840.81 1145.53 1842.66 1146.88 1841.32 1148.73 1839.46 1147.39ZM1844.52 1148.22 1846.38 1149.56 1845.03 1151.42 1843.18 1150.08ZM1848.23 1150.9 1850.09 1152.25 1848.75 1154.1 1846.89 1152.76ZM1851.95 1153.59 1853.72 1154.87 1852.38 1156.73 1850.6 1155.45ZM1857.39 1141.97 1871.62 1169.23 1841.28 1164.26Z"/></g></svg>