<svg width="710" height="502" xmlns="http://www.w3.org/2000/svg" xmlns:xlink="http://www.w3.org/1999/xlink" xml:space="preserve" overflow="hidden"><g transform="translate(-2330 -165)"><path d="M1.14583-1.61986e-06 1.14616 232.367-1.1455 232.367-1.14583 1.61986e-06ZM13.7503 227.783 0.000360892 255.283-13.7497 227.783Z" transform="matrix(1 0 0 -1 2531 448.283)"/><path d="M2529 446.854 2814.46 446.854 2814.46 449.146 2529 449.146ZM2809.88 434.25 2837.38 448 2809.88 461.75Z"/><path d="M0.649935-0.943673 155.026 105.38 153.726 107.267-0.649935 0.943673ZM158.4 92.3993 173.249 119.322 142.802 115.047Z" transform="matrix(-1 0 0 1 2531.25 448)"/><path d="M2419 525 2653.31 525" stroke="#000000" stroke-width="2.29167" stroke-miterlimit="8" stroke-dasharray="9.16667 6.875" fill="none" fill-rule="evenodd"/><path d="M0 0 82.456 69.6851" stroke="#000000" stroke-width="2.29167" stroke-miterlimit="8" stroke-dasharray="9.16667 6.875" fill="none" fill-rule="evenodd" transform="matrix(1 0 0 -1 2656 522.685)"/><path d="M0 0 0.000360892 227.458" stroke="#000000" stroke-width="2.29167" stroke-miterlimit="8" stroke-dasharray="9.16667 6.875" fill="none" fill-rule="evenodd" transform="matrix(1 0 0 -1 2652 524.458)"/><path d="M0.895406-0.71497 2.32535 1.07584 0.534535 2.50578-0.895406 0.71497ZM3.75529 2.86665 5.18523 4.65747 3.39442 6.08741 1.96448 4.29659ZM6.61517 6.44828 8.04511 8.23909 6.2543 9.66903 4.82436 7.87822ZM9.47505 10.0299 10.905 11.8207 9.11418 13.2507 7.68424 11.4598ZM12.3349 13.6115 13.7649 15.4023 11.9741 16.8323 10.5441 15.0415ZM15.1948 17.1931 16.6248 18.984 14.8339 20.4139 13.404 18.6231ZM18.0547 20.7748 19.4846 22.5656 17.6938 23.9955 16.2639 22.2047ZM20.9146 24.3564 22.3445 26.1472 20.5537 27.5771 19.1238 25.7863ZM23.7745 27.938 25.2044 29.7288 23.4136 31.1588 21.9836 29.368ZM26.6343 31.5196 28.0643 33.3105 26.2735 34.7404 24.8435 32.9496ZM29.4942 35.1013 30.9242 36.8921 29.1333 38.322 27.7034 36.5312ZM32.3541 38.6829 33.784 40.4737 31.9932 41.9036 30.5633 40.1128ZM35.214 42.2645 36.6439 44.0553 34.8531 45.4853 33.4232 43.6945ZM38.0739 45.8461 39.5038 47.637 37.713 49.0669 36.283 47.2761ZM40.9337 49.4278 42.3637 51.2186 40.5729 52.6485 39.1429 50.8577ZM43.7936 53.0094 45.2236 54.8002 43.4327 56.2301 42.0028 54.4393ZM46.6535 56.591 48.0834 58.3818 46.2926 59.8118 44.8627 58.021ZM49.5134 60.1726 50.9433 61.9634 49.1525 63.3934 47.7226 61.6026ZM52.3733 63.7542 53.8032 65.5451 52.0124 66.975 50.5824 65.1842ZM55.2331 67.3359 56.6631 69.1267 54.8723 70.5566 53.4423 68.7658ZM58.093 70.9175 59.523 72.7083 57.7321 74.1382 56.3022 72.3474ZM60.9529 74.4991 62.3828 76.2899 60.592 77.7199 59.1621 75.9291ZM63.8128 78.0807 65.2427 79.8715 63.4519 81.3015 62.022 79.5107ZM66.6727 81.6623 68.1026 83.4532 66.3118 84.8831 64.8819 83.0923ZM69.5325 85.244 70.9625 87.0348 69.1717 88.4647 67.7417 86.6739ZM72.3924 88.8256 73.8224 90.6164 72.0315 92.0463 70.6016 90.2555ZM75.2523 92.4072 76.6822 94.198 74.8914 95.628 73.4615 93.8372ZM78.1122 95.9888 79.5421 97.7797 77.7513 99.2096 76.3214 97.4188ZM80.9721 99.5705 82.402 101.361 80.6112 102.791 79.1813 101ZM83.8319 103.152 85.2619 104.943 83.4711 106.373 82.0411 104.582ZM86.6918 106.734 88.1218 108.525 86.3309 109.954 84.901 108.164ZM89.5517 110.315 90.9816 112.106 89.1908 113.536 87.7609 111.745ZM92.4116 113.897 93.8415 115.688 92.0507 117.118 90.6208 115.327ZM95.2715 117.479 96.7014 119.269 94.9106 120.699 93.4807 118.909ZM98.1314 121.06 99.5613 122.851 97.7705 124.281 96.3405 122.49ZM100.991 124.642 102.421 126.433 100.63 127.863 99.2004 126.072ZM103.851 128.223 105.281 130.014 103.49 131.444 102.06 129.653ZM106.711 131.805 107.181 132.394 105.391 133.824 104.92 133.235ZM114.171 120.948 120.585 151.017 92.6812 138.107Z" transform="matrix(1 0 0 -1 2531 448.017)"/><path d="M2530.5 334C2563.91 334 2591 354.371 2591 379.5" stroke="#000000" stroke-width="2.29167" stroke-miterlimit="8" stroke-dasharray="2.29167 2.29167" fill="none" fill-rule="evenodd"/><path d="M2564.56 250.723C2567.2 250.723 2569.14 251.736 2570.35 253.762 2571.57 255.789 2572.18 259.125 2572.18 263.772 2572.18 269.23 2571.92 275.147 2571.41 281.523L2571.77 281.523C2578.34 270.5 2583.77 260.449 2588.06 251.371L2596.53 251.371 2596.01 253.316C2593.38 256.478 2589.55 261.679 2584.5 268.919 2579.44 276.16 2574.73 283.347 2570.35 290.48 2569.46 296.1 2568.32 301.395 2566.95 306.367L2560.91 306.367 2559.73 304.462C2560.81 300.22 2562.75 295.546 2565.53 290.439 2565.77 285.333 2565.89 280.118 2565.89 274.796 2565.89 270.284 2565.8 266.785 2565.61 264.299 2565.42 261.814 2565.14 259.943 2564.78 258.686 2564.41 257.43 2563.98 256.565 2563.48 256.093 2562.98 255.62 2562.37 255.383 2561.64 255.383 2560.12 255.383 2558.38 256.478 2556.41 258.666L2554.14 256.396C2555.44 255.235 2556.44 254.357 2557.16 253.762 2557.88 253.168 2558.62 252.641 2559.39 252.182 2560.16 251.722 2560.96 251.364 2561.78 251.108 2562.6 250.851 2563.53 250.723 2564.56 250.723Z" fill-rule="evenodd"/><text fill="#000000" fill-opacity="0" font-family="Arial,Arial_MSFontService,sans-serif" font-size="55.644" x="2554.14" y="299.411">ğ›¾</text><path d="M2561.46 481.068C2539.14 505.839 2502.74 509.428 2480.16 489.083" stroke="#000000" stroke-width="2.29167" stroke-miterlimit="8" stroke-dasharray="2.29167 2.29167" fill="none" fill-rule="evenodd"/><path d="M2516.54 511.276 2522.95 511.276 2511.11 564.975C2514.92 564.732 2518.24 563.577 2521.06 561.51 2523.89 559.443 2526.07 556.606 2527.63 552.999 2529.18 549.392 2529.96 545.333 2529.96 540.821 2529.96 537.633 2529.46 534.485 2528.46 531.378L2528.94 529.352 2536.12 529.352C2536.52 531.324 2536.73 533.621 2536.73 536.241 2536.73 542.293 2535.64 547.792 2533.48 552.736 2531.32 557.68 2528.24 561.53 2524.24 564.286 2520.24 567.042 2515.61 568.501 2510.34 568.663L2506.61 585.523 2500.21 585.523 2503.94 568.542C2493.83 567.596 2488.78 563.314 2488.78 555.694 2488.78 553.668 2489.23 550.831 2490.12 547.184L2491.38 542.158C2492.05 539.456 2492.39 537.525 2492.39 536.363 2492.39 535.282 2492.19 534.512 2491.8 534.053 2491.41 533.594 2490.85 533.364 2490.12 533.364 2489.28 533.364 2488.48 533.627 2487.71 534.154 2486.94 534.681 2486.16 535.35 2485.38 536.16L2483.15 533.931C2485.17 532.013 2486.94 530.662 2488.44 529.879 2489.94 529.095 2491.44 528.703 2492.96 528.703 2494.98 528.703 2496.54 529.311 2497.64 530.527 2498.73 531.743 2499.28 533.499 2499.28 535.796 2499.28 537.417 2498.94 539.605 2498.26 542.361L2496.77 548.359C2496.5 549.44 2496.24 550.75 2496 552.29 2495.75 553.83 2495.63 555.087 2495.63 556.059 2495.63 558.923 2496.4 561.064 2497.94 562.483 2499.48 563.901 2501.75 564.759 2504.75 565.056Z" fill-rule="evenodd"/><text fill="#000000" fill-opacity="0" font-family="Arial,Arial_MSFontService,sans-serif" font-size="74.2461" x="2483.15" y="576.242">ğœ“</text><path d="M2685.85 264.3 2690.43 264.3 2682.89 298.424 2683.71 298.424C2684.68 298.424 2685.6 298.248 2686.46 297.897 2687.51 297.465 2688.81 296.695 2690.35 295.587 2692.43 294.047 2693.9 292.845 2694.77 291.98 2695.63 291.115 2696.24 290.298 2696.57 289.528 2696.91 288.758 2697.08 287.968 2697.08 287.157 2697.08 286.536 2696.91 286.009 2696.57 285.577 2696.24 285.144 2695.63 284.888 2694.77 284.807L2695.42 282.132 2709.85 282.132 2710.86 284.766C2709.18 286.603 2706.93 288.603 2704.09 290.764L2694.97 297.613 2699.15 312.406C2699.63 314.162 2700.09 315.351 2700.5 315.972 2700.92 316.594 2701.51 316.904 2702.27 316.904 2702.97 316.904 2703.77 316.546 2704.66 315.83 2705.55 315.114 2706.6 314.04 2707.82 312.608L2710.74 315.526C2708.22 318.228 2705.95 320.147 2703.93 321.281 2701.9 322.416 2699.82 322.983 2697.69 322.983 2695.01 322.983 2692.93 322.349 2691.45 321.079 2689.96 319.809 2688.88 317.634 2688.2 314.554L2686.06 304.827C2685.92 304.179 2685.75 303.665 2685.53 303.287 2685.31 302.909 2685.03 302.639 2684.68 302.477 2684.33 302.314 2683.8 302.233 2683.1 302.233L2682.08 302.233 2677.67 322.335 2666.04 322.335 2676.29 276.539C2676.88 273.891 2677.18 271.96 2677.18 270.744 2677.18 270.149 2677.12 269.683 2677 269.345 2676.88 269.008 2676.69 268.731 2676.45 268.515 2676.21 268.299 2675.88 268.13 2675.48 268.008 2675.07 267.887 2674.28 267.745 2673.09 267.583L2673.74 264.948Z" fill-rule="evenodd"/><text fill="#000000" fill-opacity="0" font-family="Arial,Arial_MSFontService,sans-serif" font-size="58.6836" x="2666.04" y="315.648">ğ’Œ</text><path d="M2689.59 541.945C2691.31 541.945 2692.94 542.242 2694.45 542.836L2692.18 553.008 2687.48 553.008C2687.34 552.36 2687.11 551.826 2686.79 551.408 2686.46 550.989 2685.94 550.779 2685.21 550.779 2684.61 550.779 2684.03 550.908 2683.47 551.164 2682.9 551.421 2682.18 551.894 2681.32 552.583 2680.45 553.272 2679.02 554.481 2677.02 556.21L2681.11 570.841C2681.74 573.056 2682.22 574.556 2682.55 575.339 2682.89 576.123 2683.25 576.69 2683.63 577.041 2684.01 577.392 2684.55 577.568 2685.25 577.568 2686.6 577.568 2688.41 576.285 2690.68 573.718L2693.6 576.636C2690.92 579.203 2688.58 580.979 2686.57 581.965 2684.55 582.951 2682.3 583.445 2679.82 583.445 2677.39 583.445 2675.45 582.789 2674.02 581.479 2672.59 580.169 2671.54 578.203 2670.86 575.582L2667.98 563.181C2667.23 563.694 2666.05 564.37 2664.46 565.207L2660.73 582.796 2649.1 582.796 2655.38 554.508C2656.03 551.59 2656.35 549.564 2656.35 548.429 2656.35 547.321 2656.04 546.538 2655.42 546.078 2654.8 545.619 2653.8 545.362 2652.42 545.308L2653.03 542.593 2663.57 542.147 2669.73 542.147 2665.47 560.182C2666.69 559.452 2668.19 558.311 2669.97 556.757 2671.75 555.204 2673.1 553.9 2674.02 552.846 2676.51 550.036 2678.51 547.916 2680.02 546.484 2681.53 545.052 2682.77 544.045 2683.73 543.464 2684.69 542.883 2685.57 542.485 2686.36 542.269 2687.16 542.053 2688.23 541.945 2689.59 541.945Z" fill-rule="evenodd"/><text fill="#000000" fill-opacity="0" font-family="Arial,Arial_MSFontService,sans-serif" font-size="41.5" x="2649.1" y="578.257">ğœ¿</text><path d="M2534.67 446.071 2536.53 447.414 2535.19 449.271 2533.33 447.928ZM2538.39 448.757 2540.24 450.1 2538.9 451.957 2537.04 450.614ZM2542.1 451.443 2543.96 452.786 2542.61 454.643 2540.76 453.3ZM2545.81 454.129 2547.67 455.472 2546.33 457.329 2544.47 455.986ZM2549.53 456.815 2551.38 458.158 2550.04 460.015 2548.18 458.672ZM2553.24 459.501 2555.1 460.844 2553.76 462.701 2551.9 461.358ZM2556.96 462.187 2558.81 463.53 2557.47 465.387 2555.61 464.044ZM2560.67 464.873 2562.53 466.215 2561.18 468.072 2559.33 466.729ZM2564.38 467.558 2566.24 468.901 2564.9 470.758 2563.04 469.415ZM2568.1 470.244 2569.95 471.587 2568.61 473.444 2566.75 472.101ZM2571.81 472.93 2573.67 474.273 2572.32 476.13 2570.47 474.787ZM2575.52 475.616 2577.38 476.959 2576.04 478.816 2574.18 477.473ZM2579.24 478.302 2581.1 479.645 2579.75 481.502 2577.9 480.159ZM2582.95 480.988 2584.81 482.331 2583.47 484.188 2581.61 482.845ZM2586.67 483.674 2588.52 485.017 2587.18 486.874 2585.32 485.531ZM2590.38 486.36 2592.24 487.702 2590.89 489.559 2589.04 488.216ZM2594.09 489.045 2595.95 490.388 2594.61 492.245 2592.75 490.902ZM2597.81 491.731 2599.66 493.074 2598.32 494.931 2596.47 493.588ZM2601.52 494.417 2603.38 495.76 2602.04 497.617 2600.18 496.274ZM2605.24 497.103 2607.09 498.446 2605.75 500.303 2603.89 498.96ZM2608.95 499.789 2610.81 501.132 2609.46 502.989 2607.61 501.646ZM2612.66 502.475 2614.52 503.818 2613.18 505.675 2611.32 504.332ZM2616.38 505.161 2618.23 506.504 2616.89 508.361 2615.03 507.018ZM2620.09 507.847 2621.95 509.189 2620.61 511.046 2618.75 509.703ZM2623.81 510.532 2625.66 511.875 2624.32 513.732 2622.46 512.389ZM2627.52 513.218 2629.38 514.561 2628.03 516.418 2626.18 515.075ZM2631.23 515.904 2633.09 517.247 2631.75 519.104 2629.89 517.761ZM2634.95 518.59 2636.72 519.874 2635.38 521.731 2633.6 520.447ZM2640.39 506.975 2654.62 534.232 2624.28 529.258Z"/><path d="M2687.12 604.564C2688.58 604.564 2689.69 604.726 2690.44 605.05L2688.7 612.831 2685.58 612.831C2685.52 612.291 2685.38 611.845 2685.15 611.494 2684.92 611.143 2684.5 610.967 2683.88 610.967 2683.31 610.967 2682.63 611.21 2681.83 611.697 2681.03 612.183 2679.97 613.027 2678.63 614.23 2677.29 615.432 2675.3 617.343 2672.65 619.964L2677.11 634.757C2677.7 636.702 2678.28 638.06 2678.83 638.83 2679.39 639.6 2680.16 639.985 2681.16 639.985 2681.86 639.985 2682.6 639.721 2683.37 639.194 2684.14 638.668 2685.24 637.634 2686.67 636.094L2689.02 638.283C2687.02 640.471 2685.14 642.079 2683.37 643.105 2681.6 644.132 2679.84 644.645 2678.08 644.645 2676.22 644.645 2674.72 644.064 2673.58 642.903 2672.45 641.741 2671.49 639.836 2670.71 637.188L2667.06 624.341C2665.14 625.773 2663.21 626.854 2661.26 627.583L2657.74 643.997 2650.68 643.997 2657.05 615.547C2657.51 613.493 2657.74 611.886 2657.74 610.724 2657.74 609.454 2657.44 608.589 2656.84 608.13 2656.25 607.671 2655.12 607.428 2653.44 607.401L2653.89 605.253 2663.73 604.888 2666.17 604.888 2661.95 623.895C2663.28 623.355 2665.08 622.078 2667.36 620.065 2669.64 618.053 2672.12 615.628 2674.8 612.791 2677.15 610.305 2678.93 608.556 2680.13 607.543 2681.33 606.529 2682.48 605.78 2683.57 605.293 2684.67 604.807 2685.85 604.564 2687.12 604.564Z" fill-rule="evenodd"/><text fill="#000000" fill-opacity="0" font-family="Arial,Arial_MSFontService,sans-serif" font-size="40.0815" x="2650.68" y="639.635">ğœ…</text><path d="M2722.82 626.003 2772.75 626.003 2772.75 631.393 2722.82 631.393ZM2722.82 609.184 2772.75 609.184 2772.75 614.574 2722.82 614.574Z" fill-rule="evenodd"/><text fill="#000000" fill-opacity="0" font-family="Arial,Arial_MSFontService,sans-serif" font-size="22.209" x="2722.82" y="628.617">=</text><path d="M2822.69 586.043 2825.04 586.043 2817.1 621.423 2818.39 621.423C2820.42 621.423 2822.7 620.538 2825.22 618.769 2827.75 616.999 2829.77 615.358 2831.28 613.845 2832.79 612.332 2833.55 610.873 2833.55 609.468 2833.55 608.144 2832.63 607.401 2830.8 607.239L2831.24 605.253 2844.37 605.253 2845.14 607.239C2842.9 609.265 2840.52 611.251 2838.01 613.196L2827.96 620.977 2831.93 635.608C2832.25 636.851 2832.54 637.749 2832.8 638.303 2833.06 638.857 2833.36 639.269 2833.69 639.539 2834.03 639.809 2834.48 639.944 2835.05 639.944 2835.75 639.944 2836.59 639.566 2837.56 638.809 2838.54 638.053 2839.64 636.959 2840.89 635.527L2843.2 637.796C2840.76 640.363 2838.75 642.146 2837.16 643.146 2835.56 644.146 2834.02 644.645 2832.54 644.645 2830.7 644.645 2829.24 644.125 2828.16 643.085 2827.08 642.045 2826.23 640.309 2825.61 637.877L2822.93 627.34C2822.66 626.286 2822.39 625.557 2822.12 625.152 2821.85 624.746 2821.54 624.476 2821.19 624.341 2820.84 624.206 2820.22 624.138 2819.33 624.138L2816.53 624.138 2812.31 643.997 2805.3 643.997 2815.72 597.674C2816.07 596.107 2816.32 594.885 2816.47 594.006 2816.62 593.128 2816.69 592.352 2816.69 591.676 2816.69 590.541 2816.35 589.744 2815.66 589.285 2814.97 588.826 2813.73 588.569 2811.95 588.515L2812.44 586.408Z" fill-rule="evenodd"/><text fill="#000000" fill-opacity="0" font-family="Arial,Arial_MSFontService,sans-serif" font-size="58.6025" x="2805.3" y="637.32">ğ‘˜</text><path d="M2911.8 604.888 2914.27 604.888 2914.27 633.865C2914.27 636.189 2914.38 637.803 2914.59 638.708 2914.81 639.613 2915.22 640.302 2915.83 640.775 2916.44 641.248 2917.43 641.66 2918.81 642.011L2918.81 643.997 2902.92 643.997 2902.92 642.011C2903.98 641.687 2904.73 641.403 2905.17 641.16 2905.62 640.917 2906 640.579 2906.31 640.147 2906.62 639.714 2906.86 639.053 2907.04 638.161 2907.21 637.269 2907.3 635.878 2907.3 633.987L2907.3 616.317C2907.3 614.588 2907.27 613.196 2907.22 612.142 2907.16 611.089 2906.98 610.244 2906.65 609.609 2906.33 608.974 2905.83 608.502 2905.17 608.191 2904.51 607.88 2903.57 607.617 2902.36 607.401L2902.36 605.253ZM2949 604.604C2950.46 604.604 2951.76 604.773 2952.91 605.111 2954.06 605.449 2955.07 605.969 2955.95 606.671 2956.82 607.374 2957.55 608.245 2958.11 609.285 2958.68 610.325 2959.11 611.575 2959.39 613.034 2959.68 614.493 2959.82 616.344 2959.82 618.586L2959.82 633.865C2959.82 635.729 2959.87 637.08 2959.98 637.918 2960.09 638.755 2960.28 639.404 2960.55 639.863 2960.82 640.322 2961.21 640.707 2961.72 641.018 2962.24 641.329 2963.13 641.66 2964.4 642.011L2964.4 643.997 2948.43 643.997 2948.43 642.011C2949.48 641.687 2950.24 641.403 2950.7 641.16 2951.16 640.917 2951.54 640.579 2951.85 640.147 2952.16 639.714 2952.41 639.046 2952.58 638.141 2952.76 637.236 2952.85 635.864 2952.85 634.027L2952.85 623.409C2952.85 621.518 2952.79 619.802 2952.68 618.262 2952.58 616.722 2952.39 615.459 2952.14 614.473 2951.88 613.487 2951.57 612.717 2951.2 612.163 2950.84 611.609 2950.41 611.136 2949.91 610.744 2949.41 610.352 2948.83 610.042 2948.19 609.812 2947.54 609.582 2946.69 609.468 2945.63 609.468 2944.58 609.468 2943.58 609.677 2942.63 610.096 2941.69 610.515 2940.65 611.237 2939.51 612.264 2938.38 613.291 2937.55 614.304 2937.04 615.304 2936.53 616.303 2936.27 617.451 2936.27 618.748L2936.27 633.865C2936.27 636.189 2936.38 637.803 2936.59 638.708 2936.81 639.613 2937.22 640.302 2937.83 640.775 2938.44 641.248 2939.43 641.66 2940.81 642.011L2940.81 643.997 2924.92 643.997 2924.92 642.011C2925.98 641.687 2926.73 641.403 2927.17 641.16 2927.62 640.917 2928 640.579 2928.31 640.147 2928.62 639.714 2928.86 639.053 2929.04 638.161 2929.21 637.269 2929.3 635.878 2929.3 633.987L2929.3 616.317C2929.3 614.588 2929.27 613.196 2929.22 612.142 2929.16 611.089 2928.98 610.244 2928.65 609.609 2928.33 608.974 2927.83 608.502 2927.17 608.191 2926.51 607.88 2925.57 607.617 2924.36 607.401L2924.36 605.253 2933.84 604.888 2936.31 604.888 2935.87 611.494 2936.43 611.656C2938.43 609.63 2940.05 608.184 2941.28 607.32 2942.5 606.455 2943.75 605.786 2945 605.314 2946.26 604.841 2947.59 604.604 2949 604.604ZM2882.65 604.564C2884.43 604.564 2886.15 604.652 2887.81 604.827 2889.48 605.003 2891.56 605.347 2894.08 605.861L2894.08 614.128 2890.19 614.128C2889.59 612.507 2888.89 611.231 2888.08 610.298 2887.27 609.366 2886.35 608.711 2885.32 608.333 2884.3 607.955 2883.04 607.765 2881.55 607.765 2879.39 607.765 2877.67 608.272 2876.39 609.285 2875.1 610.298 2874.46 611.683 2874.46 613.439 2874.46 614.682 2874.72 615.709 2875.23 616.519 2875.74 617.33 2876.54 618.086 2877.62 618.789 2878.7 619.491 2880.61 620.423 2883.34 621.585 2886.09 622.774 2888.22 623.868 2889.72 624.868 2891.22 625.868 2892.39 627.029 2893.25 628.353 2894.1 629.677 2894.52 631.258 2894.52 633.095 2894.52 635.229 2894.16 637.026 2893.43 638.485 2892.7 639.944 2891.67 641.133 2890.35 642.052 2889.02 642.97 2887.45 643.632 2885.63 644.037 2883.8 644.443 2881.81 644.645 2879.65 644.645 2877.38 644.645 2875.18 644.476 2873.04 644.139 2870.91 643.801 2868.83 643.362 2866.8 642.822L2866.8 634.351 2870.77 634.351C2871.5 636.837 2872.58 638.641 2874.02 639.762 2875.45 640.883 2877.42 641.444 2879.93 641.444 2880.9 641.444 2881.86 641.342 2882.79 641.14 2883.72 640.937 2884.55 640.599 2885.28 640.127 2886.01 639.654 2886.59 639.012 2887.02 638.201 2887.46 637.391 2887.67 636.378 2887.67 635.162 2887.67 633.784 2887.4 632.663 2886.86 631.798 2886.32 630.934 2885.48 630.143 2884.35 629.427 2883.21 628.711 2881.22 627.745 2878.35 626.53 2875.89 625.503 2873.92 624.503 2872.43 623.531 2870.95 622.558 2869.78 621.41 2868.93 620.086 2868.08 618.762 2867.65 617.195 2867.65 615.385 2867.65 613.169 2868.25 611.244 2869.46 609.609 2870.66 607.975 2872.39 606.725 2874.66 605.861 2876.93 604.996 2879.59 604.564 2882.65 604.564ZM2907.06 589.366 2914.51 589.366 2914.51 597.228 2907.06 597.228Z" fill-rule="evenodd"/><text fill="#000000" fill-opacity="0" font-family="Arial,Arial_MSFontService,sans-serif" font-size="55.2793" x="2866.8" y="637.735">sin</text><path d="M2992.04 604.604C2994.68 604.604 2996.62 605.617 2997.83 607.644 2999.05 609.67 2999.66 613.007 2999.66 617.654 2999.66 623.112 2999.4 629.029 2998.89 635.405L2999.25 635.405C3005.82 624.382 3011.25 614.331 3015.54 605.253L3024.01 605.253 3023.49 607.198C3020.86 610.359 3017.03 615.56 3011.98 622.801 3006.92 630.042 3002.21 637.229 2997.83 644.362 2996.94 649.981 2995.8 655.277 2994.43 660.248L2988.39 660.248 2987.21 658.344C2988.29 654.102 2990.23 649.428 2993.01 644.321 2993.25 639.215 2993.37 634 2993.37 628.678 2993.37 624.166 2993.28 620.667 2993.09 618.181 2992.9 615.695 2992.62 613.824 2992.26 612.568 2991.89 611.312 2991.46 610.447 2990.96 609.974 2990.46 609.501 2989.85 609.265 2989.12 609.265 2987.6 609.265 2985.86 610.359 2983.89 612.548L2981.62 610.278C2982.92 609.116 2983.92 608.238 2984.64 607.644 2985.36 607.049 2986.1 606.523 2986.87 606.063 2987.64 605.604 2988.44 605.246 2989.26 604.989 2990.08 604.733 2991.01 604.604 2992.04 604.604Z" fill-rule="evenodd"/><text fill="#000000" fill-opacity="0" font-family="Arial,Arial_MSFontService,sans-serif" font-size="55.644" x="2981.62" y="653.293">ğ›¾</text></g></svg>