<svg width="581" height="533" xmlns="http://www.w3.org/2000/svg" xmlns:xlink="http://www.w3.org/1999/xlink" xml:space="preserve" overflow="hidden"><g transform="translate(-2308 -948)"><path d="M1.14583-1.61986e-06 1.14616 232.367-1.1455 232.367-1.14583 1.61986e-06ZM13.7503 227.783 0.000360892 255.283-13.7497 227.783Z" transform="matrix(1 0 0 -1 2499 1329.28)"/><path d="M2496 1328.85 2781.46 1328.85 2781.46 1331.15 2496 1331.15ZM2776.88 1316.25 2804.38 1330 2776.88 1343.75Z"/><path d="M2842.84 1323.46C2843.67 1323.46 2844.41 1323.56 2845.04 1323.74 2845.68 1323.93 2846.24 1324.22 2846.73 1324.62 2847.21 1325.01 2847.65 1325.51 2848.02 1326.14 2848.4 1326.76 2848.77 1327.6 2849.12 1328.67 2849.47 1329.74 2849.8 1331.06 2850.11 1332.64 2850.42 1334.22 2850.7 1335.86 2850.94 1337.56L2851.35 1337.56C2853.94 1333.92 2855.91 1331.25 2857.24 1329.56 2858.58 1327.87 2859.71 1326.62 2860.63 1325.79 2861.55 1324.97 2862.43 1324.39 2863.28 1324.05 2864.13 1323.71 2865.26 1323.54 2866.67 1323.54 2867.94 1323.54 2868.98 1323.7 2869.79 1324.03L2868.17 1331.36 2865.33 1331.36C2865.17 1330.23 2864.69 1329.66 2863.91 1329.66 2863.67 1329.66 2863.41 1329.7 2863.14 1329.78 2862.87 1329.86 2862.54 1330.04 2862.15 1330.31 2861.76 1330.58 2861.18 1331.11 2860.42 1331.89 2859.67 1332.67 2858.82 1333.63 2857.87 1334.77 2856.93 1335.9 2855.95 1337.09 2854.95 1338.33L2852.2 1341.78C2852.68 1344.37 2853.14 1346.62 2853.58 1348.51 2854.01 1350.4 2854.39 1351.97 2854.73 1353.23 2855.07 1354.48 2855.37 1355.48 2855.62 1356.21 2855.88 1356.94 2856.16 1357.48 2856.45 1357.85 2856.75 1358.21 2857.05 1358.47 2857.36 1358.62 2857.68 1358.77 2858.03 1358.84 2858.44 1358.84 2859.17 1358.84 2859.88 1358.56 2860.57 1357.99 2861.26 1357.42 2862.25 1356.14 2863.55 1354.14L2866.18 1355.88C2864.29 1358.69 2862.58 1360.67 2861.05 1361.82 2859.53 1362.97 2857.71 1363.54 2855.6 1363.54 2854.44 1363.54 2853.45 1363.33 2852.64 1362.91 2851.83 1362.5 2851.13 1361.83 2850.54 1360.91 2849.94 1359.99 2849.41 1358.56 2848.96 1356.61 2848.12 1353.15 2847.6 1350.51 2847.42 1348.67L2847.01 1348.67C2844.15 1352.69 2842.02 1355.59 2840.63 1357.34 2839.24 1359.1 2838.09 1360.4 2837.18 1361.23 2836.28 1362.07 2835.4 1362.66 2834.55 1363 2833.7 1363.33 2832.57 1363.5 2831.16 1363.5 2829.89 1363.5 2828.85 1363.34 2828.04 1363.02L2829.66 1355.68 2832.5 1355.68C2832.66 1356.82 2833.14 1357.38 2833.92 1357.38 2834.3 1357.38 2834.7 1357.28 2835.12 1357.08 2835.53 1356.88 2836.14 1356.39 2836.92 1355.62 2837.7 1354.85 2838.78 1353.64 2840.16 1351.99 2841.54 1350.34 2843.54 1347.87 2846.16 1344.58 2845.75 1342.44 2845.33 1340.39 2844.9 1338.42 2844.47 1336.44 2844.02 1334.61 2843.57 1332.9 2843.11 1331.2 2842.73 1330.09 2842.43 1329.56 2842.13 1329.03 2841.82 1328.67 2841.48 1328.47 2841.14 1328.26 2840.71 1328.16 2840.2 1328.16 2839.63 1328.16 2839.12 1328.29 2838.66 1328.55 2838.2 1328.8 2837.7 1329.25 2837.16 1329.88 2836.62 1330.52 2835.91 1331.51 2835.01 1332.86L2832.38 1331.12C2834.08 1328.55 2835.72 1326.64 2837.28 1325.37 2838.85 1324.1 2840.7 1323.46 2842.84 1323.46Z" fill-rule="evenodd"/><text fill="#000000" fill-opacity="0" font-family="Arial,Arial_MSFontService,sans-serif" font-size="40.0815" x="2828.04" y="1358.53">𝑥</text><path d="M2411.02 1003.14 2439.84 1003.14 2440.61 1005.17 2421.28 1027.37C2417.52 1031.67 2414.27 1035.32 2411.51 1038.32L2411.75 1038.6 2420.91 1038.6C2422.53 1038.6 2423.78 1038.51 2424.64 1038.34 2425.51 1038.16 2426.26 1037.83 2426.91 1037.34 2427.56 1036.86 2428.23 1036.12 2428.92 1035.14 2429.61 1034.15 2430.46 1032.6 2431.49 1030.5L2435.1 1030.5 2432.63 1041.88 2403.28 1041.88 2402.51 1039.9 2424.68 1014.37C2427.82 1010.77 2430.11 1008.22 2431.57 1006.71L2431.33 1006.42 2421.84 1006.42C2420.44 1006.42 2419.41 1006.52 2418.76 1006.71 2418.12 1006.89 2417.47 1007.23 2416.82 1007.7 2416.17 1008.17 2415.48 1008.87 2414.73 1009.81 2413.99 1010.74 2413.16 1012.07 2412.24 1013.8L2408.63 1013.8Z" fill-rule="evenodd"/><text fill="#000000" fill-opacity="0" font-family="Arial,Arial_MSFontService,sans-serif" font-size="38.7441" x="2402.51" y="1037.04">𝑧</text><path d="M2471.98 1023.89 2521.91 1023.89 2521.91 1029.28 2471.98 1029.28ZM2471.98 1007.07 2521.91 1007.07 2521.91 1012.46 2471.98 1012.46Z" fill-rule="evenodd"/><text fill="#000000" fill-opacity="0" font-family="Arial,Arial_MSFontService,sans-serif" font-size="22.209" x="2471.98" y="1026.5">=</text><path d="M2573.71 989.36C2571.85 989.36 2570.29 989.914 2569.03 991.021 2567.78 992.129 2566.76 993.723 2565.99 995.804 2565.22 997.884 2564.68 1000.42 2564.35 1003.4 2564.03 1006.39 2563.86 1009.76 2563.86 1013.51 2563.86 1022.32 2564.68 1028.79 2566.32 1032.91 2567.95 1037.03 2570.48 1039.09 2573.92 1039.09 2577.18 1039.09 2579.61 1037.15 2581.19 1033.27 2582.77 1029.39 2583.56 1023.39 2583.56 1015.26 2583.56 1009.04 2583.16 1004.01 2582.34 1000.16 2581.53 996.31 2580.41 993.548 2578.96 991.873 2577.52 990.197 2575.77 989.36 2573.71 989.36ZM2573.92 985.915C2579.83 985.915 2584.24 988.198 2587.13 992.764 2590.02 997.33 2591.46 1004.23 2591.46 1013.47 2591.46 1023.04 2589.92 1030.27 2586.82 1035.18 2583.73 1040.08 2579.21 1042.53 2573.27 1042.53 2567.43 1042.53 2563.09 1040.24 2560.24 1035.64 2557.39 1031.05 2555.96 1024.08 2555.96 1014.73 2555.96 1009.76 2556.4 1005.46 2557.28 1001.84 2558.16 998.222 2559.39 995.23 2560.97 992.865 2562.55 990.501 2564.45 988.752 2566.66 987.617 2568.88 986.482 2571.29 985.915 2573.92 985.915Z" fill-rule="evenodd"/><text fill="#000000" fill-opacity="0" font-family="Arial,Arial_MSFontService,sans-serif" font-size="56.6167" x="2555.96" y="1035.45">0</text><path d="M2354.5 1336C2354.5 1257.3 2418.3 1193.5 2497 1193.5 2575.7 1193.5 2639.5 1257.3 2639.5 1336 2639.5 1414.7 2575.7 1478.5 2497 1478.5 2418.3 1478.5 2354.5 1414.7 2354.5 1336Z" stroke="#000000" stroke-width="4.58333" stroke-miterlimit="8" fill="none" fill-rule="evenodd"/><path d="M2380.5 1334.5C2380.5 1269.33 2433.33 1216.5 2498.5 1216.5 2563.67 1216.5 2616.5 1269.33 2616.5 1334.5 2616.5 1399.67 2563.67 1452.5 2498.5 1452.5 2433.33 1452.5 2380.5 1399.67 2380.5 1334.5Z" stroke="#000000" stroke-width="4.58333" stroke-miterlimit="8" fill="none" fill-rule="evenodd"/><path d="M2399.5 1333C2399.5 1279.15 2443.15 1235.5 2497 1235.5 2550.85 1235.5 2594.5 1279.15 2594.5 1333 2594.5 1386.85 2550.85 1430.5 2497 1430.5 2443.15 1430.5 2399.5 1386.85 2399.5 1333Z" stroke="#000000" stroke-width="4.58333" stroke-miterlimit="8" fill="none" fill-rule="evenodd"/><path d="M2418.5 1334.5C2418.5 1290.32 2454.32 1254.5 2498.5 1254.5 2542.68 1254.5 2578.5 1290.32 2578.5 1334.5 2578.5 1378.68 2542.68 1414.5 2498.5 1414.5 2454.32 1414.5 2418.5 1378.68 2418.5 1334.5Z" stroke="#000000" stroke-width="4.58333" stroke-miterlimit="8" fill="none" fill-rule="evenodd"/></g></svg>