<svg width="392" height="431" xmlns="http://www.w3.org/2000/svg" xmlns:xlink="http://www.w3.org/1999/xlink" xml:space="preserve" overflow="hidden"><g transform="translate(-720 -1207)"><path d="M1.14583-1.61986e-06 1.14616 232.367-1.1455 232.367-1.14583 1.61986e-06ZM13.7503 227.783 0.000360892 255.283-13.7497 227.783Z" transform="matrix(1 0 0 -1 748 1591.28)"/><path d="M751 1590.85 1008.43 1590.85 1008.43 1593.15 751 1593.15ZM1003.84 1578.25 1031.34 1592 1003.84 1605.75Z"/><path d="M1.00001-0.55938 179.486 318.524 177.486 319.643-1.00001 0.55938ZM188.249 308.371 189.674 339.084 164.249 321.796Z" transform="matrix(1 0 0 -1 745 1592.08)"/><path d="M933.127 1329.69 937.707 1329.69 930.169 1363.82 930.979 1363.82C931.952 1363.82 932.87 1363.64 933.735 1363.29 934.789 1362.86 936.086 1362.09 937.626 1360.98 939.706 1359.44 941.179 1358.24 942.043 1357.37 942.908 1356.51 943.509 1355.69 943.847 1354.92 944.184 1354.15 944.353 1353.36 944.353 1352.55 944.353 1351.93 944.184 1351.4 943.847 1350.97 943.509 1350.54 942.908 1350.28 942.043 1350.2L942.692 1347.52 957.119 1347.52 958.132 1350.16C956.457 1352 954.201 1353.99 951.364 1356.16L942.246 1363.01 946.42 1377.8C946.906 1379.55 947.359 1380.74 947.778 1381.36 948.196 1381.99 948.784 1382.3 949.541 1382.3 950.243 1382.3 951.04 1381.94 951.932 1381.22 952.823 1380.51 953.877 1379.43 955.093 1378L958.011 1380.92C955.498 1383.62 953.229 1385.54 951.202 1386.67 949.176 1387.81 947.096 1388.38 944.961 1388.38 942.286 1388.38 940.206 1387.74 938.72 1386.47 937.234 1385.2 936.153 1383.03 935.478 1379.95L933.33 1370.22C933.195 1369.57 933.019 1369.06 932.803 1368.68 932.587 1368.3 932.303 1368.03 931.952 1367.87 931.601 1367.71 931.074 1367.63 930.371 1367.63L929.358 1367.63 924.941 1387.73 913.309 1387.73 923.563 1341.93C924.157 1339.28 924.454 1337.35 924.454 1336.14 924.454 1335.54 924.393 1335.08 924.272 1334.74 924.15 1334.4 923.968 1334.12 923.725 1333.91 923.482 1333.69 923.157 1333.52 922.752 1333.4 922.347 1333.28 921.55 1333.14 920.361 1332.97L921.009 1330.34Z" fill-rule="evenodd"/><text fill="#000000" fill-opacity="0" font-family="Arial,Arial_MSFontService,sans-serif" font-size="58.6836" x="913.309" y="1381.04">𝒌</text><path d="M1071.58 1575.24C1072.42 1575.24 1073.15 1575.33 1073.79 1575.52 1074.42 1575.71 1074.99 1576 1075.47 1576.39 1075.96 1576.78 1076.39 1577.29 1076.77 1577.91 1077.15 1578.53 1077.51 1579.38 1077.86 1580.44 1078.21 1581.51 1078.54 1582.84 1078.86 1584.42 1079.17 1586 1079.44 1587.64 1079.69 1589.34L1080.09 1589.34C1082.69 1585.69 1084.65 1583.02 1085.99 1581.34 1087.33 1579.65 1088.45 1578.39 1089.37 1577.57 1090.29 1576.74 1091.18 1576.16 1092.03 1575.82 1092.88 1575.49 1094.01 1575.32 1095.41 1575.32 1096.68 1575.32 1097.72 1575.48 1098.53 1575.8L1096.91 1583.14 1094.07 1583.14C1093.91 1582 1093.44 1581.44 1092.66 1581.44 1092.41 1581.44 1092.16 1581.48 1091.89 1581.56 1091.61 1581.64 1091.28 1581.82 1090.89 1582.09 1090.5 1582.36 1089.93 1582.88 1089.17 1583.67 1088.41 1584.45 1087.56 1585.41 1086.62 1586.54 1085.67 1587.68 1084.7 1588.87 1083.7 1590.11L1080.94 1593.55C1081.43 1596.15 1081.89 1598.39 1082.32 1600.28 1082.75 1602.17 1083.14 1603.75 1083.48 1605 1083.81 1606.26 1084.11 1607.25 1084.37 1607.98 1084.62 1608.71 1084.9 1609.26 1085.2 1609.62 1085.5 1609.99 1085.8 1610.25 1086.11 1610.39 1086.42 1610.54 1086.78 1610.62 1087.18 1610.62 1087.91 1610.62 1088.62 1610.33 1089.31 1609.77 1090 1609.2 1090.99 1607.91 1092.29 1605.92L1094.92 1607.66C1093.03 1610.47 1091.32 1612.45 1089.8 1613.6 1088.27 1614.74 1086.45 1615.32 1084.35 1615.32 1083.19 1615.32 1082.2 1615.11 1081.39 1614.69 1080.58 1614.27 1079.88 1613.6 1079.28 1612.68 1078.69 1611.76 1078.16 1610.33 1077.7 1608.39 1076.86 1604.93 1076.35 1602.28 1076.16 1600.44L1075.76 1600.44C1072.89 1604.47 1070.76 1607.36 1069.37 1609.12 1067.98 1610.87 1066.83 1612.17 1065.93 1613.01 1065.02 1613.85 1064.14 1614.43 1063.29 1614.77 1062.44 1615.11 1061.31 1615.28 1059.91 1615.28 1058.64 1615.28 1057.6 1615.12 1056.79 1614.79L1058.41 1607.46 1061.25 1607.46C1061.41 1608.59 1061.88 1609.16 1062.66 1609.16 1063.04 1609.16 1063.44 1609.06 1063.86 1608.85 1064.28 1608.65 1064.88 1608.16 1065.66 1607.39 1066.45 1606.62 1067.53 1605.42 1068.91 1603.77 1070.28 1602.12 1072.28 1599.65 1074.9 1596.35 1074.5 1594.22 1074.08 1592.16 1073.65 1590.19 1073.22 1588.22 1072.77 1586.38 1072.31 1584.68 1071.85 1582.98 1071.47 1581.86 1071.18 1581.34 1070.88 1580.81 1070.56 1580.44 1070.22 1580.24 1069.89 1580.04 1069.46 1579.94 1068.95 1579.94 1068.38 1579.94 1067.87 1580.07 1067.41 1580.32 1066.95 1580.58 1066.45 1581.02 1065.91 1581.66 1065.37 1582.29 1064.65 1583.29 1063.76 1584.64L1061.12 1582.9C1062.83 1580.33 1064.46 1578.41 1066.03 1577.14 1067.6 1575.87 1069.45 1575.24 1071.58 1575.24Z" fill-rule="evenodd"/><text fill="#000000" fill-opacity="0" font-family="Arial,Arial_MSFontService,sans-serif" font-size="40.0815" x="1056.79" y="1610.31">𝑥</text><path d="M790.541 1348.98 819.356 1348.98 820.126 1351.01 800.794 1373.22C797.039 1377.51 793.783 1381.16 791.027 1384.16L791.27 1384.44 800.429 1384.44C802.05 1384.44 803.293 1384.36 804.158 1384.18 805.022 1384.01 805.779 1383.67 806.427 1383.19 807.076 1382.7 807.745 1381.97 808.433 1380.98 809.122 1379.99 809.98 1378.45 811.007 1376.34L814.614 1376.34 812.142 1387.73 782.8 1387.73 782.03 1385.74 804.198 1360.21C807.332 1356.62 809.629 1354.06 811.088 1352.55L810.845 1352.27 801.361 1352.27C799.956 1352.27 798.93 1352.36 798.281 1352.55 797.633 1352.74 796.984 1353.07 796.336 1353.54 795.688 1354.02 794.992 1354.72 794.249 1355.65 793.506 1356.58 792.675 1357.91 791.756 1359.64L788.15 1359.64Z" fill-rule="evenodd"/><text fill="#000000" fill-opacity="0" font-family="Arial,Arial_MSFontService,sans-serif" font-size="38.7441" x="782.03" y="1382.88">𝑧</text><text fill="#FF0000" font-family="Cambria Math,Cambria Math_MSFontService,sans-serif" font-weight="400" font-size="50" transform="matrix(1 0 0 1 845.155 1254)">𝜃</text><path d="M758.737 1278.16C807.288 1263.09 860.777 1278.51 896.895 1317.98" stroke="#FF0000" stroke-width="2.29167" stroke-miterlimit="8" stroke-dasharray="2.29167 2.29167" fill="none" fill-rule="evenodd"/></g></svg>